ZhuqueFangsong.glyphspackage
{
color = 2;
glyphname = numbersign;
layers = (
{
layerId = m01;
shapes = (
{
closed = 1;
nodes = (
(134,43,l),
(171,209,l),
(207,210,l),
(277,209,l),
(240,41,l),
(247,35,l),
(286,43,l),
(322,208,l),
(424,207,l),
(443,243,l),
(439,252,l),
(332,252,l),
(348,323,l),
(357,362,l),
(461,361,l),
(480,397,l),
(476,406,l),
(368,406,l),
(407,567,l),
(399,573,l),
(359,568,l),
(322,406,l),
(269,407,l),
(216,407,l),
(255,567,l),
(247,573,l),
(207,568,l),
(170,408,l),
(63,409,l),
(48,372,l),
(51,362,l),
(160,363,l),
(148,311,l),
(135,254,l),
(26,255,l),
(11,218,l),
(14,208,l),
(125,209,l),
(88,41,l),
(95,35,l)
);
},
{
closed = 1;
nodes = (
(232,253,l),
(180,253,l),
(196,323,l),
(206,363,l),
(244,364,l),
(312,363,l),
(300,311,l),
(287,252,l)
);
}
);
width = 498;
}
);
locked = 1;
unicode = 35;
}
{
color = 2;
glyphname = dollar;
layers = (
{
anchors = (
{
name = bottom;
pos = (243,0);
},
{
name = top;
pos = (258,637);
}
);
background = {
shapes = (
{
closed = 1;
nodes = (
(282,649,l),
(276,658,l),
(250,654,l),
(175,-147,l),
(180,-154,l),
(206,-151,l)
);
}
);
};
layerId = m01;
shapes = (
{
closed = 1;
nodes = (
(222,19,l),
(266,484,l),
(234,484,l),
(191,19,l)
);
},
{
closed = 1;
nodes = (
(206,-151,l),
(222,19,l),
(191,19,l),
(175,-147,l),
(180,-154,l)
);
},
{
closed = 1;
nodes = (
(266,484,l),
(282,649,l),
(276,658,l),
(250,654,l),
(234,484,l)
);
},
{
closed = 1;
nodes = (
(315,-9,o),
(400,54,o),
(400,144,cs),
(400,218,o),
(320,254,o),
(250,287,cs),
(192,315,o),
(139,342,o),
(139,386,cs),
(139,426,o),
(180,455,o),
(236,455,cs),
(306,455,o),
(329,437,o),
(329,385,cs),
(329,364,o),
(327,349,o),
(327,349,c),
(333,345,l),
(372,349,l),
(377,420,o),
(391,481,o),
(391,481,c),
(387,488,l),
(387,488,o),
(333,507,o),
(258,507,cs),
(146,507,o),
(62,444,o),
(62,359,cs),
(62,289,o),
(129,253,o),
(195,221,cs),
(257,191,o),
(318,165,o),
(318,116,cs),
(318,69,o),
(275,39,o),
(211,39,cs),
(128,39,o),
(109,62,o),
(109,166,c),
(64,162,l),
(64,90,o),
(53,27,o),
(53,27,c),
(58,18,l),
(58,18,o),
(112,-9,o),
(191,-9,cs)
);
}
);
width = 459;
}
);
locked = 1;
unicode = 36;
}
{
color = 2;
glyphname = ampersand;
layers = (
{
background = {
shapes = (
{
closed = 1;
nodes = (
(741,458,l),
(723,480,ls),
(723,476,o),
(691,472,o),
(634,469,cs),
(431,457,ls),
(382,454,o),
(355,450,o),
(355,446,cs),
(371,347,ls),
(382,348,o),
(439,353,o),
(452,353,cs),
(476,353,o),
(487,336,o),
(487,290,cs),
(487,267,o),
(484,249,o),
(477,226,cs),
(295,380,ls),
(253,415,o),
(235,446,o),
(235,486,cs),
(235,527,o),
(254,545,o),
(299,545,cs),
(338,545,o),
(375,531,o),
(402,507,cs),
(428,507,l),
(478,617,l),
(474,637,ls),
(430,651,o),
(374,659,o),
(319,659,cs),
(156,659,o),
(66,590,o),
(66,487,cs),
(66,429,o),
(94,387,o),
(142,335,cs),
(142,324,ls),
(142,324,o),
(26,286,o),
(26,162,cs),
(26,50,o),
(121,-12,o),
(258,-12,cs),
(339,-12,o),
(392,10,o),
(449,52,cs),
(573,-60,ls),
(615,-33,o),
(652,-2,o),
(689,30,cs),
(689,47,l),
(555,160,ls),
(583,205,o),
(596,244,o),
(596,292,cs),
(596,305,o),
(595,328,o),
(592,342,cs),
(597,350,l),
(649,350,ls),
(685,350,o),
(710,363,o),
(718,386,cs),
(741,458,ls)
);
},
{
closed = 1;
nodes = (
(376,118,ls),
(349,106,o),
(325,98,o),
(297,98,cs),
(217,98,o),
(184,126,o),
(184,194,cs),
(184,222,o),
(191,244,o),
(208,269,cs)
);
}
);
};
layerId = m01;
shapes = (
{
closed = 1;
nodes = (
(610,-28,o),
(657,3,o),
(657,3,c),
(657,19,l),
(517,137,l),
(543,177,o),
(557,221,o),
(557,263,cs),
(557,301,o),
(542,337,o),
(515,361,c),
(518,367,l),
(618,367,ls),
(669,367,o),
(679,370,o),
(688,387,c),
(701,418,l),
(691,442,l),
(688,438,o),
(676,436,o),
(614,431,c),
(408,419,ls),
(376,417,o),
(355,401,o),
(355,401,c),
(369,358,l),
(369,358,o),
(399,367,o),
(426,367,cs),
(480,367,o),
(504,329,o),
(504,249,cs),
(504,216,o),
(498,187,o),
(486,163,c),
(326,301,ls),
(208,402,o),
(175,448,o),
(175,514,cs),
(175,560,o),
(209,590,o),
(263,590,cs),
(300,590,o),
(321,580,o),
(369,536,c),
(372,536,o),
(376,537,o),
(379,537,c),
(427,611,l),
(425,626,l),
(425,626,o),
(377,649,o),
(304,649,cs),
(191,649,o),
(105,581,o),
(105,490,cs),
(105,442,o),
(131,392,o),
(187,333,c),
(187,326,l),
(187,326,o),
(55,275,o),
(55,160,cs),
(55,54,o),
(138,-12,o),
(269,-12,cs),
(337,-12,o),
(412,22,o),
(468,78,c),
(546,8,o),
(589,-28,o),
(595,-28,cs)
);
},
{
closed = 1;
nodes = (
(196,51,o),
(130,102,o),
(130,180,cs),
(130,231,o),
(164,279,o),
(216,303,c),
(441,102,l),
(403,69,o),
(352,51,o),
(297,51,cs)
);
}
);
width = 700;
}
);
locked = 1;
unicode = 38;
}
{
color = 2;
glyphname = parenleft;
layers = (
{
layerId = m01;
shapes = (
{
closed = 1;
nodes = (
(246,-146,l),
(267,-120,l),
(267,-115,l),
(267,-115,o),
(124,-45,o),
(124,178,cs),
(124,351,ls),
(124,558,o),
(261,616,o),
(261,616,c),
(262,620,l),
(249,649,l),
(245,649,l),
(245,649,o),
(57,581,o),
(57,336,cs),
(57,163,l),
(57,-79,o),
(242,-146,o),
(242,-146,c)
);
}
);
width = 275;
}
);
locked = 1;
unicode = 40;
}
{
color = 2;
glyphname = parenright;
layers = (
{
background = {
shapes = (
{
closed = 1;
nodes = (
(217,582,o),
(32,649,o),
(32,649,c),
(31,649,o),
(29,649,o),
(28,649,c),
(7,623,l),
(7,621,o),
(7,620,o),
(7,618,cs),
(7,618,o),
(150,548,o),
(150,325,cs),
(150,267,o),
(150,210,o),
(150,152,cs),
(150,-55,o),
(13,-113,o),
(13,-113,c),
(13,-114,o),
(12,-116,o),
(12,-117,cs),
(16,-127,o),
(21,-136,o),
(25,-146,c),
(29,-146,l),
(29,-146,o),
(217,-78,o),
(217,167,cs),
(217,225,o),
(217,282,o),
(217,340,cs)
);
}
);
};
layerId = m01;
shapes = (
{
closed = 1;
nodes = (
(29,-146,l),
(29,-146,o),
(217,-78,o),
(217,167,cs),
(217,340,l),
(217,582,o),
(32,649,o),
(32,649,c),
(28,649,l),
(7,623,l),
(7,618,l),
(7,618,o),
(150,548,o),
(150,325,cs),
(150,152,ls),
(150,-55,o),
(13,-113,o),
(13,-113,c),
(12,-117,l),
(25,-146,l)
);
}
);
width = 274;
}
);
locked = 1;
unicode = 41;
}
{
color = 3;
glyphname = comma;
kernLeft = period;
kernRight = period;
layers = (
{
layerId = m01;
shapes = (
{
closed = 1;
nodes = (
(106,-116,o),
(141,-85,o),
(186,-36,cs),
(203,-17,o),
(215,-5,o),
(224,5,cs),
(234,14,o),
(236,21,o),
(227,32,cs),
(215,51,o),
(173,95,o),
(138,124,c),
(87,85,l),
(114,60,o),
(126,36,o),
(126,12,cs),
(126,-26,o),
(77,-77,o),
(-17,-150,c),
(14,-187,l)
);
}
);
width = 294;
}
);
unicode = 44;
}
{
color = 3;
glyphname = period;
kernLeft = period;
kernRight = period;
layers = (
{
layerId = m01;
shapes = (
{
closed = 1;
nodes = (
(159,-43,o),
(173,-43,o),
(188,-31,cs),
(198,-21,o),
(216,-1,o),
(228,31,cs),
(232,40,o),
(231,47,o),
(213,61,cs),
(192,78,o),
(168,96,o),
(134,111,c),
(69,39,l),
(110,12,o),
(133,-16,o),
(152,-35,cs)
);
}
);
width = 305;
}
);
unicode = 46;
}
{
color = 2;
glyphname = three;
layers = (
{
layerId = m01;
shapes = (
{
closed = 1;
nodes = (
(215,-105,o),
(360,16,o),
(360,122,cs),
(360,183,o),
(315,225,o),
(225,246,c),
(225,251,l),
(292,285,o),
(335,340,o),
(335,393,cs),
(335,461,o),
(283,505,o),
(205,505,cs),
(131,505,o),
(40,433,o),
(40,433,c),
(50,391,l),
(53,391,o),
(57,391,o),
(60,391,c),
(90,421,o),
(136,442,o),
(174,442,cs),
(218,442,o),
(252,414,o),
(252,372,cs),
(252,328,o),
(214,280,o),
(161,255,c),
(96,239,l),
(101,204,l),
(106,199,l),
(228,198,o),
(285,166,o),
(285,98,cs),
(285,22,o),
(208,-35,o),
(108,-35,cs),
(83,-35,o),
(56,-32,o),
(28,-26,c),
(23,-32,l),
(24,-84,o),
(42,-105,o),
(87,-105,cs)
);
}
);
width = 416;
}
);
locked = 1;
unicode = 51;
}
{
color = 2;
glyphname = five;
layers = (
{
layerId = m01;
shapes = (
{
closed = 1;
nodes = (
(199,-105,o),
(364,6,o),
(364,128,cs),
(364,223,o),
(258,265,o),
(124,296,c),
(131,422,l),
(247,422,o),
(350,414,o),
(350,414,c),
(356,420,l),
(380,538,l),
(347,534,l),
(336,504,o),
(323,497,o),
(284,495,cs),
(95,487,l),
(87,479,l),
(87,479,o),
(80,353,o),
(70,235,c),
(79,224,l),
(237,197,o),
(288,163,o),
(288,98,cs),
(288,19,o),
(207,-35,o),
(102,-35,cs),
(76,-35,o),
(49,-32,o),
(21,-26,c),
(16,-32,l),
(19,-91,o),
(41,-105,o),
(79,-105,cs)
);
}
);
width = 430;
}
);
locked = 1;
unicode = 53;
}
{
color = 2;
glyphname = seven;
layers = (
{
layerId = m01;
shapes = (
{
closed = 1;
nodes = (
(169,-105,l),
(194,-19,l),
(233,70,o),
(303,233,o),
(418,465,c),
(396,493,l),
(185,493,ls),
(123,493,o),
(63,497,o),
(63,497,c),
(57,492,l),
(52,416,o),
(38,319,o),
(38,319,c),
(77,325,l),
(90,396,o),
(101,415,o),
(169,418,cs),
(342,425,l),
(92,-65,l),
(102,-87,l),
(162,-105,l)
);
}
);
width = 420;
}
);
locked = 1;
unicode = 55;
}
{
color = 2;
glyphname = eight;
layers = (
{
layerId = m01;
shapes = (
{
closed = 1;
nodes = (
(343,-12,o),
(431,68,o),
(431,166,cs),
(431,243,o),
(374,285,o),
(311,319,c),
(352,341,o),
(410,387,o),
(410,464,cs),
(410,554,o),
(331,598,o),
(254,598,cs),
(148,598,o),
(74,519,o),
(74,435,cs),
(74,361,o),
(126,321,o),
(185,289,c),
(140,268,o),
(56,218,o),
(56,124,cs),
(56,36,o),
(137,-12,o),
(227,-12,cs)
);
},
{
closed = 1;
nodes = (
(180,31,o),
(129,87,o),
(129,148,cs),
(129,223,o),
(187,257,o),
(220,271,c),
(291,236,o),
(362,205,o),
(362,137,cs),
(362,76,o),
(310,31,o),
(251,31,cs)
);
},
{
closed = 1;
nodes = (
(208,372,o),
(144,403,o),
(144,465,cs),
(144,510,o),
(180,552,o),
(237,552,cs),
(292,552,o),
(335,514,o),
(335,443,cs),
(335,384,o),
(302,353,o),
(275,337,c)
);
}
);
width = 485;
}
);
locked = 1;
unicode = 56;
}
{
color = 2;
glyphname = greater;
layers = (
{
layerId = m01;
shapes = (
{
closed = 1;
nodes = (
(69,70,o),
(179,112,o),
(270,151,cs),
(473,237,l),
(475,284,l),
(467,295,l),
(467,295,o),
(342,347,o),
(269,379,cs),
(187,414,o),
(81,464,o),
(81,464,c),
(51,424,l),
(52,413,l),
(52,413,o),
(151,370,o),
(233,334,cs),
(401,264,l),
(401,258,l),
(247,198,l),
(165,164,o),
(53,125,o),
(53,125,c),
(60,75,l),
(69,70,l)
);
}
);
width = 506;
}
);
locked = 1;
unicode = 62;
}
{
color = 2;
glyphname = question;
layers = (
{
layerId = m01;
shapes = (
{
closed = 1;
nodes = (
(178,216,l),
(181,224,l),
(160,319,l),
(163,328,l),
(238,382,o),
(329,417,o),
(329,529,cs),
(329,620,o),
(228,690,o),
(105,694,c),
(91,690,l),
(58,637,l),
(60,626,l),
(181,619,o),
(263,580,o),
(263,499,cs),
(263,462,o),
(237,434,o),
(206,413,c),
(87,337,l),
(84,323,l),
(108,203,l),
(117,199,l)
);
},
{
closed = 1;
nodes = (
(182,-12,o),
(206,16,o),
(206,50,cs),
(206,81,o),
(186,107,o),
(149,107,cs),
(111,107,o),
(87,79,o),
(87,45,cs),
(87,16,o),
(105,-12,o),
(143,-12,cs)
);
}
);
width = 360;
}
);
locked = 1;
unicode = 63;
}
{
color = 2;
glyphname = C;
kernLeft = O;
kernRight = C;
layers = (
{
anchors = (
{
name = bottom;
pos = (314,0);
},
{
name = top;
pos = (335,647);
}
);
layerId = m01;
shapes = (
{
closed = 1;
nodes = (
(458,-12,o),
(544,28,o),
(544,28,c),
(550,37,l),
(557,109,o),
(577,200,o),
(577,200,c),
(529,196,l),
(504,88,o),
(450,38,o),
(359,38,cs),
(221,38,o),
(130,154,o),
(130,330,cs),
(130,489,o),
(216,590,o),
(350,590,cs),
(448,590,o),
(497,559,o),
(497,497,cs),
(497,475,o),
(494,448,o),
(494,448,c),
(542,452,l),
(548,544,o),
(567,619,o),
(567,619,c),
(563,625,l),
(563,625,o),
(472,649,o),
(389,649,cs),
(187,649,o),
(40,500,o),
(40,297,cs),
(40,108,o),
(157,-12,o),
(339,-12,cs)
);
}
);
width = 626;
}
);
locked = 1;
unicode = 67;
}
{
color = 2;
glyphname = D;
kernLeft = H;
kernRight = O;
layers = (
{
anchors = (
{
name = bottom;
pos = (338,0);
},
{
name = center;
pos = (341,324);
},
{
name = top;
pos = (347,647);
}
);
layerId = m01;
shapes = (
{
closed = 1;
nodes = (
(511,-12,o),
(663,143,o),
(663,342,cs),
(663,520,o),
(529,641,o),
(334,641,cs),
(334,641,o),
(228,637,o),
(182,637,cs),
(144,637,o),
(77,640,o),
(77,640,c),
(70,596,l),
(72,592,l),
(72,592,o),
(94,594,o),
(106,594,cs),
(136,594,o),
(143,583,o),
(143,540,cs),
(142,120,ls),
(142,64,o),
(126,46,o),
(64,34,c),
(58,-12,l),
(58,-12,o),
(123,0,o),
(173,0,cs),
(224,0,o),
(317,-12,o),
(317,-12,c)
);
},
{
closed = 1;
nodes = (
(462,592,o),
(572,494,o),
(572,318,cs),
(572,145,o),
(484,39,o),
(340,39,cs),
(239,39,o),
(214,58,o),
(214,131,cs),
(214,176,o),
(220,339,o),
(229,570,cs),
(230,588,o),
(237,592,o),
(265,592,cs)
);
}
);
width = 703;
}
);
locked = 1;
unicode = 68;
}
{
color = 2;
glyphname = E;
kernLeft = H;
kernRight = E;
layers = (
{
anchors = (
{
name = bottom;
pos = (318,0);
},
{
name = ogonek;
pos = (524,40);
},
{
name = top;
pos = (326,647);
}
);
background = {
shapes = (
{
closed = 1;
nodes = (
(217,296,l),
(234,299,o),
(264,303,o),
(294,303,cs),
(348,303,o),
(434,300,o),
(434,300,c),
(448,359,l),
(444,364,l),
(444,364,o),
(358,353,o),
(322,353,cs),
(292,353,o),
(241,354,o),
(219,354,c),
(227,548,l),
(228,585,o),
(232,587,o),
(297,587,cs),
(438,587,o),
(450,581,o),
(450,516,cs),
(450,502,o),
(448,473,o),
(448,473,c),
(496,477,l),
(502,569,o),
(519,643,o),
(519,643,c),
(516,649,l),
(450,640,o),
(375,637,o),
(216,637,cs),
(156,637,o),
(77,640,o),
(77,640,c),
(70,596,l),
(72,592,l),
(72,592,o),
(94,594,o),
(106,594,cs),
(136,594,o),
(143,583,o),
(143,540,cs),
(142,120,ls),
(142,63,o),
(124,44,o),
(64,36,c),
(58,-10,l),
(58,-10,o),
(121,0,o),
(197,0,cs),
(292,0,o),
(500,-7,o),
(500,-7,c),
(505,-1,l),
(514,84,o),
(532,167,o),
(532,167,c),
(529,172,l),
(485,167,l),
(469,57,o),
(450,45,o),
(292,45,cs),
(220,45,o),
(213,51,o),
(213,105,c)
);
}
);
};
layerId = m01;
shapes = (
{
closed = 1;
nodes = (
(97,-4,o),
(155,0,o),
(197,0,cs),
(252,0,o),
(380,-3,o),
(500,-7,c),
(505,-1,l),
(511,53,o),
(523,125,o),
(532,167,c),
(529,172,l),
(485,167,l),
(469,57,o),
(450,45,o),
(292,45,cs),
(220,45,o),
(213,51,o),
(213,105,c),
(217,315,l),
(227,548,l),
(228,585,o),
(232,587,o),
(297,587,cs),
(438,587,o),
(450,581,o),
(450,516,cs),
(450,506,o),
(449,485,o),
(448,473,c),
(496,477,l),
(499,527,o),
(508,594,o),
(519,643,c),
(516,649,l),
(450,640,o),
(375,637,o),
(216,637,cs),
(172,637,o),
(111,639,o),
(77,640,c),
(70,596,l),
(72,592,l),
(82,593,o),
(98,594,o),
(106,594,cs),
(136,594,o),
(143,583,o),
(143,540,cs),
(142,120,ls),
(142,63,o),
(124,44,o),
(64,36,c),
(58,-10,l)
);
},
{
closed = 1;
nodes = (
(231,299,o),
(269,303,o),
(294,303,cs),
(333,303,o),
(397,301,o),
(434,300,c),
(448,359,l),
(444,364,l),
(399,358,o),
(344,353,o),
(322,353,cs),
(288,353,o),
(226,354,o),
(212,354,c),
(203,294,l)
);
}
);
width = 591;
}
);
locked = 1;
unicode = 69;
}
{
color = 2;
glyphname = I;
kernLeft = H;
kernRight = H;
layers = (
{
anchors = (
{
name = bottom;
pos = (181,0);
},
{
name = ogonek;
pos = (244,40);
},
{
name = top;
pos = (181,637);
},
{
name = topleft;
pos = (20,637);
}
);
layerId = m01;
shapes = (
{
closed = 1;
nodes = (
(95,-5,o),
(143,0,o),
(172,0,cs),
(206,0,o),
(267,-2,o),
(303,-3,c),
(312,43,l),
(310,47,l),
(298,46,o),
(275,44,o),
(257,44,cs),
(222,44,o),
(213,58,o),
(213,112,cs),
(213,195,o),
(220,398,o),
(227,544,cs),
(229,582,o),
(244,594,o),
(299,601,c),
(303,646,l),
(264,641,o),
(216,637,o),
(188,637,cs),
(158,637,o),
(103,639,o),
(69,640,c),
(62,596,l),
(64,592,l),
(77,593,o),
(96,594,o),
(106,594,cs),
(135,594,o),
(143,583,o),
(143,540,cs),
(142,120,ls),
(142,64,o),
(125,46,o),
(62,34,c),
(56,-12,l)
);
}
);
width = 361;
}
);
locked = 1;
unicode = 73;
}
{
color = 2;
glyphname = M;
kernLeft = M;
kernRight = M;
layers = (
{
anchors = (
{
name = bottom;
pos = (402,0);
},
{
name = top;
pos = (418,647);
}
);
background = {
shapes = (
{
closed = 1;
nodes = (
(421,-12,l),
(485,165,o),
(550,343,o),
(614,520,c),
(619,520,l),
(619,520,o),
(653,122,o),
(653,88,cs),
(653,58,o),
(635,43,o),
(594,38,c),
(590,-8,l),
(590,-8,o),
(651,0,o),
(694,0,cs),
(730,0,o),
(789,-3,o),
(789,-3,c),
(798,42,l),
(796,46,l),
(796,46,o),
(780,44,o),
(768,44,cs),
(736,44,o),
(728,61,o),
(719,139,c),
(708,279,o),
(693,518,o),
(693,547,cs),
(693,580,o),
(714,595,o),
(772,602,c),
(777,639,l),
(775,643,l),
(775,643,o),
(697,637,o),
(667,637,cs),
(647,637,o),
(601,640,o),
(601,639,c),
(506,352,o),
(428,145,o),
(428,145,c),
(423,145,l),
(423,145,o),
(344,350,o),
(254,641,c),
(254,641,o),
(215,637,o),
(186,637,cs),
(154,637,o),
(77,642,o),
(77,642,c),
(69,607,l),
(72,602,l),
(133,598,o),
(159,582,o),
(159,547,cs),
(159,517,o),
(123,188,o),
(115,115,cs),
(109,61,o),
(93,43,o),
(51,38,c),
(46,-8,l),
(46,-8,o),
(92,0,o),
(132,0,cs),
(165,0,o),
(229,-4,o),
(229,-4,c),
(238,41,l),
(236,45,l),
(236,45,o),
(205,44,o),
(195,44,cs),
(174,44,o),
(164,54,o),
(164,75,cs),
(164,101,o),
(198,520,o),
(198,520,c),
(203,520,l),
(268,340,o),
(332,161,o),
(397,-19,c)
);
}
);
};
layerId = m01;
shapes = (
{
closed = 1;
nodes = (
(421,-12,l),
(485,165,o),
(550,343,o),
(614,520,c),
(619,520,l),
(619,520,o),
(653,122,o),
(653,88,cs),
(653,58,o),
(635,43,o),
(594,38,c),
(590,-8,l),
(590,-8,o),
(651,0,o),
(694,0,cs),
(730,0,o),
(789,-3,o),
(789,-3,c),
(798,42,l),
(796,46,l),
(796,46,o),
(780,44,o),
(768,44,cs),
(736,44,o),
(728,61,o),
(719,139,c),
(708,279,o),
(693,518,o),
(693,547,cs),
(693,580,o),
(714,595,o),
(772,602,c),
(777,639,l),
(775,643,l),
(775,643,o),
(697,637,o),
(667,637,cs),
(647,637,o),
(601,640,o),
(601,639,c),
(506,352,o),
(428,145,o),
(428,145,c),
(423,145,l),
(423,145,o),
(344,350,o),
(254,641,c),
(254,641,o),
(215,637,o),
(186,637,cs),
(154,637,o),
(77,642,o),
(77,642,c),
(69,607,l),
(72,602,l),
(132,598,o),
(158,582,o),
(158,547,cs),
(158,517,o),
(123,188,o),
(115,115,cs),
(109,61,o),
(93,43,o),
(51,38,c),
(46,-8,l),
(46,-8,o),
(92,0,o),
(132,0,cs),
(165,0,o),
(229,-4,o),
(229,-4,c),
(238,41,l),
(236,45,l),
(236,45,o),
(205,44,o),
(195,44,cs),
(174,44,o),
(164,54,o),
(164,75,cs),
(164,101,o),
(200,520,o),
(200,520,c),
(205,520,l),
(269,340,o),
(333,161,o),
(397,-19,c)
);
}
);
width = 847;
}
);
locked = 1;
unicode = 77;
}
{
color = 2;
glyphname = P;
kernLeft = H;
kernRight = P;
layers = (
{
anchors = (
{
name = bottom;
pos = (200,0);
},
{
name = top;
pos = (317,647);
}
);
layerId = m01;
shapes = (
{
closed = 1;
nodes = (
(65,-5,o),
(158,0,o),
(212,0,cs),
(246,0,o),
(304,-2,o),
(304,-3,c),
(313,43,l),
(311,47,l),
(311,47,o),
(277,44,o),
(257,44,cs),
(218,44,o),
(213,55,o),
(213,146,c),
(215,244,l),
(299,244,ls),
(418,244,o),
(528,349,o),
(528,463,cs),
(528,578,o),
(452,641,o),
(314,641,cs),
(314,641,o),
(215,637,o),
(188,637,cs),
(150,637,o),
(77,640,o),
(77,640,c),
(70,596,l),
(72,592,l),
(72,592,o),
(94,594,o),
(106,594,cs),
(135,594,o),
(143,583,o),
(143,540,cs),
(142,120,ls),
(142,63,o),
(128,48,o),
(70,38,c),
(63,-8,l)
);
},
{
closed = 1;
nodes = (
(217,303,l),
(219,389,o),
(223,489,o),
(229,578,cs),
(230,592,o),
(232,592,o),
(256,592,cs),
(386,592,o),
(444,546,o),
(444,444,cs),
(444,354,o),
(403,301,o),
(323,288,c)
);
}
);
width = 551;
}
);
locked = 1;
unicode = 80;
}
{
color = 2;
glyphname = R;
kernLeft = H;
kernRight = R;
layers = (
{
anchors = (
{
name = bottom;
pos = (306,0);
},
{
name = top;
pos = (296,637);
}
);
layerId = m01;
shapes = (
{
closed = 1;
nodes = (
(597,-5,l),
(603,29,l),
(599,33,l),
(545,33,o),
(514,55,o),
(475,118,cs),
(365,292,l),
(458,334,o),
(512,404,o),
(512,484,cs),
(512,581,o),
(435,641,o),
(311,641,cs),
(311,641,o),
(222,637,o),
(188,637,cs),
(150,637,o),
(77,640,o),
(77,640,c),
(70,596,l),
(72,592,l),
(72,592,o),
(94,594,o),
(106,594,cs),
(135,594,o),
(143,583,o),
(143,540,cs),
(142,120,ls),
(142,62,o),
(128,48,o),
(66,41,c),
(57,-4,l),
(57,-4,o),
(122,0,o),
(172,-1,cs),
(219,-2,o),
(278,-3,o),
(278,-4,c),
(287,38,l),
(285,42,l),
(221,42,o),
(213,52,o),
(213,124,cs),
(216,273,l),
(299,273,l),
(406,79,ls),
(438,21,o),
(479,-16,o),
(512,-16,c)
);
},
{
closed = 1;
nodes = (
(218,329,l),
(219,399,o),
(222,469,o),
(228,575,cs),
(229,593,o),
(232,598,o),
(246,598,cs),
(368,598,o),
(429,554,o),
(429,466,cs),
(429,348,o),
(321,319,o),
(321,319,c)
);
}
);
width = 611;
}
);
locked = 1;
unicode = 82;
}
{
color = 2;
glyphname = U;
kernLeft = U;
kernRight = U;
layers = (
{
anchors = (
{
name = bottom;
pos = (341,0);
},
{
name = ogonek;
pos = (613,10);
},
{
name = top;
pos = (341,637);
},
{
name = topright;
pos = (661,637);
}
);
layerId = m01;
shapes = (
{
closed = 1;
nodes = (
(484,-12,o),
(575,68,o),
(575,208,cs),
(575,544,ls),
(575,585,o),
(586,593,o),
(644,601,c),
(648,646,l),
(648,646,o),
(594,637,o),
(551,637,cs),
(513,637,o),
(438,640,o),
(438,640,c),
(431,596,l),
(433,592,l),
(433,592,o),
(464,594,o),
(476,594,cs),
(505,594,o),
(510,586,o),
(513,540,cs),
(513,540,o),
(519,284,o),
(519,214,cs),
(519,104,o),
(460,45,o),
(351,45,cs),
(243,45,o),
(184,118,o),
(184,250,c),
(192,544,ls),
(194,582,o),
(206,594,o),
(256,601,c),
(260,646,l),
(260,646,o),
(198,637,o),
(155,637,cs),
(117,637,o),
(42,640,o),
(42,640,c),
(35,596,l),
(37,592,l),
(37,592,o),
(59,594,o),
(71,594,cs),
(101,594,o),
(108,583,o),
(108,540,cs),
(108,209,ls),
(108,68,o),
(187,-12,o),
(327,-12,cs)
);
}
);
width = 681;
}
);
locked = 1;
unicode = 85;
}
{
color = 2;
glyphname = V;
kernLeft = V;
kernRight = V;
layers = (
{
anchors = (
{
name = bottom;
pos = (312,0);
},
{
name = top;
pos = (346,647);
}
);
layerId = m01;
shapes = (
{
closed = 1;
nodes = (
(322,5,l),
(537,545,l),
(551,583,o),
(562,591,o),
(603,593,c),
(611,640,l),
(611,640,o),
(549,637,o),
(501,637,cs),
(435,637,o),
(358,644,o),
(358,644,c),
(352,601,l),
(354,597,l),
(406,597,ls),
(455,597,o),
(475,585,o),
(475,557,cs),
(475,527,o),
(361,231,o),
(309,97,c),
(300,97,l),
(300,97,o),
(174,528,o),
(174,560,cs),
(174,589,o),
(192,597,o),
(263,602,c),
(267,641,l),
(264,648,l),
(264,648,o),
(167,637,o),
(114,637,cs),
(80,637,o),
(-2,640,o),
(-2,640,c),
(-9,597,l),
(-7,593,l),
(45,592,o),
(73,574,o),
(85,536,cs),
(169,275,o),
(258,-17,o),
(258,-17,c)
);
}
);
width = 610;
}
);
locked = 1;
unicode = 86;
}
{
color = 2;
glyphname = Z;
kernLeft = Z;
kernRight = Z;
layers = (
{
anchors = (
{
name = bottom;
pos = (313,0);
},
{
name = top;
pos = (331,647);
}
);
layerId = m01;
shapes = (
{
closed = 1;
nodes = (
(118,3,l),
(480,-3,l),
(495,13,l),
(500,109,o),
(520,218,o),
(520,218,c),
(473,213,l),
(451,99,o),
(410,48,o),
(341,47,c),
(138,40,l),
(181,108,o),
(335,351,o),
(524,602,c),
(513,631,l),
(255,638,l),
(80,649,l),
(70,640,l),
(68,548,o),
(52,445,o),
(52,445,c),
(99,449,l),
(110,550,o),
(142,583,o),
(234,587,c),
(407,593,l),
(34,29,l),
(48,-3,l)
);
}
);
width = 568;
}
);
locked = 1;
unicode = 90;
}
{
color = 2;
glyphname = bracketleft;
layers = (
{
layerId = m01;
shapes = (
{
closed = 1;
nodes = (
(284,-107,l),
(280,-100,l),
(164,-76,l),
(164,579,l),
(278,603,l),
(284,634,l),
(280,640,l),
(96,629,l),
(96,629,o),
(107,350,o),
(107,250,cs),
(107,150,o),
(96,-126,o),
(96,-126,c),
(278,-137,l)
);
}
);
width = 309;
}
);
locked = 1;
unicode = 91;
}
{
color = 2;
glyphname = bracketright;
layers = (
{
background = {
shapes = (
{
closed = 1;
nodes = (
(25,610,l),
(29,603,l),
(68,595,o),
(106,587,o),
(145,579,c),
(145,361,o),
(145,142,o),
(145,-76,c),
(31,-100,l),
(25,-131,l),
(29,-137,l),
(213,-126,l),
(213,-126,o),
(202,153,o),
(202,253,cs),
(202,353,o),
(213,629,o),
(213,629,c),
(31,640,l)
);
}
);
};
layerId = m01;
shapes = (
{
closed = 1;
nodes = (
(213,-126,l),
(213,-126,o),
(202,153,o),
(202,253,cs),
(202,353,o),
(213,629,o),
(213,629,c),
(31,640,l),
(25,610,l),
(29,603,l),
(145,579,l),
(145,-76,l),
(31,-100,l),
(25,-131,l),
(29,-137,l)
);
}
);
width = 309;
}
);
locked = 1;
unicode = 93;
}
{
color = 2;
glyphname = underscore;
kernLeft = period;
kernRight = period;
layers = (
{
layerId = m01;
shapes = (
{
closed = 1;
nodes = (
(40,-144,o),
(296,-142,o),
(456,-142,c),
(464,-91,l),
(458,-81,l),
(458,-82,o),
(424,-83,o),
(381,-84,cs),
(337,-86,o),
(284,-87,o),
(244,-87,cs),
(155,-87,o),
(5,-86,o),
(5,-86,c),
(-6,-135,l),
(0,-144,l)
);
}
);
width = 458;
}
);
locked = 1;
unicode = 95;
}
{
color = 2;
glyphname = e;
kernLeft = o;
kernRight = e;
layers = (
{
anchors = (
{
name = bottom;
pos = (261,0);
},
{
name = ogonek;
pos = (392,41);
},
{
name = top;
pos = (255,452);
}
);
background = {
shapes = (
{
closed = 1;
nodes = (
(387,258,l),
(400,270,l),
(400,270,o),
(406,294,o),
(406,319,cs),
(406,414,o),
(355,464,o),
(257,464,cs),
(138,464,o),
(36,346,o),
(36,209,cs),
(36,77,o),
(120,-12,o),
(246,-12,cs),
(306,-12,o),
(399,56,o),
(399,56,c),
(388,85,l),
(382,87,l),
(382,87,o),
(321,56,o),
(259,56,cs),
(170,56,o),
(111,130,o),
(111,242,cs),
(111,258,l)
);
},
{
closed = 1;
nodes = (
(115,295,l),
(127,368,o),
(176,413,o),
(238,413,cs),
(291,413,o),
(321,384,o),
(321,331,cs),
(321,311,o),
(316,306,o),
(296,304,cs)
);
}
);
};
layerId = m01;
shapes = (
{
closed = 1;
nodes = (
(290,-12,o),
(359,27,o),
(399,56,c),
(388,85,l),
(382,87,l),
(216,11,o),
(109,79,o),
(111,258,c),
(387,258,l),
(400,270,l),
(403,280,o),
(406,301,o),
(406,319,cs),
(406,414,o),
(355,464,o),
(257,464,cs),
(138,464,o),
(36,346,o),
(36,209,cs),
(36,77,o),
(120,-12,o),
(246,-12,cs)
);
},
{
closed = 1;
nodes = (
(127,368,o),
(176,413,o),
(238,413,cs),
(291,413,o),
(321,384,o),
(321,331,cs),
(321,311,o),
(316,306,o),
(296,304,cs),
(115,295,l)
);
}
);
width = 448;
}
);
locked = 1;
unicode = 101;
}
{
color = 2;
glyphname = g;
kernLeft = g;
kernRight = g;
layers = (
{
anchors = (
{
name = bottom;
pos = (244,-215);
},
{
name = top;
pos = (263,452);
}
);
background = {
shapes = (
{
closed = 1;
nodes = (
(338,130,o),
(425,209,o),
(425,307,cs),
(425,346,o),
(411,380,o),
(385,409,c),
(389,414,l),
(431,417,o),
(475,423,o),
(475,423,c),
(486,479,l),
(483,483,l),
(483,483,o),
(396,459,o),
(345,453,c),
(319,453,o),
(284,464,o),
(247,464,cs),
(148,464,o),
(61,383,o),
(61,283,cs),
(61,228,o),
(88,178,o),
(135,153,c),
(135,149,l),
(104,131,o),
(76,109,o),
(51,85,c),
(51,37,o),
(86,0,o),
(160,-13,c),
(160,-19,l),
(160,-19,o),
(94,-65,o),
(61,-109,c),
(61,-193,o),
(117,-242,o),
(211,-242,cs),
(338,-242,o),
(460,-153,o),
(460,-65,cs),
(460,82,o),
(129,12,o),
(129,92,cs),
(129,107,o),
(140,119,o),
(171,137,c),
(194,132,o),
(211,130,o),
(228,130,cs)
);
},
{
closed = 1;
nodes = (
(180,-193,o),
(141,-160,o),
(141,-118,cs),
(141,-64,o),
(203,-21,o),
(203,-21,c),
(364,-41,o),
(396,-56,o),
(396,-93,cs),
(396,-146,o),
(328,-193,o),
(247,-193,cs)
);
},
{
closed = 1;
nodes = (
(182,174,o),
(136,227,o),
(136,302,cs),
(136,370,o),
(174,413,o),
(235,413,cs),
(303,413,o),
(350,360,o),
(350,283,cs),
(350,215,o),
(312,174,o),
(251,174,cs)
);
}
);
};
layerId = m01;
shapes = (
{
closed = 1;
nodes = (
(338,-242,o),
(460,-154,o),
(460,-65,cs),
(460,82,o),
(129,12,o),
(129,92,cs),
(129,109,o),
(145,124,o),
(187,146,c),
(135,163,l),
(135,149,l),
(103,130,o),
(75,108,o),
(51,85,c),
(53,33,o),
(91,-1,o),
(160,-13,c),
(160,-19,l),
(117,-51,o),
(79,-86,o),
(61,-109,c),
(61,-192,o),
(119,-242,o),
(213,-242,cs)
);
},
{
closed = 1;
nodes = (
(183,-193,o),
(141,-163,o),
(141,-118,cs),
(141,-85,o),
(163,-49,o),
(203,-21,c),
(363,-42,o),
(396,-55,o),
(396,-94,cs),
(396,-147,o),
(325,-193,o),
(247,-193,cs)
);
},
{
closed = 1;
nodes = (
(183,174,o),
(136,226,o),
(136,302,cs),
(136,370,o),
(174,413,o),
(235,413,cs),
(303,413,o),
(350,360,o),
(350,283,cs),
(350,215,o),
(312,174,o),
(251,174,cs)
);
},
{
closed = 1;
nodes = (
(338,130,o),
(425,209,o),
(425,307,cs),
(425,345,o),
(412,379,o),
(385,409,c),
(389,414,l),
(410,416,o),
(446,419,o),
(475,423,c),
(486,479,l),
(483,483,l),
(423,467,o),
(371,456,o),
(345,453,c),
(319,453,o),
(284,464,o),
(247,464,cs),
(146,464,o),
(61,381,o),
(61,282,cs),
(61,193,o),
(130,130,o),
(228,130,cs)
);
}
);
width = 501;
}
);
locked = 1;
unicode = 103;
}
{
color = 2;
glyphname = n;
kernLeft = n;
kernRight = n;
layers = (
{
anchors = (
{
name = bottom;
pos = (293,0);
},
{
name = top;
pos = (310,452);
}
);
layerId = m01;
shapes = (
{
closed = 1;
nodes = (
(323,-12,l),
(323,-12,o),
(384,0,o),
(426,0,cs),
(463,0,o),
(515,-3,o),
(515,-3,c),
(523,40,l),
(521,44,l),
(521,44,o),
(498,42,o),
(486,42,cs),
(461,42,o),
(451,59,o),
(451,98,cs),
(451,156,o),
(465,300,o),
(465,335,cs),
(465,414,o),
(412,464,o),
(328,464,cs),
(296,464,o),
(205,404,o),
(181,388,c),
(179,391,l),
(181,425,o),
(190,457,o),
(190,457,c),
(184,465,l),
(184,465,o),
(113,447,o),
(44,436,c),
(41,403,l),
(44,399,l),
(55,399,ls),
(91,399,o),
(104,383,o),
(104,338,cs),
(104,94,ls),
(104,57,o),
(89,41,o),
(51,35,c),
(46,-6,l),
(46,-6,o),
(103,0,o),
(145,0,cs),
(182,0,o),
(236,-3,o),
(236,-3,c),
(245,40,l),
(243,44,l),
(243,44,o),
(220,42,o),
(208,42,cs),
(182,42,o),
(172,57,o),
(172,98,cs),
(172,137,o),
(178,275,o),
(181,344,c),
(201,359,o),
(255,396,o),
(304,396,cs),
(357,396,o),
(387,358,o),
(387,292,cs),
(383,94,ls),
(383,59,o),
(367,40,o),
(327,29,c)
);
}
);
width = 548;
}
);
locked = 1;
unicode = 110;
}
{
color = 2;
glyphname = o;
kernLeft = o;
kernRight = o;
layers = (
{
anchors = (
{
name = bottom;
pos = (249,0);
},
{
name = center;
pos = (249,226);
},
{
name = ogonek;
pos = (318,40);
},
{
name = top;
pos = (249,452);
},
{
name = topright;
pos = (478,452);
}
);
background = {
shapes = (
{
closed = 1;
nodes = (
(367,-12,o),
(462,94,o),
(462,239,cs),
(462,373,o),
(380,464,o),
(258,464,c),
(200,454,o),
(157,433,o),
(122,398,c),
(104,407,l),
(119,347,l),
(102,542,o),
(144,584,o),
(392,617,c),
(402,626,l),
(444,726,l),
(442,730,l),
(414,742,l),
(396,710,o),
(387,705,o),
(344,695,cs),
(131,645,o),
(37,521,o),
(37,293,cs),
(37,95,o),
(107,-12,o),
(237,-12,cs)
);
},
{
closed = 1;
nodes = (
(174,37,o),
(116,119,o),
(116,237,cs),
(116,344,o),
(163,410,o),
(238,410,cs),
(321,410,o),
(380,327,o),
(380,208,cs),
(380,102,o),
(334,37,o),
(258,37,cs)
);
}
);
};
layerId = m01;
shapes = (
{
closed = 1;
nodes = (
(361,-12,o),
(462,99,o),
(462,242,cs),
(462,373,o),
(382,464,o),
(268,464,cs),
(137,464,o),
(36,353,o),
(36,210,cs),
(36,79,o),
(115,-12,o),
(230,-12,cs)
);
},
{
closed = 1;
nodes = (
(174,37,o),
(116,119,o),
(116,239,cs),
(116,344,o),
(163,410,o),
(238,410,cs),
(322,410,o),
(380,326,o),
(380,206,cs),
(380,102,o),
(333,37,o),
(258,37,cs)
);
}
);
width = 498;
}
);
locked = 1;
unicode = 111;
}
{
color = 2;
glyphname = p;
kernLeft = p;
kernRight = o;
layers = (
{
anchors = (
{
name = bottom;
pos = (380,0);
},
{
name = top;
pos = (291,452);
}
);
layerId = m01;
shapes = (
{
closed = 1;
nodes = (
(45,-237,o),
(94,-230,o),
(151,-230,cs),
(183,-230,o),
(214,-230,o),
(246,-230,c),
(254,-192,l),
(252,-189,l),
(241,-189,o),
(229,-190,o),
(218,-190,cs),
(180,-190,o),
(171,-172,o),
(171,-111,cs),
(171,-77,o),
(170,-42,o),
(170,-8,cs),
(170,-8,o),
(219,-12,o),
(243,-12,cs),
(379,-12,o),
(492,106,o),
(492,250,cs),
(492,376,o),
(414,461,o),
(299,461,cs),
(284,461,o),
(242,437,o),
(183,396,c),
(179,403,l),
(182,429,o),
(189,457,o),
(189,457,c),
(183,465,l),
(183,465,o),
(112,447,o),
(43,436,c),
(40,403,l),
(43,399,l),
(54,399,ls),
(90,399,o),
(103,383,o),
(103,338,cs),
(103,40,ls),
(103,-3,o),
(101,-94,o),
(101,-126,cs),
(101,-181,o),
(93,-193,o),
(50,-198,c),
(45,-237,l)
);
},
{
closed = 1;
nodes = (
(238,43,o),
(197,51,o),
(171,62,c),
(171,148,o),
(174,262,o),
(179,344,c),
(214,373,o),
(256,393,o),
(283,393,cs),
(357,393,o),
(415,314,o),
(415,213,cs),
(415,108,o),
(360,43,o),
(271,43,cs)
);
}
);
width = 528;
}
);
locked = 1;
unicode = 112;
}
{
color = 2;
glyphname = q;
kernLeft = o;
kernRight = q;
layers = (
{
anchors = (
{
name = bottom;
pos = (149,0);
},
{
name = top;
pos = (272,452);
}
);
layerId = m01;
shapes = (
{
closed = 1;
nodes = (
(279,-234,o),
(340,-230,o),
(386,-230,cs),
(478,-230,l),
(485,-191,l),
(483,-189,l),
(483,-189,o),
(471,-190,o),
(457,-190,cs),
(426,-190,o),
(421,-178,o),
(421,-106,cs),
(421,222,o),
(428,439,o),
(440,469,c),
(432,478,l),
(432,478,o),
(407,466,o),
(377,455,c),
(347,461,o),
(313,464,o),
(285,464,cs),
(148,464,o),
(36,346,o),
(36,202,cs),
(36,75,o),
(115,-12,o),
(229,-12,cs),
(243,-12,o),
(289,15,o),
(354,60,c),
(350,-135,ls),
(348,-184,o),
(339,-193,o),
(284,-196,c),
(279,-234,l)
);
},
{
closed = 1;
nodes = (
(171,53,o),
(113,134,o),
(113,236,cs),
(113,341,o),
(168,406,o),
(257,406,cs),
(317,406,o),
(354,383,o),
(354,383,c),
(354,109,l),
(354,109,o),
(293,53,o),
(245,53,cs)
);
}
);
width = 516;
}
);
locked = 1;
unicode = 113;
}
{
color = 2;
glyphname = r;
kernLeft = n;
kernRight = r;
layers = (
{
anchors = (
{
name = bottom;
pos = (160,0);
},
{
name = top;
pos = (222,452);
}
);
layerId = m01;
shapes = (
{
closed = 1;
nodes = (
(54,-4,ls),
(54,-4,o),
(100,0,o),
(159,0,cs),
(198,0,o),
(261,-2,o),
(261,-2,cs),
(270,42,l),
(269,46,ls),
(269,46,o),
(239,44,o),
(225,44,cs),
(187,44,o),
(177,57,o),
(177,102,cs),
(177,124,o),
(185,306,o),
(185,306,c),
(213,348,o),
(249,374,o),
(278,374,cs),
(300,374,o),
(305,361,o),
(305,306,cs),
(344,309,ls),
(346,370,o),
(360,452,o),
(360,452,cs),
(357,456,ls),
(357,456,o),
(348,460,o),
(326,460,cs),
(286,460,o),
(226,416,o),
(185,353,cs),
(181,356,ls),
(180,403,o),
(190,459,o),
(190,459,cs),
(183,465,ls),
(183,465,o),
(109,446,o),
(48,435,cs),
(45,404,l),
(50,397,l),
(50,397,o),
(60,400,o),
(71,400,cs),
(98,400,o),
(109,383,o),
(109,339,cs),
(109,119,ls),
(109,56,o),
(99,40,o),
(59,36,cs)
);
}
);
width = 383;
}
);
locked = 1;
unicode = 114;
}
{
color = 2;
glyphname = u;
kernLeft = u;
kernRight = u;
layers = (
{
anchors = (
{
name = bottom;
pos = (273,0);
},
{
name = ogonek;
pos = (480,41);
},
{
name = top;
pos = (271,452);
}
);
layerId = m01;
shapes = (
{
closed = 1;
nodes = (
(86,104,l),
(86,29,o),
(133,-12,o),
(219,-12,cs),
(237,-12,o),
(294,22,o),
(358,71,c),
(363,69,l),
(368,15,o),
(398,-12,o),
(452,-12,cs),
(486,-12,o),
(539,68,o),
(539,68,c),
(525,84,l),
(525,84,o),
(497,59,o),
(465,59,cs),
(439,59,o),
(424,76,o),
(424,105,cs),
(424,265,o),
(434,422,o),
(446,452,c),
(440,464,l),
(440,464,o),
(357,445,o),
(286,435,c),
(282,399,l),
(282,399,o),
(300,400,o),
(306,400,cs),
(343,400,o),
(356,386,o),
(356,346,cs),
(356,114,l),
(323,90,o),
(281,57,o),
(235,57,cs),
(181,57,o),
(155,89,o),
(155,155,cs),
(155,272,o),
(168,417,o),
(181,452,c),
(175,464,l),
(175,464,o),
(94,444,o),
(32,434,c),
(28,397,l),
(28,397,o),
(42,401,o),
(53,401,cs),
(78,401,o),
(90,382,o),
(90,347,cs)
);
}
);
width = 541;
}
);
locked = 1;
unicode = 117;
}
{
color = 2;
glyphname = x;
kernLeft = x;
kernRight = x;
layers = (
{
anchors = (
{
name = bottom;
pos = (182,0);
},
{
name = top;
pos = (199,452);
}
);
background = {
shapes = (
{
closed = 1;
nodes = (
(379,0,o),
(242,-5,o),
(242,-5,cs),
(237,0,l),
(246,70,ls),
(268,71,o),
(277,75,o),
(277,85,cs),
(277,90,o),
(276,94,o),
(269,104,cs),
(225,162,ls),
(207,138,o),
(183,109,o),
(183,93,cs),
(183,78,o),
(192,71,o),
(212,71,cs),
(216,63,l),
(208,-4,ls),
(208,-4,o),
(117,0,o),
(93,0,cs),
(54,0,o),
(-4,-4,o),
(-4,-4,cs),
(-8,6,l),
(1,73,ls),
(17,80,o),
(38,101,o),
(85,160,cs),
(159,250,l),
(101,327,ls),
(70,369,o),
(42,380,o),
(4,388,cs),
(1,393,l),
(8,473,ls),
(8,473,o),
(55,472,o),
(142,472,cs),
(209,472,o),
(289,477,o),
(289,477,cs),
(294,469,l),
(287,395,ls),
(267,395,o),
(257,389,o),
(257,376,cs),
(257,359,o),
(264,349,o),
(277,333,cs),
(303,300,l),
(334,345,ls),
(343,360,o),
(351,370,o),
(351,381,cs),
(351,392,o),
(344,396,o),
(323,396,cs),
(321,400,l),
(327,472,l),
(435,472,ls),
(480,472,o),
(534,475,o),
(534,475,cs),
(537,469,l),
(532,391,ls),
(493,367,o),
(466,345,o),
(444,317,cs),
(372,213,l),
(432,138,ls),
(465,97,o),
(489,78,o),
(526,75,cs),
(529,72,l),
(518,-2,ls),
(518,-2,o),
(443,0,o),
(415,0,cs)
);
}
);
};
layerId = m01;
shapes = (
{
closed = 1;
nodes = (
(256,-6,o),
(328,0,o),
(368,0,cs),
(400,0,o),
(459,-2,o),
(459,-2,c),
(465,32,l),
(463,36,l),
(423,40,o),
(396,62,o),
(362,111,cs),
(270,242,l),
(356,343,ls),
(389,381,o),
(419,411,o),
(440,418,c),
(446,450,l),
(443,455,l),
(443,455,o),
(399,452,o),
(372,452,cs),
(299,452,l),
(294,419,l),
(296,415,l),
(330,415,o),
(339,412,o),
(339,402,cs),
(339,388,o),
(326,373,o),
(308,351,cs),
(247,274,l),
(192,354,ls),
(179,373,o),
(168,388,o),
(168,401,cs),
(168,415,o),
(181,420,o),
(213,420,c),
(219,451,l),
(217,456,l),
(217,456,o),
(172,452,o),
(115,452,cs),
(83,452,o),
(14,454,o),
(14,454,c),
(8,420,l),
(10,416,l),
(58,408,o),
(74,392,o),
(118,329,cs),
(194,221,l),
(108,121,ls),
(65,71,o),
(51,52,o),
(15,33,c),
(9,2,l),
(12,-3,l),
(12,-3,o),
(45,0,o),
(72,0,cs),
(95,0,o),
(155,-4,o),
(155,-4,c),
(161,29,l),
(159,33,l),
(124,35,o),
(115,38,o),
(115,51,cs),
(115,69,o),
(179,145,o),
(216,190,c),
(289,88,ls),
(301,71,o),
(306,59,o),
(306,51,cs),
(306,37,o),
(293,31,o),
(260,30,c),
(254,-1,l),
(256,-6,l)
);
}
);
width = 475;
}
);
locked = 1;
unicode = 120;
}
{
color = 2;
glyphname = braceleft;
layers = (
{
layerId = m01;
shapes = (
{
closed = 1;
nodes = (
(256,-133,o),
(280,-125,o),
(280,-125,c),
(288,-97,l),
(285,-91,l),
(285,-91,o),
(255,-97,o),
(235,-97,cs),
(190,-97,o),
(173,-65,o),
(173,-29,cs),
(173,17,o),
(200,101,o),
(200,154,cs),
(200,215,o),
(165,245,o),
(127,259,c),
(127,265,l),
(161,276,o),
(200,304,o),
(200,365,cs),
(200,415,o),
(173,499,o),
(173,544,cs),
(173,580,o),
(190,613,o),
(234,613,cs),
(251,613,o),
(280,608,o),
(280,608,c),
(288,638,l),
(285,643,l),
(285,643,o),
(254,649,o),
(228,649,cs),
(146,649,o),
(102,595,o),
(102,533,cs),
(102,474,o),
(143,397,o),
(143,351,cs),
(143,308,o),
(98,281,o),
(50,268,c),
(46,247,l),
(100,235,o),
(143,209,o),
(143,159,cs),
(143,118,o),
(102,42,o),
(102,-17,cs),
(102,-79,o),
(147,-133,o),
(226,-133,cs)
);
}
);
width = 309;
}
);
locked = 1;
unicode = 123;
}
{
color = 2;
glyphname = asciitilde;
layers = (
{
layerId = m01;
shapes = (
{
closed = 1;
nodes = (
(71,202,l),
(71,202,o),
(110,257,o),
(134,257,cs),
(180,257,o),
(320,214,o),
(374,214,c),
(390,218,l),
(466,307,l),
(466,312,l),
(444,333,l),
(438,333,l),
(438,333,o),
(399,278,o),
(375,278,cs),
(329,278,o),
(189,321,o),
(135,321,c),
(119,317,l),
(43,228,l),
(43,223,l),
(65,202,l)
);
}
);
width = 506;
}
);
locked = 1;
unicode = 126;
}
{
color = 2;
glyphname = exclamdown;
layers = (
{
layerId = m01;
shapes = (
{
closed = 1;
nodes = (
(180,-224,l),
(187,-214,l),
(179,242,l),
(168,250,l),
(140,243,l),
(88,-231,l),
(97,-242,l)
);
},
{
closed = 1;
nodes = (
(200,345,o),
(224,373,o),
(224,407,cs),
(224,436,o),
(206,464,o),
(168,464,cs),
(129,464,o),
(105,436,o),
(105,402,cs),
(105,371,o),
(125,345,o),
(162,345,cs)
);
}
);
width = 285;
}
);
locked = 1;
unicode = 161;
}
{
color = 2;
glyphname = cent;
layers = (
{
anchors = (
{
name = bottom;
pos = (248,0);
},
{
name = bottomright;
pos = (307,105);
},
{
name = top;
pos = (260,472);
}
);
background = {
shapes = (
{
closed = 1;
nodes = (
(292,649,l),
(286,658,l),
(260,654,l),
(185,-147,l),
(190,-154,l),
(216,-151,l)
);
}
);
};
layerId = m01;
shapes = (
{
closed = 1;
nodes = (
(255,654,l),
(180,-147,l),
(185,-154,l),
(211,-151,l),
(287,649,l),
(281,658,l)
);
},
{
closed = 1;
nodes = (
(294,-12,o),
(382,55,o),
(382,55,c),
(371,86,l),
(365,88,l),
(365,88,o),
(308,55,o),
(252,55,cs),
(168,55,o),
(116,127,o),
(116,243,cs),
(116,350,o),
(161,410,o),
(243,410,cs),
(292,410,o),
(325,377,o),
(325,328,cs),
(325,297,l),
(366,300,l),
(369,378,o),
(387,438,o),
(387,438,c),
(384,445,l),
(384,445,o),
(331,464,o),
(267,464,cs),
(136,464,o),
(36,353,o),
(36,209,cs),
(36,75,o),
(118,-12,o),
(245,-12,cs)
);
}
);
width = 424;
}
);
locked = 1;
unicode = 162;
}
{
color = 2;
glyphname = yen;
layers = (
{
layerId = m01;
shapes = (
{
closed = 1;
nodes = (
(158,-10,o),
(218,0,o),
(258,0,cs),
(296,0,o),
(368,-2,o),
(368,-2,c),
(377,36,l),
(375,44,l),
(375,44,o),
(362,44,o),
(348,43,cs),
(341,43,o),
(335,42,o),
(329,42,cs),
(303,42,o),
(297,53,o),
(297,90,cs),
(297,109,o),
(298,129,o),
(298,148,c),
(485,148,l),
(488,178,l),
(482,187,l),
(421,186,o),
(360,184,o),
(299,183,c),
(300,196,o),
(304,212,o),
(309,222,c),
(344,279,l),
(485,279,l),
(488,309,l),
(482,318,l),
(444,317,o),
(405,317,o),
(367,316,c),
(409,384,l),
(444,437,o),
(452,453,o),
(506,461,c),
(512,498,l),
(507,505,l),
(507,505,o),
(460,502,o),
(427,502,cs),
(391,502,o),
(329,508,o),
(329,508,c),
(324,471,ls),
(324,469,o),
(325,466,o),
(325,464,c),
(357,461,o),
(378,455,o),
(378,444,cs),
(378,431,o),
(372,419,o),
(365,407,cs),
(272,248,l),
(192,405,l),
(192,405,o),
(193,405,o),
(193,405,c),
(185,422,o),
(181,432,o),
(181,441,cs),
(181,454,o),
(188,459,o),
(244,465,c),
(247,499,l),
(242,509,l),
(242,510,o),
(171,502,o),
(122,502,cs),
(83,502,o),
(25,505,o),
(25,505,c),
(23,493,o),
(20,481,o),
(18,469,c),
(19,466,o),
(19,463,o),
(20,460,c),
(104,456,o),
(110,407,o),
(161,314,c),
(49,314,l),
(44,285,l),
(49,278,l),
(93,278,o),
(137,279,o),
(181,279,c),
(205,236,ls),
(216,216,o),
(221,200,o),
(226,183,c),
(49,183,l),
(44,154,l),
(49,147,l),
(109,147,o),
(169,148,o),
(229,148,c),
(229,63,o),
(233,45,o),
(163,33,c),
(158,-10,l)
);
}
);
width = 532;
}
);
locked = 1;
unicode = 165;
}
{
color = 2;
glyphname = copyright;
layers = (
{
layerId = m01;
shapes = (
{
closed = 1;
nodes = (
(515,-12,o),
(651,125,o),
(651,293,cs),
(651,461,o),
(515,598,o),
(346,598,cs),
(177,598,o),
(42,461,o),
(42,293,cs),
(42,125,o),
(177,-12,o),
(346,-12,cs)
);
},
{
closed = 1;
nodes = (
(402,131,o),
(447,150,o),
(447,150,c),
(451,157,l),
(453,195,o),
(464,244,o),
(464,244,c),
(432,242,l),
(422,190,o),
(399,167,o),
(353,167,cs),
(286,167,o),
(255,222,o),
(255,304,cs),
(255,383,o),
(292,423,o),
(351,423,cs),
(399,423,o),
(415,404,o),
(415,379,cs),
(415,368,o),
(414,355,o),
(414,355,c),
(447,357,l),
(450,408,o),
(460,447,o),
(460,447,c),
(458,451,l),
(458,451,o),
(408,463,o),
(362,463,cs),
(257,463,o),
(189,387,o),
(189,287,cs),
(189,202,o),
(237,131,o),
(339,131,cs)
);
},
{
closed = 1;
nodes = (
(201,28,o),
(84,147,o),
(84,293,cs),
(84,439,o),
(201,558,o),
(346,558,cs),
(491,558,o),
(609,439,o),
(609,293,cs),
(609,147,o),
(491,28,o),
(346,28,cs)
);
}
);
width = 693;
}
);
locked = 1;
unicode = 169;
}
{
color = 2;
glyphname = ordfeminine;
kernLeft = ordfeminine;
kernRight = ordfeminine;
layers = (
{
anchors = (
{
name = bottom;
pos = (229,0);
},
{
name = ogonek;
pos = (420,41);
},
{
name = top;
pos = (235,474);
}
);
layerId = m01;
shapes = (
{
closed = 1;
nodes = (
(282,353,o),
(310,401,o),
(310,401,c),
(301,413,l),
(301,413,o),
(284,400,o),
(266,400,cs),
(251,400,o),
(242,410,o),
(242,427,cs),
(242,459,o),
(254,541,o),
(254,563,cs),
(254,612,o),
(222,647,o),
(155,647,cs),
(126,647,o),
(44,600,o),
(44,600,c),
(53,567,l),
(58,565,l),
(58,565,o),
(94,595,o),
(134,595,cs),
(169,595,o),
(189,572,o),
(189,534,c),
(188,514,l),
(66,484,ls),
(44,478,o),
(30,457,o),
(30,432,cs),
(30,383,o),
(67,346,o),
(115,346,cs),
(130,346,o),
(158,367,o),
(186,394,c),
(190,393,l),
(193,360,o),
(214,343,o),
(251,343,c)
);
},
{
closed = 1;
nodes = (
(111,399,o),
(94,416,o),
(94,439,cs),
(94,451,o),
(100,459,o),
(111,462,cs),
(187,484,l),
(185,422,l),
(169,409,o),
(148,399,o),
(134,399,cs)
);
}
);
width = 321;
}
);
locked = 1;
unicode = 170;
}
{
color = 2;
glyphname = logicalnot;
layers = (
{
layerId = m01;
shapes = (
{
closed = 1;
nodes = (
(451,41,l),
(451,41,o),
(450,107,o),
(450,177,cs),
(451,224,o),
(458,287,o),
(458,287,c),
(452,297,l),
(452,297,o),
(348,291,o),
(268,291,cs),
(179,291,o),
(29,292,o),
(29,292,c),
(18,243,l),
(24,234,l),
(24,234,o),
(163,235,o),
(253,235,cs),
(394,236,l),
(394,148,o),
(393,36,o),
(393,36,c),
(402,30,l)
);
}
);
width = 506;
}
);
locked = 1;
unicode = 172;
}
{
color = 2;
glyphname = registered;
layers = (
{
layerId = m01;
shapes = (
{
closed = 1;
nodes = (
(347,303,o),
(438,394,o),
(438,507,cs),
(438,620,o),
(347,711,o),
(234,711,cs),
(121,711,o),
(30,620,o),
(30,507,cs),
(30,394,o),
(121,303,o),
(234,303,cs)
);
},
{
closed = 1;
nodes = (
(141,338,o),
(65,414,o),
(65,507,cs),
(65,600,o),
(141,676,o),
(234,676,cs),
(327,676,o),
(403,600,o),
(403,507,cs),
(403,414,o),
(327,338,o),
(234,338,cs)
);
},
{
closed = 1;
nodes = (
(323,407,o),
(336,407,o),
(336,424,c),
(333,428,l),
(319,428,o),
(306,439,o),
(292,460,cs),
(263,503,l),
(287,514,o),
(311,531,o),
(311,566,cs),
(311,601,o),
(280,621,o),
(230,621,cs),
(230,621,o),
(212,620,o),
(199,619,cs),
(188,619,ls),
(175,619,o),
(145,620,o),
(145,620,c),
(142,603,l),
(144,599,l),
(148,599,o),
(151,599,o),
(155,599,cs),
(164,599,o),
(167,596,o),
(167,581,cs),
(167,470,ls),
(167,441,o),
(166,434,o),
(142,432,c),
(140,411,l),
(140,411,o),
(167,413,o),
(185,413,cs),
(197,413,ls),
(211,413,o),
(229,412,o),
(229,412,c),
(231,429,l),
(230,430,o),
(230,432,o),
(229,433,c),
(205,433,o),
(205,437,o),
(205,461,cs),
(205,470,o),
(205,480,o),
(206,494,c),
(231,494,l),
(260,439,ls),
(272,416,o),
(284,407,o),
(297,407,cs)
);
},
{
closed = 1;
nodes = (
(226,518,o),
(214,520,o),
(207,520,c),
(207,543,o),
(208,566,o),
(209,589,cs),
(209,595,o),
(210,597,o),
(215,597,cs),
(247,597,o),
(267,587,o),
(267,559,cs),
(267,531,o),
(246,521,o),
(236,517,c)
);
}
);
width = 468;
}
);
locked = 1;
unicode = 174;
}
{
color = 2;
glyphname = plusminus;
layers = (
{
layerId = m01;
shapes = (
{
closed = 1;
nodes = (
(279,64,l),
(279,64,o),
(278,163,o),
(278,248,c),
(345,248,o),
(413,249,o),
(480,249,c),
(488,300,l),
(482,310,l),
(482,310,o),
(358,304,o),
(278,304,c),
(278,384,o),
(284,497,o),
(284,497,c),
(274,503,l),
(223,495,l),
(223,431,o),
(222,368,o),
(222,304,c),
(135,304,o),
(29,305,o),
(29,305,c),
(18,256,l),
(24,247,l),
(24,247,o),
(134,248,o),
(222,248,c),
(222,162,o),
(221,59,o),
(221,59,c),
(230,53,l)
);
},
{
closed = 1;
nodes = (
(64,-75,o),
(320,-73,o),
(480,-73,c),
(488,-22,l),
(482,-12,l),
(482,-13,o),
(448,-14,o),
(405,-15,cs),
(361,-17,o),
(308,-18,o),
(268,-18,cs),
(179,-18,o),
(29,-17,o),
(29,-17,c),
(18,-66,l),
(24,-75,l)
);
}
);
width = 506;
}
);
locked = 1;
unicode = 177;
}
{
color = 2;
glyphname = twosuperior;
layers = (
{
layerId = m01;
shapes = (
{
closed = 1;
nodes = (
(30,344,l),
(72,351,l),
(130,351,o),
(280,346,o),
(280,346,c),
(289,352,l),
(294,401,o),
(308,463,o),
(308,463,c),
(270,459,l),
(259,413,o),
(247,402,o),
(204,402,cs),
(122,402,l),
(119,407,l),
(226,531,o),
(263,592,o),
(263,643,cs),
(263,694,o),
(220,728,o),
(155,728,cs),
(108,728,o),
(54,693,o),
(28,648,c),
(38,607,l),
(45,607,l),
(69,647,o),
(101,669,o),
(137,669,cs),
(170,669,o),
(188,654,o),
(188,624,cs),
(189,583,o),
(156,523,o),
(93,446,cs),
(24,369,l)
);
}
);
width = 329;
}
);
locked = 1;
production = uni00B2;
unicode = 178;
}
{
color = 2;
glyphname = threesuperior;
layers = (
{
layerId = m01;
shapes = (
{
closed = 1;
nodes = (
(163,343,o),
(254,411,o),
(254,472,cs),
(254,515,o),
(225,544,o),
(167,560,c),
(167,565,l),
(210,585,o),
(237,619,o),
(237,653,cs),
(237,697,o),
(200,728,o),
(148,728,cs),
(102,728,o),
(44,692,o),
(35,685,c),
(45,648,l),
(52,648,l),
(73,665,o),
(102,676,o),
(124,676,cs),
(151,676,o),
(168,660,o),
(168,635,cs),
(168,610,o),
(146,584,o),
(115,569,c),
(73,560,l),
(77,528,l),
(82,523,l),
(154,523,o),
(186,505,o),
(186,463,cs),
(186,427,o),
(145,399,o),
(90,399,cs),
(72,399,o),
(54,402,o),
(37,407,c),
(31,400,l),
(32,359,o),
(45,343,o),
(78,343,cs)
);
}
);
width = 293;
}
);
locked = 1;
production = uni00B3;
unicode = 179;
}
{
color = 2;
glyphname = paragraph;
layers = (
{
layerId = m01;
shapes = (
{
closed = 1;
nodes = (
(382,-105,o),
(408,-9,o),
(408,154,cs),
(408,231,o),
(410,490,o),
(419,549,cs),
(422,585,o),
(438,597,o),
(499,594,c),
(501,598,l),
(507,640,l),
(507,640,o),
(420,637,o),
(382,637,cs),
(356,637,o),
(303,641,o),
(253,641,cs),
(123,641,o),
(42,553,o),
(42,445,cs),
(42,294,o),
(157,223,o),
(285,212,c),
(285,227,l),
(238,291,o),
(216,346,o),
(216,445,cs),
(216,531,o),
(247,592,o),
(314,592,cs),
(340,592,o),
(340,591,o),
(341,578,cs),
(341,134,ls),
(341,-6,o),
(324,-58,o),
(240,-58,cs),
(183,-58,o),
(144,-12,o),
(144,78,c),
(129,78,l),
(109,55,o),
(91,16,o),
(91,-11,cs),
(91,-76,o),
(156,-105,o),
(225,-105,cs)
);
}
);
width = 561;
}
);
locked = 1;
unicode = 182;
}
{
color = 9;
glyphname = periodcentered;
layers = (
{
layerId = m01;
shapes = (
{
closed = 1;
nodes = (
(292,280,o),
(320,313,o),
(320,353,cs),
(320,389,o),
(296,420,o),
(253,420,cs),
(208,420,o),
(180,387,o),
(180,347,cs),
(180,313,o),
(201,280,o),
(246,280,cs)
);
}
);
width = 500;
}
);
unicode = 183;
}
{
color = 2;
glyphname = onesuperior;
layers = (
{
layerId = m01;
shapes = (
{
closed = 1;
nodes = (
(35,344,o),
(89,351,o),
(126,351,cs),
(158,351,o),
(214,349,o),
(214,349,c),
(221,385,l),
(219,388,l),
(219,388,o),
(202,386,o),
(187,386,cs),
(164,386,o),
(157,397,o),
(157,429,cs),
(157,481,o),
(160,606,o),
(163,662,c),
(166,689,o),
(172,700,o),
(187,713,c),
(182,728,l),
(181,728,o),
(167,725,o),
(104,716,cs),
(73,711,o),
(38,707,o),
(30,706,c),
(27,674,l),
(30,671,l),
(30,671,o),
(50,674,o),
(63,674,cs),
(85,674,o),
(96,670,o),
(96,639,cs),
(96,430,ls),
(96,393,o),
(78,382,o),
(39,379,c),
(35,344,l)
);
}
);
width = 249;
}
);
locked = 1;
production = uni00B9;
unicode = 185;
}
{
color = 2;
glyphname = ordmasculine;
kernLeft = ordmasculine;
kernRight = ordmasculine;
layers = (
{
anchors = (
{
name = bottom;
pos = (259,0);
},
{
name = top;
pos = (263,472);
}
);
layerId = m01;
shapes = (
{
closed = 1;
nodes = (
(247,343,o),
(310,411,o),
(310,504,cs),
(310,591,o),
(259,647,o),
(180,647,cs),
(92,647,o),
(28,579,o),
(28,486,cs),
(28,401,o),
(80,343,o),
(159,343,cs)
);
},
{
closed = 1;
nodes = (
(127,384,o),
(98,429,o),
(98,507,cs),
(98,567,o),
(122,601,o),
(163,601,cs),
(210,601,o),
(239,556,o),
(239,478,cs),
(239,418,o),
(215,384,o),
(174,384,cs)
);
}
);
width = 338;
}
);
locked = 1;
unicode = 186;
}
{
color = 2;
glyphname = guillemetright;
layers = (
{
background = {
shapes = (
{
closed = 1;
nodes = (
(358,400,l),
(282,318,o),
(186,227,o),
(186,227,c),
(186,212,l),
(186,212,o),
(282,124,o),
(358,46,c),
(380,61,l),
(381,71,l),
(345,123,o),
(310,174,o),
(274,226,c),
(310,276,o),
(345,325,o),
(381,375,c),
(380,385,l)
);
},
{
closed = 1;
nodes = (
(192,400,l),
(116,318,o),
(20,227,o),
(20,227,c),
(20,212,l),
(20,212,o),
(116,124,o),
(192,46,c),
(214,61,l),
(215,71,l),
(179,123,o),
(144,174,o),
(108,226,c),
(144,276,o),
(179,325,o),
(215,375,c),
(214,385,l)
);
}
);
};
layerId = m01;
shapes = (
{
alignment = -1;
pos = (166,0);
ref = guilsinglright;
},
{
alignment = -1;
ref = guilsinglright;
}
);
width = 427;
}
);
locked = 1;
metricLeft = guilsinglright;
metricRight = guilsinglright;
production = guillemotright;
unicode = 187;
}
{
color = 2;
glyphname = questiondown;
layers = (
{
layerId = m01;
shapes = (
{
closed = 1;
nodes = (
(269,-238,l),
(302,-185,l),
(300,-174,l),
(179,-167,o),
(97,-128,o),
(97,-47,cs),
(97,-10,o),
(123,18,o),
(154,39,cs),
(273,115,l),
(276,129,l),
(252,249,l),
(243,253,l),
(182,236,l),
(179,228,l),
(200,133,l),
(197,124,l),
(122,70,o),
(31,35,o),
(31,-77,cs),
(31,-168,o),
(132,-238,o),
(255,-242,c)
);
},
{
closed = 1;
nodes = (
(249,345,o),
(273,373,o),
(273,407,cs),
(273,436,o),
(255,464,o),
(217,464,cs),
(178,464,o),
(154,436,o),
(154,402,cs),
(154,371,o),
(174,345,o),
(211,345,cs)
);
}
);
width = 360;
}
);
locked = 1;
unicode = 191;
}
{
color = 2;
glyphname = Eth;
kernLeft = H;
kernRight = O;
layers = (
{
layerId = m01;
shapes = (
{
closed = 1;
nodes = (
(518,-12,o),
(670,143,o),
(670,342,cs),
(670,516,o),
(533,641,o),
(341,641,cs),
(341,641,o),
(235,637,o),
(189,637,cs),
(151,637,o),
(84,640,o),
(84,640,c),
(77,596,l),
(79,592,l),
(79,592,o),
(101,594,o),
(113,594,cs),
(143,594,o),
(150,583,o),
(150,540,cs),
(149,343,l),
(16,343,l),
(9,311,l),
(16,304,l),
(149,304,l),
(149,157,ls),
(149,61,o),
(141,47,o),
(71,34,c),
(65,-12,l),
(65,-12,o),
(130,0,o),
(180,0,cs),
(231,0,o),
(324,-12,o),
(324,-12,c)
);
},
{
closed = 1;
nodes = (
(236,570,ls),
(237,588,o),
(244,592,o),
(272,592,cs),
(469,592,o),
(579,494,o),
(579,318,cs),
(579,145,o),
(491,39,o),
(347,39,cs),
(247,39,o),
(221,58,o),
(221,131,cs),
(226,304,l),
(396,304,l),
(402,336,l),
(397,343,l),
(227,343,l)
);
}
);
width = 713;
}
);
locked = 1;
unicode = 208;
}
{
color = 2;
glyphname = multiply;
layers = (
{
layerId = m01;
shapes = (
{
closed = 1;
nodes = (
(113,80,o),
(190,159,o),
(253,222,c),
(392,84,l),
(434,114,l),
(437,126,l),
(437,126,o),
(350,204,o),
(292,261,c),
(434,404,l),
(403,446,l),
(392,449,l),
(392,449,o),
(309,359,o),
(253,301,c),
(191,363,o),
(113,442,o),
(113,442,c),
(70,416,l),
(68,405,l),
(68,405,o),
(150,323,o),
(213,261,c),
(151,199,o),
(75,125,o),
(75,125,c),
(102,83,l),
(113,80,l)
);
}
);
width = 506;
}
);
locked = 1;
unicode = 215;
}
{
color = 2;
glyphname = Oslash;
kernLeft = O;
kernRight = O;
layers = (
{
anchors = (
{
name = top;
pos = (328,647);
}
);
layerId = m01;
shapes = (
{
closed = 1;
nodes = (
(489,572,l),
(456,586,l),
(186,70,l),
(218,56,l)
);
},
{
closed = 1;
nodes = (
(218,56,l),
(186,70,l),
(107,-82,l),
(109,-92,l),
(136,-98,l)
);
},
{
closed = 1;
nodes = (
(552,689,l),
(549,701,l),
(520,708,l),
(456,586,l),
(489,572,l)
);
},
{
ref = O;
}
);
width = 692;
}
);
locked = 1;
unicode = 216;
}
{
color = 2;
glyphname = ae;
kernLeft = a;
kernRight = e;
layers = (
{
anchors = (
{
name = top;
pos = (350,472);
}
);
layerId = m01;
shapes = (
{
closed = 1;
nodes = (
(541,-12,o),
(633,56,o),
(633,56,c),
(622,85,l),
(616,87,l),
(616,87,o),
(553,52,o),
(493,52,cs),
(411,52,o),
(351,122,o),
(344,225,c),
(614,289,l),
(623,303,l),
(623,303,o),
(625,313,o),
(625,322,cs),
(625,411,o),
(573,464,o),
(488,464,cs),
(431,464,o),
(375,435,o),
(336,384,c),
(319,437,o),
(277,464,o),
(212,464,cs),
(170,464,o),
(49,394,o),
(49,394,c),
(61,351,l),
(66,348,l),
(66,348,o),
(124,401,o),
(189,401,cs),
(245,401,o),
(275,364,o),
(275,297,cs),
(274,247,l),
(83,195,ls),
(51,186,o),
(30,155,o),
(30,116,cs),
(30,44,o),
(84,-8,o),
(158,-8,cs),
(193,1,o),
(245,40,o),
(297,95,c),
(329,27,o),
(396,-12,o),
(480,-12,cs)
);
},
{
closed = 1;
nodes = (
(134,57,o),
(103,90,o),
(103,127,cs),
(103,146,o),
(113,163,o),
(135,169,cs),
(273,210,l),
(273,178,o),
(277,150,o),
(285,125,c),
(238,81,o),
(198,57,o),
(170,57,cs)
);
},
{
closed = 1;
nodes = (
(343,269,ls),
(343,352,o),
(392,408,o),
(465,408,cs),
(507,408,o),
(538,374,o),
(538,330,cs),
(538,321,o),
(531,316,o),
(518,312,cs),
(343,262,l)
);
}
);
width = 653;
}
);
locked = 1;
unicode = 230;
}
{
color = 2;
glyphname = eth;
kernLeft = o;
layers = (
{
layerId = m01;
shapes = (
{
closed = 1;
nodes = (
(368,-12,o),
(465,99,o),
(465,242,cs),
(465,376,o),
(407,500,o),
(301,599,c),
(422,658,l),
(418,687,l),
(410,692,l),
(272,625,l),
(217,670,o),
(152,709,o),
(78,741,c),
(68,737,l),
(53,704,l),
(118,674,o),
(173,639,o),
(219,599,c),
(101,541,l),
(105,511,l),
(114,508,l),
(247,572,l),
(288,530,o),
(319,482,o),
(342,429,c),
(340,427,l),
(340,427,o),
(297,453,o),
(266,453,cs),
(144,453,o),
(43,342,o),
(43,206,cs),
(43,77,o),
(125,-12,o),
(243,-12,cs)
);
},
{
closed = 1;
nodes = (
(184,37,o),
(123,118,o),
(123,235,cs),
(123,338,o),
(171,399,o),
(250,399,cs),
(313,399,o),
(349,373,o),
(365,358,c),
(377,311,o),
(383,261,o),
(383,206,cs),
(383,102,o),
(340,37,o),
(271,37,cs)
);
}
);
width = 508;
}
);
locked = 1;
unicode = 240;
}
{
color = 2;
glyphname = aogonek;
kernLeft = a;
kernRight = n;
layers = (
{
background = {
shapes = (
{
closed = 1;
nodes = (
(283,248,l),
(94,196,ls),
(62,187,o),
(41,155,o),
(41,116,cs),
(41,44,o),
(95,-8,o),
(169,-8,cs),
(189,-8,o),
(231,22,o),
(279,70,c),
(283,69,l),
(288,15,o),
(318,-12,o),
(372,-12,c),
(422,5,o),
(459,68,o),
(459,68,c),
(445,84,l),
(445,84,o),
(417,59,o),
(385,59,cs),
(359,59,o),
(344,76,o),
(344,105,cs),
(344,164,o),
(362,299,o),
(362,335,cs),
(362,416,o),
(310,464,o),
(223,464,cs),
(180,464,o),
(60,394,o),
(60,394,c),
(72,351,l),
(77,348,l),
(77,348,o),
(132,398,o),
(197,398,cs),
(253,398,o),
(285,359,o),
(285,292,c)
);
},
{
closed = 1;
nodes = (
(277,108,l),
(249,80,o),
(211,60,o),
(186,60,cs),
(146,60,o),
(117,89,o),
(117,127,cs),
(117,148,o),
(127,163,o),
(146,169,cs),
(281,210,l)
);
},
{
closed = 1;
nodes = (
(460,-159,l),
(460,-159,o),
(422,-182,o),
(383,-182,cs),
(348,-182,o),
(325,-159,o),
(325,-128,cs),
(325,-79,o),
(359,-42,o),
(441,42,c),
(399,42,l),
(327,-30,o),
(262,-89,o),
(262,-147,cs),
(262,-207,o),
(308,-241,o),
(373,-241,c),
(424,-224,o),
(473,-178,o),
(473,-178,c)
);
}
);
};
layerId = m01;
shapes = (
{
closed = 1;
nodes = (
(424,-224,o),
(473,-178,o),
(473,-178,c),
(460,-159,l),
(460,-159,o),
(422,-182,o),
(383,-182,cs),
(348,-182,o),
(325,-160,o),
(325,-128,cs),
(325,-89,o),
(355,-46,o),
(461,65,c),
(445,84,l),
(445,84,o),
(417,59,o),
(385,59,cs),
(359,59,o),
(344,76,o),
(344,105,cs),
(344,144,o),
(362,310,o),
(362,335,cs),
(362,430,o),
(294,464,o),
(223,464,cs),
(180,464,o),
(60,394,o),
(60,394,c),
(72,351,l),
(77,348,l),
(77,348,o),
(132,398,o),
(197,398,cs),
(253,398,o),
(285,359,o),
(285,292,c),
(283,248,l),
(94,196,ls),
(62,187,o),
(41,155,o),
(41,116,cs),
(41,44,o),
(95,-8,o),
(169,-8,cs),
(189,-8,o),
(231,22,o),
(279,70,c),
(283,69,l),
(286,25,o),
(308,-3,o),
(347,-9,c),
(285,-73,o),
(262,-111,o),
(262,-147,cs),
(262,-205,o),
(305,-241,o),
(373,-241,c)
);
},
{
closed = 1;
nodes = (
(146,60,o),
(117,89,o),
(117,127,cs),
(117,148,o),
(127,162,o),
(146,169,cs),
(281,210,l),
(277,108,l),
(249,80,o),
(211,60,o),
(186,60,cs)
);
}
);
width = 466;
}
);
locked = 1;
unicode = 261;
}
{
color = 2;
glyphname = dcaron;
kernLeft = o;
layers = (
{
layerId = m01;
shapes = (
{
closed = 1;
nodes = (
(536,489,l),
(557,591,o),
(571,701,o),
(571,701,c),
(564,709,l),
(494,695,l),
(494,695,o),
(504,587,o),
(500,477,c),
(511,475,l)
);
},
{
alignment = -1;
ref = d;
}
);
width = 571;
}
);
locked = 1;
unicode = 271;
}
{
color = 2;
glyphname = dcroat;
kernLeft = o;
layers = (
{
background = {
shapes = (
{
closed = 1;
nodes = (
(526,621,l),
(526,621,o),
(447,615,o),
(397,615,cs),
(338,615,o),
(243,616,o),
(243,616,c),
(233,571,l),
(239,562,l),
(239,562,o),
(324,563,o),
(383,563,cs),
(525,564,l),
(532,611,l)
);
}
);
};
layerId = m01;
shapes = (
{
closed = 1;
nodes = (
(383,536,l),
(522,537,l),
(526,574,l),
(513,587,l),
(405,582,l),
(238,583,l),
(231,544,l),
(240,535,l)
);
},
{
alignment = -1;
ref = d;
}
);
width = 537;
}
);
locked = 1;
unicode = 273;
}
{
color = 2;
glyphname = imacron;
kernLeft = n;
kernRight = i;
layers = (
{
layerId = m01;
shapes = (
{
closed = 1;
nodes = (
(44,-12,o),
(105,0,o),
(147,0,cs),
(184,0,o),
(236,-3,o),
(236,-3,c),
(244,40,l),
(242,44,l),
(242,44,o),
(219,42,o),
(207,42,cs),
(182,42,o),
(172,59,o),
(172,98,cs),
(172,255,o),
(183,424,o),
(195,452,c),
(190,464,l),
(190,464,o),
(113,445,o),
(46,435,c),
(42,398,l),
(42,398,o),
(56,402,o),
(67,402,cs),
(92,402,o),
(104,385,o),
(104,348,cs),
(104,94,ls),
(104,59,o),
(88,40,o),
(48,29,c),
(44,-12,l)
);
},
{
closed = 1;
nodes = (
(12.4,574,o),
(88.9,575,o),
(142,575,cs),
(269.8,576,l),
(276.1,623,l),
(270.7,633,l),
(270.7,633,o),
(199.6,627,o),
(154.6,627,cs),
(101.5,627,o),
(16,628,o),
(16,628,c),
(7,583,l),
(12.4,574,l)
);
}
);
width = 282;
}
);
locked = 1;
unicode = 299;
}
{
color = 2;
glyphname = idotless;
kernLeft = idotless;
kernRight = idotless;
layers = (
{
anchors = (
{
name = bottom;
pos = (159,0);
},
{
name = ogonek;
pos = (238,49);
},
{
name = top;
pos = (137,452);
}
);
layerId = m01;
shapes = (
{
closed = 1;
nodes = (
(44,-12,o),
(105,0,o),
(147,0,cs),
(184,0,o),
(236,-3,o),
(236,-3,c),
(244,40,l),
(242,44,l),
(242,44,o),
(219,42,o),
(207,42,cs),
(182,42,o),
(172,59,o),
(172,98,cs),
(172,255,o),
(183,424,o),
(195,452,c),
(190,464,l),
(190,464,o),
(113,445,o),
(46,435,c),
(42,398,l),
(42,398,o),
(56,402,o),
(67,402,cs),
(92,402,o),
(104,385,o),
(104,348,cs),
(104,94,ls),
(104,59,o),
(88,40,o),
(48,29,c),
(44,-12,l)
);
}
);
width = 282;
}
);
locked = 1;
production = dotlessi;
unicode = 305;
}
{
color = 2;
glyphname = kgreenlandic;
kernLeft = n;
kernRight = x;
layers = (
{
background = {
shapes = (
{
closed = 1;
nodes = (
(321,-12,l),
(321,-12,o),
(382,0,o),
(424,0,cs),
(461,0,o),
(513,-3,o),
(513,-3,c),
(521,40,l),
(519,44,l),
(519,44,o),
(496,42,o),
(484,42,cs),
(459,42,o),
(449,59,o),
(449,98,cs),
(449,156,o),
(463,300,o),
(463,335,cs),
(463,414,o),
(410,464,o),
(326,464,cs),
(294,464,o),
(203,404,o),
(179,388,c),
(177,391,l),
(179,425,o),
(188,457,o),
(188,457,c),
(182,465,l),
(182,465,o),
(111,447,o),
(42,436,c),
(39,403,l),
(42,399,l),
(53,399,ls),
(89,399,o),
(102,383,o),
(102,338,cs),
(102,94,ls),
(102,57,o),
(87,41,o),
(49,35,c),
(44,-6,l),
(44,-6,o),
(101,0,o),
(143,0,cs),
(180,0,o),
(234,-3,o),
(234,-3,c),
(243,40,l),
(241,44,l),
(241,44,o),
(218,42,o),
(206,42,cs),
(180,42,o),
(170,57,o),
(170,98,cs),
(170,137,o),
(176,275,o),
(179,344,c),
(199,359,o),
(253,396,o),
(302,396,cs),
(355,396,o),
(385,358,o),
(385,292,c),
(381,94,l),
(381,59,o),
(365,40,o),
(325,29,c)
);
}
);
};
layerId = m01;
shapes = (
{
closed = 1;
nodes = (
(313,71,ls),
(343,28,o),
(362,7,o),
(383,-4,cs),
(393,-9,o),
(405,-14,o),
(418,-14,cs),
(433,-14,o),
(492,2,o),
(492,2,c),
(498,31,l),
(495,36,l),
(454,36,o),
(420,59,o),
(374,118,cs),
(269,253,l),
(335,317,o),
(410,401,o),
(482,422,c),
(490,453,l),
(487,458,l),
(487,458,o),
(430,452,o),
(392,452,cs),
(356,452,o),
(294,454,o),
(294,454,c),
(285,425,l),
(288,420,l),
(327,420,o),
(343,414,o),
(343,399,cs),
(343,389,o),
(337,381,o),
(319,364,cs),
(197,252,l),
(195,238,l)
);
},
{
closed = 1;
nodes = (
(44,-6,l),
(44,-6,o),
(101,0,o),
(143,0,cs),
(180,0,o),
(234,-3,o),
(234,-3,c),
(243,40,l),
(241,44,l),
(241,44,o),
(218,42,o),
(206,42,cs),
(180,42,o),
(170,57,o),
(170,98,cs),
(170,310,o),
(178,429,o),
(182,451,c),
(176,464,l),
(176,464,o),
(102,453,o),
(43,447,c),
(39,412,l),
(45,407,l),
(92,407,o),
(102,392,o),
(102,358,cs),
(102,135,ls),
(102,68,o),
(103,43,o),
(49,35,c)
);
}
);
width = 512;
}
);
locked = 1;
unicode = 312;
}
{
color = 2;
glyphname = Lslash;
kernLeft = H;
kernRight = L;
layers = (
{
layerId = m01;
shapes = (
{
closed = 1;
nodes = (
(190,315,l),
(190,309,l),
(411,418,l),
(406,449,l),
(398,454,l),
(190,351,l),
(190,357,l),
(61,293,l),
(66,261,l),
(75,258,l)
);
},
{
alignment = -1;
ref = L;
}
);
width = 551;
}
);
locked = 1;
unicode = 321;
}
{
color = 2;
glyphname = lslash;
kernLeft = h;
kernRight = l;
layers = (
{
layerId = m01;
shapes = (
{
closed = 1;
nodes = (
(134,365,l),
(134,361,l),
(255,428,l),
(249,459,l),
(241,463,l),
(134,404,l),
(134,408,l),
(16,342,l),
(22,310,l),
(31,308,l)
);
},
{
alignment = -1;
pos = (13,0);
ref = l;
}
);
width = 270;
}
);
locked = 1;
unicode = 322;
}
{
color = 2;
glyphname = Eng;
kernLeft = H;
layers = (
{
background = {
shapes = (
{
closed = 1;
nodes = (
(122,637,o),
(62,642,o),
(62,642,c),
(54,605,l),
(57,600,l),
(127,590,o),
(144,577,o),
(144,538,cs),
(132,124,ls),
(129,60,o),
(115,42,o),
(69,38,c),
(64,-8,l),
(64,-8,o),
(111,0,o),
(151,0,cs),
(198,0,o),
(263,-4,o),
(263,-4,c),
(272,42,l),
(269,46,l),
(269,46,o),
(229,44,o),
(219,44,cs),
(196,44,o),
(188,54,o),
(188,84,cs),
(193,511,l),
(198,511,l),
(198,511,o),
(356,289,o),
(539,8,c),
(525,-47,o),
(492,-84,o),
(427,-113,c),
(424,-121,l),
(441,-154,l),
(554,-112,o),
(600,-43,o),
(604,86,cs),
(613,536,ls),
(614,575,o),
(633,593,o),
(681,599,c),
(686,645,l),
(686,645,o),
(629,637,o),
(587,637,cs),
(554,637,o),
(492,641,o),
(492,641,c),
(483,596,l),
(485,592,l),
(485,592,o),
(505,593,o),
(523,593,cs),
(545,593,o),
(556,579,o),
(556,550,cs),
(556,145,l),
(551,145,ls),
(551,145,o),
(356,419,o),
(215,641,c),
(215,641,o),
(157,637,o),
(143,637,cs)
);
}
);
};
layerId = m01;
shapes = (
{
closed = 1;
nodes = (
(554,-112,o),
(600,-43,o),
(604,86,cs),
(613,536,ls),
(614,575,o),
(633,593,o),
(681,599,c),
(686,645,l),
(686,645,o),
(629,637,o),
(587,637,cs),
(554,637,o),
(492,641,o),
(492,641,c),
(483,596,l),
(485,592,l),
(485,592,o),
(505,593,o),
(523,593,cs),
(545,593,o),
(556,579,o),
(556,550,cs),
(556,145,l),
(551,145,ls),
(551,145,o),
(356,419,o),
(215,641,c),
(215,641,o),
(157,637,o),
(143,637,cs),
(122,637,o),
(62,642,o),
(62,642,c),
(54,605,l),
(57,600,l),
(127,590,o),
(144,577,o),
(144,538,cs),
(132,124,ls),
(129,60,o),
(115,42,o),
(69,38,c),
(64,-8,l),
(64,-8,o),
(111,0,o),
(151,0,cs),
(198,0,o),
(263,-4,o),
(263,-4,c),
(272,42,l),
(269,46,l),
(269,46,o),
(229,44,o),
(219,44,cs),
(196,44,o),
(188,54,o),
(188,84,cs),
(193,511,l),
(198,511,l),
(198,511,o),
(356,289,o),
(539,8,c),
(525,-47,o),
(492,-84,o),
(427,-113,c),
(424,-121,l),
(441,-154,l)
);
}
);
width = 719;
}
);
locked = 1;
unicode = 330;
}
{
color = 2;
glyphname = eng;
kernLeft = n;
kernRight = j;
layers = (
{
anchors = (
{
name = bottom;
pos = (291,0);
},
{
name = top;
pos = (308,472);
}
);
layerId = m01;
shapes = (
{
closed = 1;
nodes = (
(405,-102,o),
(444,-38,o),
(452,96,cs),
(463,335,l),
(463,414,o),
(410,464,o),
(326,464,cs),
(294,464,o),
(203,404,o),
(179,388,c),
(177,391,l),
(179,425,o),
(188,457,o),
(188,457,c),
(182,465,l),
(182,465,o),
(111,447,o),
(42,436,c),
(39,403,l),
(42,399,l),
(53,399,ls),
(89,399,o),
(102,383,o),
(102,338,cs),
(102,94,ls),
(102,57,o),
(87,41,o),
(49,35,c),
(44,-6,l),
(44,-6,o),
(101,0,o),
(143,0,cs),
(180,0,o),
(234,-3,o),
(234,-3,c),
(243,40,l),
(241,44,l),
(241,44,o),
(218,42,o),
(206,42,cs),
(180,42,o),
(170,57,o),
(170,98,cs),
(170,137,o),
(176,275,o),
(179,344,c),
(199,359,o),
(253,396,o),
(302,396,cs),
(355,396,o),
(385,358,o),
(385,292,cs),
(384,94,ls),
(382,-15,o),
(361,-58,o),
(278,-103,c),
(275,-111,l),
(292,-144,l)
);
}
);
width = 533;
}
);
locked = 1;
unicode = 331;
}
{
color = 2;
glyphname = oe;
kernLeft = o;
kernRight = e;
layers = (
{
anchors = (
{
name = top;
pos = (405,472);
}
);
layerId = m01;
shapes = (
{
closed = 1;
nodes = (
(293,-12,o),
(354,19,o),
(396,74,c),
(439,7,o),
(507,-12,o),
(570,-12,cs),
(630,-12,o),
(723,56,o),
(723,56,c),
(712,85,l),
(706,87,l),
(706,87,o),
(645,56,o),
(583,56,cs),
(494,56,o),
(435,130,o),
(435,242,cs),
(435,258,l),
(707,258,l),
(720,270,l),
(720,270,o),
(731,294,o),
(731,330,cs),
(731,415,o),
(676,464,o),
(581,464,cs),
(531,464,o),
(464,439,o),
(416,377,c),
(383,433,o),
(329,464,o),
(263,464,cs),
(135,464,o),
(36,353,o),
(36,210,cs),
(36,79,o),
(113,-12,o),
(225,-12,cs)
);
},
{
closed = 1;
nodes = (
(172,37,o),
(116,119,o),
(116,239,cs),
(116,344,o),
(161,410,o),
(233,410,cs),
(314,410,o),
(370,326,o),
(370,206,cs),
(370,102,o),
(325,37,o),
(253,37,cs)
);
},
{
closed = 1;
nodes = (
(451,368,o),
(500,413,o),
(562,413,cs),
(615,413,o),
(645,384,o),
(645,331,cs),
(645,311,o),
(640,305,o),
(620,304,cs),
(439,295,l)
);
}
);
width = 771;
}
);
locked = 1;
unicode = 339;
}
{
color = 2;
glyphname = tcaron;
kernLeft = t;
kernRight = t;
layers = (
{
background = {
shapes = (
{
closed = 1;
nodes = (
(82,109,ls),
(82,21,o),
(115,-12,o),
(206,-12,cs),
(230,-12,o),
(307,48,o),
(307,48,c),
(297,74,l),
(297,74,o),
(262,56,o),
(229,56,cs),
(172,56,o),
(151,81,o),
(151,149,cs),
(151,252,o),
(154,336,o),
(158,399,c),
(283,396,l),
(292,449,l),
(289,452,l),
(162,449,l),
(166,498,o),
(170,524,o),
(170,524,c),
(150,532,l),
(150,532,o),
(91,473,o),
(26,441,c),
(21,411,l),
(25,405,l),
(69,403,o),
(82,391,o),
(82,355,cs)
);
}
);
};
layerId = m01;
shapes = (
{
closed = 1;
nodes = (
(269,513,l),
(290,615,o),
(304,725,o),
(304,725,c),
(297,733,l),
(227,719,l),
(227,719,o),
(237,611,o),
(233,501,c),
(244,499,l)
);
},
{
alignment = -1;
ref = t;
}
);
width = 340;
}
);
locked = 1;
unicode = 357;
}
{
color = 2;
glyphname = tbar;
kernLeft = t;
kernRight = t;
layers = (
{
layerId = m01;
shapes = (
{
closed = 1;
nodes = (
(30,238,o),
(93,239,o),
(143,239,cs),
(282,240,l),
(286,277,l),
(273,290,l),
(273,290,o),
(208,285,o),
(165,285,cs),
(110,285,o),
(28,286,o),
(28,286,c),
(21,247,l),
(30,238,l)
);
},
{
alignment = -1;
ref = t;
}
);
width = 338;
}
);
locked = 1;
unicode = 359;
}
{
color = 2;
glyphname = Uogonek;
kernLeft = U;
kernRight = U;
layers = (
{
background = {
shapes = (
{
closed = 1;
nodes = (
(192,544,ls),
(194,582,o),
(206,594,o),
(256,601,c),
(260,646,l),
(260,646,o),
(198,637,o),
(155,637,cs),
(117,637,o),
(42,640,o),
(42,640,c),
(35,596,l),
(37,592,l),
(37,592,o),
(59,594,o),
(71,594,cs),
(101,594,o),
(108,583,o),
(108,540,cs),
(108,209,ls),
(108,68,o),
(187,-12,o),
(327,-12,cs),
(484,-12,o),
(575,68,o),
(575,208,cs),
(575,544,ls),
(575,585,o),
(586,593,o),
(644,601,c),
(648,646,l),
(648,646,o),
(594,637,o),
(551,637,cs),
(513,637,o),
(438,640,o),
(438,640,c),
(431,596,l),
(433,592,l),
(433,592,o),
(464,594,o),
(476,594,cs),
(505,594,o),
(510,586,o),
(513,540,cs),
(513,540,o),
(519,284,o),
(519,214,cs),
(519,104,o),
(460,45,o),
(351,45,cs),
(243,45,o),
(184,118,o),
(184,250,c)
);
},
{
closed = 1;
nodes = (
(525,-159,l),
(525,-159,o),
(487,-182,o),
(448,-182,cs),
(413,-182,o),
(390,-159,o),
(390,-128,cs),
(390,-79,o),
(424,-42,o),
(506,42,c),
(464,42,l),
(392,-30,o),
(327,-89,o),
(327,-147,cs),
(327,-207,o),
(373,-241,o),
(438,-241,c),
(489,-224,o),
(538,-178,o),
(538,-178,c)
);
}
);
};
layerId = m01;
shapes = (
{
closed = 1;
nodes = (
(489,-224,o),
(538,-178,o),
(538,-178,c),
(525,-159,l),
(525,-159,o),
(487,-182,o),
(448,-182,cs),
(414,-182,o),
(390,-160,o),
(390,-128,cs),
(390,-85,o),
(412,-53,o),
(509,42,cs),
(553,86,o),
(575,141,o),
(575,208,cs),
(575,544,ls),
(575,584,o),
(585,592,o),
(644,601,c),
(648,646,l),
(648,646,o),
(594,637,o),
(551,637,cs),
(513,637,o),
(438,640,o),
(438,640,c),
(431,596,l),
(433,592,l),
(433,592,o),
(464,594,o),
(476,594,cs),
(505,594,o),
(510,587,o),
(513,540,c),
(519,214,l),
(519,104,o),
(460,45,o),
(351,45,cs),
(243,45,o),
(184,118,o),
(184,250,c),
(192,544,ls),
(194,582,o),
(206,594,o),
(256,601,c),
(260,646,l),
(260,646,o),
(198,637,o),
(155,637,cs),
(117,637,o),
(42,640,o),
(42,640,c),
(35,596,l),
(37,592,l),
(37,592,o),
(59,594,o),
(71,594,cs),
(101,594,o),
(108,583,o),
(108,540,cs),
(108,209,ls),
(108,68,o),
(187,-12,o),
(327,-12,cs),
(361,-12,o),
(393,-8,o),
(421,0,c),
(352,-70,o),
(327,-110,o),
(327,-147,cs),
(327,-205,o),
(370,-241,o),
(438,-241,c)
);
}
);
width = 681;
}
);
locked = 1;
unicode = 370;
}
{
color = 2;
glyphname = uogonek;
kernLeft = u;
kernRight = u;
layers = (
{
background = {
shapes = (
{
closed = 1;
nodes = (
(86,104,l),
(86,29,o),
(133,-12,o),
(219,-12,cs),
(237,-12,o),
(294,22,o),
(358,71,c),
(363,69,l),
(368,15,o),
(398,-12,o),
(452,-12,cs),
(486,-12,o),
(539,68,o),
(539,68,c),
(525,84,l),
(525,84,o),
(497,59,o),
(465,59,cs),
(439,59,o),
(424,76,o),
(424,105,cs),
(424,265,o),
(434,422,o),
(446,452,c),
(440,464,l),
(440,464,o),
(357,445,o),
(286,435,c),
(282,399,l),
(282,399,o),
(300,400,o),
(306,400,cs),
(343,400,o),
(356,386,o),
(356,346,cs),
(356,114,l),
(323,90,o),
(281,57,o),
(235,57,cs),
(181,57,o),
(155,89,o),
(155,155,cs),
(155,272,o),
(168,417,o),
(181,452,c),
(175,464,l),
(175,464,o),
(94,444,o),
(32,434,c),
(28,397,l),
(28,397,o),
(42,401,o),
(53,401,cs),
(78,401,o),
(90,382,o),
(90,347,cs)
);
},
{
closed = 1;
nodes = (
(540,-159,l),
(540,-159,o),
(502,-182,o),
(463,-182,cs),
(428,-182,o),
(405,-159,o),
(405,-128,cs),
(405,-79,o),
(439,-42,o),
(521,42,c),
(479,42,l),
(407,-30,o),
(342,-89,o),
(342,-147,cs),
(342,-207,o),
(388,-241,o),
(453,-241,c),
(504,-224,o),
(553,-178,o),
(553,-178,c)
);
}
);
};
layerId = m01;
shapes = (
{
closed = 1;
nodes = (
(28,397,l),
(28,397,o),
(42,401,o),
(53,401,cs),
(77,401,o),
(90,383,o),
(90,347,cs),
(86,104,l),
(86,29,o),
(133,-12,o),
(219,-12,cs),
(236,-12,o),
(290,20,o),
(358,71,c),
(363,69,l),
(368,15,o),
(398,-12,o),
(452,-12,c),
(542,65,l),
(525,84,l),
(525,84,o),
(497,59,o),
(465,59,cs),
(439,59,o),
(424,76,o),
(424,105,cs),
(424,265,o),
(434,422,o),
(446,452,c),
(440,464,l),
(440,464,o),
(357,445,o),
(286,435,c),
(282,399,l),
(282,399,o),
(300,400,o),
(306,400,cs),
(343,400,o),
(356,386,o),
(356,346,cs),
(356,114,l),
(295,71,o),
(266,57,o),
(235,57,cs),
(181,57,o),
(155,89,o),
(155,155,cs),
(155,268,o),
(168,416,o),
(181,452,c),
(175,464,l),
(175,464,o),
(94,444,o),
(32,434,c)
);
},
{
closed = 1;
nodes = (
(504,-224,o),
(553,-178,o),
(553,-178,c),
(540,-159,l),
(540,-159,o),
(502,-182,o),
(463,-182,cs),
(429,-182,o),
(405,-158,o),
(405,-126,cs),
(405,-83,o),
(420,-62,o),
(542,65,c),
(492,57,l),
(381,-48,o),
(342,-101,o),
(342,-147,cs),
(342,-205,o),
(385,-241,o),
(453,-241,c)
);
}
);
width = 541;
}
);
locked = 1;
unicode = 371;
}
{
color = 2;
glyphname = longs;
layers = (
{
layerId = m01;
shapes = (
{
closed = 1;
nodes = (
(73,-2,o),
(122,0,o),
(158,0,cs),
(184,0,o),
(231,-1,o),
(259,-2,c),
(265,41,l),
(263,45,l),
(254,44,o),
(236,43,o),
(219,43,cs),
(187,43,o),
(176,60,o),
(176,98,c),
(182,498,l),
(184,623,o),
(221,683,o),
(297,683,cs),
(335,683,o),
(384,667,o),
(412,646,c),
(423,649,l),
(432,672,o),
(445,699,o),
(454,714,c),
(452,723,l),
(424,734,o),
(377,742,o),
(338,742,cs),
(198,742,o),
(109,633,o),
(108,460,cs),
(108,456,l),
(48,445,l),
(41,411,l),
(45,405,l),
(95,403,o),
(106,396,o),
(108,364,c),
(108,94,ls),
(108,60,o),
(89,40,o),
(51,35,c),
(46,-4,l)
);
}
);
width = 287;
}
);
locked = 1;
metricLeft = "=f";
unicode = 383;
}
{
color = 2;
glyphname = Uhorn;
kernLeft = U;
kernRight = U;
layers = (
{
anchors = (
{
name = top;
pos = (348,637);
}
);
background = {
shapes = (
{
closed = 1;
nodes = (
(192,544,ls),
(194,582,o),
(206,594,o),
(256,601,c),
(260,646,l),
(260,646,o),
(198,637,o),
(155,637,cs),
(117,637,o),
(42,640,o),
(42,640,c),
(35,596,l),
(37,592,l),
(37,592,o),
(59,594,o),
(71,594,cs),
(101,594,o),
(108,583,o),
(108,540,cs),
(108,209,ls),
(108,68,o),
(187,-12,o),
(327,-12,cs),
(484,-12,o),
(575,68,o),
(575,208,cs),
(575,544,ls),
(575,579,o),
(583,588,o),
(614,597,cs),
(654,609,o),
(682,650,o),
(682,705,cs),
(682,753,o),
(662,783,o),
(631,783,cs),
(615,783,o),
(594,774,o),
(573,757,c),
(571,743,l),
(591,724,o),
(603,697,o),
(603,673,cs),
(603,649,o),
(590,637,o),
(562,637,cs),
(511,637,o),
(438,640,o),
(438,640,c),
(431,596,l),
(433,592,l),
(433,592,o),
(464,594,o),
(476,594,cs),
(505,594,o),
(510,587,o),
(513,540,cs),
(513,540,o),
(519,284,o),
(519,214,cs),
(519,104,o),
(460,45,o),
(351,45,cs),
(243,45,o),
(184,118,o),
(184,250,c)
);
}
);
};
layerId = m01;
shapes = (
{
closed = 1;
nodes = (
(484,-12,o),
(575,68,o),
(575,208,cs),
(575,544,ls),
(575,589,o),
(600,595,o),
(628,609,cs),
(653,622,o),
(680,649,o),
(680,705,cs),
(680,741,o),
(660,763,o),
(629,763,cs),
(613,763,o),
(594,753,o),
(573,737,c),
(571,723,l),
(591,710,o),
(603,690,o),
(603,673,cs),
(603,649,o),
(590,637,o),
(562,637,cs),
(511,637,o),
(438,640,o),
(438,640,c),
(431,596,l),
(433,592,l),
(433,592,o),
(464,594,o),
(476,594,cs),
(505,594,o),
(510,587,o),
(513,540,c),
(513,540,o),
(519,284,o),
(519,214,cs),
(519,104,o),
(460,45,o),
(351,45,cs),
(243,45,o),
(184,118,o),
(184,250,c),
(192,544,l),
(194,582,o),
(206,594,o),
(256,601,c),
(260,646,l),
(260,646,o),
(198,637,o),
(155,637,cs),
(117,637,o),
(42,640,o),
(42,640,c),
(35,596,l),
(37,592,l),
(37,592,o),
(59,594,o),
(71,594,cs),
(101,594,o),
(108,583,o),
(108,540,cs),
(108,209,ls),
(108,68,o),
(187,-12,o),
(327,-12,cs)
);
}
);
width = 691;
}
);
locked = 1;
unicode = 431;
}
{
color = 2;
glyphname = uhorn;
kernLeft = u;
kernRight = u;
layers = (
{
anchors = (
{
name = bottom;
pos = (276,0);
},
{
name = top;
pos = (276,452);
}
);
background = {
shapes = (
{
closed = 1;
nodes = (
(86,104,l),
(86,29,o),
(133,-12,o),
(219,-12,cs),
(237,-12,o),
(294,22,o),
(358,71,c),
(363,69,l),
(368,15,o),
(398,-12,o),
(452,-12,c),
(486,-12,o),
(539,68,o),
(539,68,c),
(525,84,l),
(525,84,o),
(497,59,o),
(465,59,cs),
(439,59,o),
(424,76,o),
(424,105,cs),
(424,265,o),
(434,422,o),
(446,452,c),
(440,464,l),
(440,464,o),
(357,445,o),
(286,435,c),
(282,399,l),
(282,399,o),
(300,400,o),
(306,400,cs),
(343,400,o),
(356,386,o),
(356,346,cs),
(356,114,l),
(323,90,o),
(281,57,o),
(235,57,cs),
(181,57,o),
(155,89,o),
(155,155,cs),
(155,272,o),
(168,417,o),
(181,452,c),
(175,464,l),
(175,464,o),
(94,444,o),
(32,434,c),
(28,397,l),
(28,397,o),
(42,401,o),
(53,401,cs),
(78,401,o),
(90,382,o),
(90,347,c)
);
}
);
};
layerId = m01;
shapes = (
{
closed = 1;
nodes = (
(86,104,l),
(86,29,o),
(133,-12,o),
(219,-12,cs),
(237,-12,o),
(294,22,o),
(358,71,c),
(363,69,l),
(368,15,o),
(398,-12,o),
(452,-12,c),
(486,-12,o),
(539,68,o),
(539,68,c),
(525,84,l),
(525,84,o),
(497,59,o),
(465,59,cs),
(439,59,o),
(424,76,o),
(424,105,cs),
(424,235,o),
(430,363,o),
(439,423,c),
(498,433,o),
(545,478,o),
(545,537,cs),
(545,584,o),
(525,615,o),
(494,615,cs),
(485,615,o),
(476,612,o),
(466,608,cs),
(456,604,o),
(446,597,o),
(436,589,c),
(434,575,l),
(454,556,o),
(466,529,o),
(466,505,cs),
(466,475,o),
(440,462,o),
(403,456,cs),
(380,452,o),
(286,435,o),
(286,435,c),
(282,399,l),
(282,399,o),
(300,400,o),
(306,400,cs),
(343,400,o),
(356,386,o),
(356,346,cs),
(356,114,l),
(323,90,o),
(281,57,o),
(235,57,cs),
(180,57,o),
(155,88,o),
(155,155,cs),
(155,272,o),
(168,417,o),
(181,452,c),
(175,464,l),
(175,464,o),
(94,444,o),
(32,434,c),
(28,397,l),
(28,397,o),
(42,401,o),
(53,401,cs),
(78,401,o),
(90,382,o),
(90,347,c)
);
}
);
width = 551;
}
);
locked = 1;
unicode = 432;
}
{
color = 2;
glyphname = Ezh;
kernLeft = "Ereversed-cy";
kernRight = Ezh;
layers = (
{
anchors = (
{
name = bottom;
pos = (272,0);
},
{
name = top;
pos = (293,637);
}
);
background = {
shapes = (
{
closed = 1;
nodes = (
(423,-12,o),
(569,142,o),
(569,341,cs),
(569,523,o),
(453,649,o),
(286,649,cs),
(101,649,o),
(-43,495,o),
(-43,297,cs),
(-43,114,o),
(70,-12,o),
(234,-12,cs)
);
},
{
closed = 1;
nodes = (
(134,39,o),
(43,158,o),
(43,329,cs),
(43,483,o),
(128,589,o),
(252,589,cs),
(387,589,o),
(480,470,o),
(480,299,cs),
(480,145,o),
(392,39,o),
(265,39,cs)
);
}
);
};
layerId = m01;
shapes = (
{
closed = 1;
nodes = (
(383,-12,o),
(497,69,o),
(497,188,cs),
(497,297,o),
(401,359,o),
(242,354,c),
(221,350,l),
(216,309,l),
(221,304,l),
(343,311,o),
(406,277,o),
(406,177,cs),
(406,84,o),
(352,39,o),
(260,39,cs),
(167,39,o),
(125,86,o),
(126,189,c),
(87,187,l),
(79,181,l),
(82,91,o),
(82,71,o),
(78,12,c),
(82,6,l),
(147,-6,o),
(194,-12,o),
(234,-12,cs)
);
},
{
closed = 1;
nodes = (
(270,334,l),
(491,592,l),
(477,637,l),
(264,638,l),
(100,647,l),
(91,638,l),
(90,566,o),
(84,494,o),
(75,450,c),
(125,452,l),
(134,547,o),
(148,565,o),
(212,565,cs),
(434,565,l),
(444,611,l),
(221,350,l)
);
}
);
width = 548;
}
);
locked = 1;
production = uni01B7;
unicode = 439;
}
{
color = 2;
glyphname = gstroke;
kernLeft = g;
kernRight = g;
layers = (
{
background = {
shapes = (
{
closed = 1;
nodes = (
(179,194,o),
(132,242,o),
(132,312,cs),
(132,375,o),
(170,414,o),
(231,414,cs),
(299,414,o),
(346,365,o),
(346,295,cs),
(346,232,o),
(308,194,o),
(247,194,cs)
);
},
{
closed = 1;
nodes = (
(334,151,o),
(421,224,o),
(421,316,cs),
(421,352,o),
(408,383,o),
(381,411,c),
(385,416,l),
(406,418,o),
(442,420,o),
(471,424,c),
(482,478,l),
(479,482,l),
(426,468,o),
(371,457,o),
(341,454,c),
(315,454,o),
(280,464,o),
(243,464,cs),
(142,464,o),
(57,387,o),
(57,294,cs),
(57,210,o),
(126,151,o),
(224,151,cs)
);
},
{
closed = 1;
nodes = (
(332,-242,o),
(454,-149,o),
(454,-55,cs),
(454,93,o),
(124,24,o),
(124,111,cs),
(124,131,o),
(142,149,o),
(184,171,c),
(135,188,l),
(135,175,l),
(107,157,o),
(79,135,o),
(51,108,c),
(53,53,o),
(90,18,o),
(161,4,c),
(161,-3,l),
(122,-34,o),
(83,-73,o),
(62,-102,c),
(62,-190,o),
(117,-242,o),
(210,-242,cs)
);
},
{
closed = 1;
nodes = (
(178,-196,o),
(135,-163,o),
(135,-113,cs),
(135,-75,o),
(160,-34,o),
(201,-3,c),
(362,-26,o),
(398,-41,o),
(398,-84,cs),
(398,-143,o),
(325,-196,o),
(243,-196,cs)
);
},
{
closed = 1;
nodes = (
(84,-122,o),
(193,-121,o),
(230,-121,cs),
(504,-120,l),
(509,-85,l),
(496,-73,l),
(414,-74,o),
(290,-76,o),
(250,-76,cs),
(210,-76,o),
(90,-75,o),
(10,-75,c),
(3,-115,l),
(12,-122,l)
);
}
);
};
layerId = m01;
shapes = (
{
closed = 1;
nodes = (
(179,194,o),
(132,242,o),
(132,312,cs),
(132,375,o),
(170,414,o),
(231,414,cs),
(299,414,o),
(346,365,o),
(346,295,cs),
(346,232,o),
(308,194,o),
(247,194,cs)
);
},
{
closed = 1;
nodes = (
(334,151,o),
(421,224,o),
(421,316,cs),
(421,352,o),
(408,383,o),
(381,411,c),
(385,416,l),
(406,418,o),
(442,420,o),
(471,424,c),
(482,478,l),
(479,482,l),
(426,468,o),
(371,457,o),
(341,454,c),
(315,454,o),
(280,464,o),
(243,464,cs),
(142,464,o),
(57,387,o),
(57,294,cs),
(57,210,o),
(126,151,o),
(224,151,cs)
);
},
{
closed = 1;
nodes = (
(332,-242,o),
(454,-149,o),
(454,-55,cs),
(454,93,o),
(124,24,o),
(124,111,cs),
(124,131,o),
(142,149,o),
(184,171,c),
(135,188,l),
(135,175,l),
(107,157,o),
(79,135,o),
(51,108,c),
(53,53,o),
(90,18,o),
(161,4,c),
(161,-3,l),
(122,-34,o),
(83,-73,o),
(62,-102,c),
(62,-190,o),
(117,-242,o),
(210,-242,cs)
);
},
{
closed = 1;
nodes = (
(178,-196,o),
(135,-163,o),
(135,-113,cs),
(135,-75,o),
(160,-34,o),
(201,-3,c),
(362,-26,o),
(398,-41,o),
(398,-84,cs),
(398,-143,o),
(325,-196,o),
(243,-196,cs)
);
},
{
closed = 1;
nodes = (
(84,-122,o),
(193,-121,o),
(230,-121,cs),
(504,-120,l),
(508,-88,l),
(499,-78,l),
(417,-79,o),
(289,-81,o),
(249,-81,cs),
(209,-81,o),
(89,-80,o),
(9,-80,c),
(3,-115,l),
(12,-122,l)
);
}
);
width = 499;
}
);
locked = 1;
production = uni01E5;
unicode = 485;
}
{
color = 2;
glyphname = Aringacute;
kernLeft = A;
kernRight = A;
layers = (
{
layerId = m01;
shapes = (
{
closed = 1;
nodes = (
(332,-10,o),
(404,0,o),
(481,0,cs),
(515,0,o),
(587,-3,o),
(587,-3,c),
(594,38,l),
(592,42,l),
(534,47,o),
(512,63,o),
(496,113,cs),
(421,338,o),
(337,649,o),
(337,649,c),
(329,649,l),
(266,632,l),
(71,121,l),
(49,65,o),
(30,48,o),
(-7,44,c),
(-15,-3,l),
(-15,-3,o),
(47,0,o),
(95,0,cs),
(161,0,o),
(234,-7,o),
(234,-7,c),
(240,36,l),
(238,40,l),
(181,40,l),
(139,40,o),
(121,52,o),
(121,81,cs),
(121,90,o),
(124,102,o),
(130,120,cs),
(167,224,l),
(190,227,o),
(237,232,o),
(276,232,cs),
(304,232,o),
(356,232,o),
(380,231,c),
(413,122,l),
(419,103,o),
(422,87,o),
(422,74,cs),
(422,50,o),
(402,41,o),
(333,36,c),
(329,-3,l),
(332,-10,l)
);
},
{
closed = 1;
nodes = (
(280,540,l),
(287,540,l),
(366,278,l),
(343,276,o),
(300,273,o),
(273,273,cs),
(185,273,l)
);
},
{
closed = 1;
nodes = (
(358.448,668.948,o),
(386.379,706.832,o),
(386.379,748.324,cs),
(386.379,782.6,o),
(366.557,816.876,o),
(317.002,816.876,cs),
(271.051,816.876,o),
(241.318,784.404,o),
(241.318,741.108,cs),
(241.318,698.714,o),
(265.645,668.948,o),
(309.794,668.948,cs)
);
},
{
closed = 1;
nodes = (
(297.18,703.224,o),
(270.15,714.95,o),
(270.15,746.52,cs),
(270.15,768.168,o),
(283.665,781.698,o),
(309.794,781.698,cs),
(339.527,781.698,o),
(355.745,763.658,o),
(355.745,738.402,cs),
(355.745,706.832,o),
(330.517,703.224,o),
(316.101,703.224,cs)
);
},
{
closed = 1;
nodes = (
(331.6,853.7,o),
(422.5,884.3,o),
(422.5,884.3,c),
(426.1,893.3,l),
(411.7,936.5,l),
(403.6,941.9,l),
(403.6,941.9,o),
(309.1,887.9,o),
(224.5,843.8,c),
(229.9,822.2,l),
(237.1,817.7,l)
);
}
);
width = 584;
}
);
locked = 1;
unicode = 506;
}
{
color = 2;
glyphname = oslashacute;
kernLeft = o;
kernRight = o;
layers = (
{
background = {
shapes = (
{
closed = 1;
nodes = (
(420,520,l),
(417,532,l),
(388,539,l),
(324,417,l),
(357,403,l)
);
},
{
closed = 1;
nodes = (
(357,403,l),
(324,417,l),
(144,70,l),
(176,56,l)
);
},
{
closed = 1;
nodes = (
(65,-82,l),
(67,-92,l),
(94,-98,l),
(176,56,l),
(144,70,l)
);
},
{
ref = o;
},
{
pos = (53,0);
ref = acutecomb;
}
);
};
layerId = m01;
shapes = (
{
alignment = -1;
ref = oslash;
},
{
alignment = -1;
pos = (57,0);
ref = acutecomb;
}
);
width = 498;
}
);
locked = 1;
unicode = 511;
}
{
color = 8;
glyphname = dcurl;
layers = (
{
layerId = m01;
shapes = (
{
closed = 1;
nodes = (
(169,56,o),
(112,134,o),
(112,236,cs),
(112,341,o),
(166,406,o),
(256,406,cs),
(316,406,o),
(346,386,o),
(353,383,c),
(353,109,l),
(345,103,o),
(289,56,o),
(244,56,cs)
);
},
{
closed = 1;
nodes = (
(353,-108,o),
(369,-99,o),
(385,-80,c),
(384,-69,l),
(363,-66,o),
(353,-50,o),
(353,-19,cs),
(353,-2,o),
(356,20,o),
(363,47,c),
(373,8,o),
(402,-12,o),
(449,-12,cs),
(489,-12,o),
(540,28,o),
(540,93,cs),
(540,128,o),
(514,141,o),
(460,141,cs),
(445,141,o),
(432,140,o),
(421,137,c),
(421,183,o),
(422,230,o),
(423,278,cs),
(424,335,o),
(425,390,o),
(427,442,cs),
(429,494,o),
(431,541,o),
(434,582,cs),
(436,623,o),
(438,657,o),
(441,683,cs),
(444,708,o),
(446,724,o),
(449,729,c),
(443,742,l),
(441,742,l),
(422,737,o),
(418,735,o),
(410,735,c),
(410,734,o),
(410,734,o),
(409,734,cs),
(408,734,ls),
(401,734,o),
(401,732,o),
(393,731,cs),
(359,723,o),
(326,717,o),
(295,713,c),
(291,676,l),
(297,679,o),
(305,680,o),
(316,680,cs),
(329,680,o),
(339,675,o),
(345,666,cs),
(350,657,o),
(353,643,o),
(353,626,cs),
(353,460,l),
(325,463,o),
(302,464,o),
(284,464,cs),
(217,464,o),
(159,439,o),
(110,389,cs),
(60,339,o),
(35,277,o),
(35,202,cs),
(35,139,o),
(53,88,o),
(89,49,cs),
(125,10,o),
(171,-9,o),
(228,-9,cs),
(235,-9,o),
(249,-3,o),
(269,8,cs),
(286,18,o),
(308,32,o),
(337,51,c),
(320,25,o),
(310,8,o),
(308,2,cs),
(299,-21,o),
(294,-37,o),
(294,-46,cs),
(294,-63,o),
(298,-78,o),
(307,-90,cs),
(316,-102,o),
(326,-108,o),
(337,-108,cs)
);
},
{
closed = 1;
nodes = (
(438,40,o),
(422,68,o),
(421,102,c),
(430,112,o),
(442,119,o),
(460,119,cs),
(484,119,o),
(502,115,o),
(502,92,cs),
(502,59,o),
(475,40,o),
(459,40,cs)
);
}
);
width = 545;
}
);
locked = 1;
note = dcurl;
unicode = 545;
}
{
color = 8;
glyphname = lcurl;
layers = (
{
layerId = m01;
shapes = (
{
closed = 1;
nodes = (
(102,-76,o),
(118,-67,o),
(134,-48,c),
(133,-37,l),
(104,-26,o),
(98,16,o),
(98,41,c),
(114,10,o),
(150,-6,o),
(206,-7,cs),
(274,-7,o),
(316,29,o),
(316,93,cs),
(316,141,o),
(262,148,o),
(226,148,cs),
(211,148,o),
(175,144,o),
(159,137,c),
(157,149,o),
(156,162,o),
(156,177,cs),
(156,344,o),
(160,479,o),
(167,583,c),
(167,618,o),
(175,705,o),
(182,729,c),
(176,742,l),
(128,729,o),
(79,719,o),
(28,713,c),
(24,679,l),
(27,677,l),
(49,679,l),
(78,673,o),
(86,682,o),
(86,626,cs),
(86,172,ls),
(86,142,o),
(87,98,o),
(87,86,c),
(58,34,o),
(43,1,o),
(43,-14,cs),
(43,-50,o),
(64,-76,o),
(86,-76,cs)
);
},
{
closed = 1;
nodes = (
(189,40,o),
(169,47,o),
(153,62,c),
(153,92,o),
(178,118,o),
(217,118,cs),
(248,118,o),
(270,114,o),
(270,87,cs),
(270,48,o),
(231,40,o),
(212,40,cs)
);
}
);
width = 244;
}
);
note = lcurl;
unicode = 564;
}
{
color = 8;
glyphname = tcurl;
layers = (
{
layerId = m01;
shapes = (
{
closed = 1;
nodes = (
(109,-78,o),
(125,-69,o),
(141,-50,c),
(140,-39,l),
(111,-29,o),
(103,-3,o),
(103,22,c),
(122,-2,o),
(159,-11,o),
(205,-11,cs),
(263,-11,o),
(323,24,o),
(323,81,cs),
(323,132,o),
(283,146,o),
(213,146,cs),
(189,146,o),
(168,143,o),
(150,137,c),
(150,149,ls),
(150,257,o),
(152,340,o),
(157,399,c),
(302,396,l),
(311,449,l),
(308,452,l),
(161,449,l),
(169,524,l),
(149,532,l),
(142,526,o),
(94,478,o),
(25,441,c),
(20,411,l),
(24,405,l),
(64,405,o),
(81,393,o),
(81,355,cs),
(81,109,ls),
(81,94,o),
(82,80,o),
(84,67,c),
(58,20,o),
(50,-1,o),
(50,-16,cs),
(50,-52,o),
(71,-78,o),
(93,-78,cs)
);
},
{
closed = 1;
nodes = (
(182,48,o),
(162,57,o),
(155,93,c),
(164,108,o),
(183,116,o),
(214,116,cs),
(245,116,o),
(271,112,o),
(271,89,cs),
(271,53,o),
(227,48,o),
(208,48,cs)
);
}
);
width = 330;
}
);
locked = 1;
note = tcurl;
unicode = 566;
}
{
color = 8;
glyphname = aturned;
layers = (
{
layerId = m01;
shapes = (
{
closed = 1;
nodes = (
(188,344,l),
(215,371,o),
(252,392,o),
(279,392,cs),
(320,392,o),
(348,362,o),
(348,325,cs),
(348,303,o),
(338,289,o),
(319,283,cs),
(183,242,l)
);
},
{
closed = 1;
nodes = (
(275,-12,o),
(351,27,o),
(405,58,c),
(393,101,l),
(388,104,l),
(350,74,o),
(307,54,o),
(268,54,cs),
(209,54,o),
(180,97,o),
(180,160,cs),
(181,204,l),
(371,256,ls),
(404,266,o),
(424,298,o),
(424,336,cs),
(424,407,o),
(372,460,o),
(296,460,cs),
(276,460,o),
(234,430,o),
(186,382,c),
(182,383,l),
(176,439,o),
(144,464,o),
(93,464,c),
(55,452,o),
(22,410,o),
(6,384,c),
(20,368,l),
(31,378,o),
(56,393,o),
(80,393,cs),
(104,393,o),
(121,378,o),
(121,347,cs),
(121,282,o),
(103,157,o),
(103,117,cs),
(103,33,o),
(157,-12,o),
(242,-12,cs)
);
}
);
width = 466;
}
);
note = aturned;
unicode = 592;
}
{
color = 8;
glyphname = "alpha-latin";
layers = (
{
layerId = m01;
shapes = (
{
closed = 1;
nodes = (
(171,55,o),
(113,136,o),
(113,236,cs),
(113,341,o),
(167,406,o),
(257,406,cs),
(287,406,o),
(311,402,o),
(328,395,cs),
(345,387,o),
(356,389,o),
(356,346,cs),
(356,114,l),
(321,89,o),
(282,55,o),
(234,55,cs)
);
},
{
closed = 1;
nodes = (
(485,-12,o),
(529,54,o),
(539,68,c),
(525,84,l),
(521,81,o),
(495,59,o),
(465,59,cs),
(441,59,o),
(424,74,o),
(424,105,cs),
(424,265,o),
(434,422,o),
(446,452,c),
(440,464,l),
(372,450,l),
(328,459,o),
(298,464,o),
(285,464,cs),
(151,464,o),
(36,351,o),
(36,202,cs),
(36,72,o),
(119,-11,o),
(219,-11,cs),
(254,-11,o),
(283,13,o),
(358,71,c),
(363,69,l),
(368,15,o),
(398,-12,o),
(452,-12,cs)
);
}
);
width = 541;
}
);
locked = 1;
note = alpha;
unicode = 593;
}
{
color = 8;
glyphname = "alphaturned-latin";
layers = (
{
layerId = m01;
shapes = (
{
closed = 1;
nodes = (
(254,46,o),
(230,50,o),
(213,58,cs),
(196,65,o),
(185,63,o),
(185,106,cs),
(185,338,l),
(220,363,o),
(259,397,o),
(307,397,cs),
(370,397,o),
(428,316,o),
(428,216,cs),
(428,111,o),
(374,46,o),
(284,46,cs)
);
},
{
closed = 1;
nodes = (
(390,-12,o),
(505,101,o),
(505,250,cs),
(505,380,o),
(422,463,o),
(322,463,cs),
(287,463,o),
(258,439,o),
(183,381,c),
(178,383,l),
(173,437,o),
(143,464,o),
(89,464,cs),
(56,464,o),
(12,398,o),
(2,384,c),
(16,368,l),
(19,371,o),
(46,393,o),
(76,393,cs),
(100,393,o),
(117,378,o),
(117,347,cs),
(117,187,o),
(107,30,o),
(95,0,c),
(101,-12,l),
(169,2,l),
(213,-7,o),
(242,-12,o),
(256,-12,cs)
);
}
);
width = 541;
}
);
locked = 1;
note = alphaturned;
unicode = 594;
}
{
color = 8;
glyphname = oopen;
layers = (
{
layerId = m01;
shapes = (
{
closed = 1;
nodes = (
(201,-8,o),
(229,-4,o),
(254,3,cs),
(306,17,o),
(346,44,o),
(375,85,cs),
(403,126,o),
(417,177,o),
(417,240,cs),
(417,331,o),
(387,395,o),
(328,430,cs),
(294,450,o),
(252,460,o),
(201,460,cs),
(163,460,o),
(120,454,o),
(72,443,c),
(68,438,l),
(69,392,l),
(69,373,ls),
(68,350,o),
(67,331,o),
(65,316,c),
(109,320,l),
(112,343,o),
(116,361,o),
(121,374,cs),
(126,387,o),
(135,396,o),
(147,401,cs),
(158,406,o),
(174,408,o),
(195,408,cs),
(242,408,o),
(277,392,o),
(301,360,cs),
(324,328,o),
(336,279,o),
(336,214,cs),
(336,174,o),
(331,141,o),
(321,116,cs),
(311,91,o),
(296,72,o),
(275,60,cs),
(254,48,o),
(227,42,o),
(194,42,cs),
(161,42,o),
(139,49,o),
(128,62,cs),
(117,74,o),
(111,96,o),
(111,127,cs),
(111,135,l),
(72,135,l),
(65,129,l),
(66,116,o),
(67,100,o),
(67,81,cs),
(67,62,o),
(66,38,o),
(65,9,c),
(69,4,l),
(106,-4,o),
(140,-8,o),
(172,-8,cs)
);
}
);
width = 458;
}
);
locked = 1;
note = oopen;
unicode = 596;
}
{
color = 8;
glyphname = dtail;
layers = (
{
layerId = m01;
shapes = (
{
closed = 1;
nodes = (
(169,56,o),
(112,134,o),
(112,236,cs),
(112,341,o),
(166,406,o),
(256,406,cs),
(316,406,o),
(346,386,o),
(353,383,c),
(353,109,l),
(345,103,o),
(289,56,o),
(244,56,cs)
);
},
{
closed = 1;
nodes = (
(501,-234,o),
(570,-178,o),
(576,-174,c),
(566,-148,l),
(559,-151,o),
(532,-166,o),
(498,-166,cs),
(451,-166,o),
(425,-146,o),
(421,-96,c),
(421,380,o),
(434,707,o),
(449,729,c),
(443,742,l),
(425,738,o),
(356,721,o),
(295,713,c),
(291,676,l),
(297,679,o),
(305,680,o),
(316,680,cs),
(343,680,o),
(353,661,o),
(353,626,cs),
(353,460,l),
(325,463,o),
(302,464,o),
(284,464,cs),
(157,464,o),
(35,359,o),
(35,202,cs),
(35,72,o),
(117,-9,o),
(228,-9,cs),
(243,-9,o),
(285,15,o),
(353,62,c),
(353,-11,l),
(351,-113,ls),
(351,-199,o),
(383,-234,o),
(475,-234,cs)
);
}
);
width = 537;
}
);
locked = 1;
note = dtail;
unicode = 598;
}
{
color = 8;
glyphname = dhook;
layers = (
{
layerId = m01;
shapes = (
{
closed = 1;
nodes = (
(169,56,o),
(112,134,o),
(112,236,cs),
(112,341,o),
(166,406,o),
(256,406,cs),
(316,406,o),
(346,386,o),
(353,383,c),
(353,109,l),
(345,103,o),
(289,56,o),
(244,56,cs)
);
},
{
closed = 1;
nodes = (
(497,7,o),
(529,59,o),
(536,68,c),
(522,84,l),
(516,80,o),
(492,59,o),
(462,59,cs),
(439,59,o),
(421,73,o),
(421,105,cs),
(421,350,o),
(429,502,o),
(432,544,cs),
(442,637,o),
(449,683,o),
(515,683,cs),
(566,683,o),
(602,651,o),
(610,646,c),
(621,649,l),
(636,686,o),
(648,705,o),
(652,714,c),
(650,723,l),
(641,726,o),
(604,742,o),
(556,742,cs),
(424,742,o),
(360,645,o),
(356,467,c),
(353,460,l),
(325,463,o),
(302,464,o),
(284,464,cs),
(157,464,o),
(35,359,o),
(35,202,cs),
(35,72,o),
(117,-9,o),
(228,-9,cs),
(243,-9,o),
(285,15,o),
(353,62,c),
(360,59,l),
(367,12,o),
(397,-12,o),
(449,-12,c)
);
}
);
width = 597;
}
);
note = dhook;
unicode = 599;
}
{
color = 8;
glyphname = ereversed;
layers = (
{
layerId = m01;
shapes = (
{
closed = 1;
nodes = (
(272,408,o),
(312,365,o),
(328,293,c),
(152,300,l),
(133,303,o),
(127,307,o),
(127,327,cs),
(127,377,o),
(152,403,o),
(194,408,c)
);
},
{
closed = 1;
nodes = (
(338,-3,o),
(416,96,o),
(416,240,cs),
(416,392,o),
(335,460,o),
(191,460,cs),
(92,460,o),
(42,412,o),
(42,315,cs),
(42,298,o),
(45,282,o),
(48,266,c),
(61,254,l),
(333,254,l),
(334,241,o),
(335,228,o),
(335,214,cs),
(335,159,o),
(327,90,o),
(274,60,cs),
(255,48,o),
(215,44,o),
(188,44,cs),
(157,44,o),
(89,68,o),
(50,96,c),
(44,94,l),
(33,65,l),
(77,34,o),
(132,1,o),
(187,-3,c)
);
}
);
width = 447;
}
);
locked = 1;
note = ereversed;
unicode = 600;
}
{
color = 8;
glyphname = schwahook;
layers = (
{
layerId = m01;
shapes = (
{
closed = 1;
nodes = (
(184,39,o),
(164,46,o),
(149,59,cs),
(134,72,o),
(126,93,o),
(126,121,cs),
(126,139,o),
(133,148,o),
(147,148,cs),
(332,157,l),
(325,118,o),
(310,89,o),
(288,69,cs),
(265,49,o),
(239,39,o),
(209,39,cs)
);
},
{
closed = 1;
nodes = (
(234,-12,o),
(273,1,o),
(306,27,cs),
(339,52,o),
(364,85,o),
(383,124,cs),
(395,152,l),
(402,110,o),
(410,77,o),
(431,53,c),
(448,37,o),
(465,29,o),
(481,29,cs),
(491,29,o),
(501,32,o),
(510,39,c),
(519,49,o),
(524,65,o),
(524,85,cs),
(524,99,o),
(524,95,o),
(515,102,c),
(505,97,o),
(496,95,o),
(486,95,cs),
(473,95,o),
(461,100,o),
(449,110,c),
(432,131,o),
(423,158,o),
(423,192,c),
(420,195,l),
(420,197,o),
(418,197,o),
(417,197,cs),
(412,197,o),
(410,197,o),
(407,195,c),
(410,211,o),
(411,227,o),
(411,243,cs),
(411,308,o),
(392,362,o),
(355,403,cs),
(318,444,o),
(266,464,o),
(201,464,cs),
(179,464,o),
(153,457,o),
(123,442,cs),
(92,427,o),
(67,411,o),
(48,396,c),
(59,367,l),
(65,365,l),
(112,386,o),
(153,396,o),
(189,396,cs),
(226,396,o),
(256,386,o),
(277,367,cs),
(298,348,o),
(314,323,o),
(323,294,cs),
(333,260,o),
(336,231,o),
(336,194,c),
(60,194,l),
(47,182,l),
(43,167,o),
(41,150,o),
(41,133,cs),
(42,36,o),
(91,-12,o),
(190,-12,cs)
);
}
);
width = 516;
}
);
locked = 1;
note = schwahook;
unicode = 602;
}
{
color = 8;
glyphname = eopen;
layers = (
{
layerId = m01;
shapes = (
{
closed = 1;
nodes = (
(278,-8,o),
(316,-4,o),
(361,4,c),
(365,10,l),
(364,32,o),
(364,50,o),
(363,63,cs),
(363,97,l),
(366,129,l),
(340,135,l),
(321,135,l),
(321,130,ls),
(321,65,o),
(289,39,o),
(225,39,cs),
(154,39,o),
(119,65,o),
(119,118,cs),
(119,165,o),
(149,195,o),
(210,207,c),
(287,204,l),
(289,209,l),
(282,255,l),
(191,254,l),
(160,269,o),
(142,299,o),
(142,333,cs),
(142,389,o),
(186,409,o),
(236,409,cs),
(297,409,o),
(310,374,o),
(315,319,c),
(360,315,l),
(358,332,o),
(357,352,o),
(356,375,cs),
(356,394,l),
(357,437,l),
(353,443,l),
(313,452,o),
(272,456,o),
(231,456,cs),
(159,456,o),
(69,439,o),
(69,349,cs),
(69,294,o),
(106,261,o),
(152,239,c),
(93,228,o),
(41,196,o),
(41,130,cs),
(41,26,o),
(165,-8,o),
(249,-8,cs)
);
}
);
width = 429;
}
);
note = eopen;
unicode = 603;
}
{
color = 8;
glyphname = ereversedopen;
layers = (
{
layerId = m01;
shapes = (
{
closed = 1;
nodes = (
(262,-8,o),
(386,27,o),
(386,130,cs),
(386,196,o),
(334,228,o),
(275,239,c),
(321,261,o),
(358,294,o),
(358,349,cs),
(358,439,o),
(268,456,o),
(196,456,cs),
(155,456,o),
(114,452,o),
(74,443,c),
(70,437,l),
(71,394,l),
(71,375,ls),
(70,352,o),
(69,332,o),
(67,315,c),
(112,319,l),
(117,374,o),
(130,409,o),
(191,409,cs),
(241,409,o),
(285,389,o),
(285,333,cs),
(285,299,o),
(267,269,o),
(236,254,c),
(145,255,l),
(138,209,l),
(140,204,l),
(217,207,l),
(278,195,o),
(308,165,o),
(308,118,cs),
(308,65,o),
(273,39,o),
(202,39,cs),
(138,39,o),
(106,65,o),
(106,130,cs),
(106,135,l),
(87,135,l),
(61,129,l),
(64,97,l),
(64,63,ls),
(63,50,o),
(63,32,o),
(62,10,c),
(66,4,l),
(111,-4,o),
(149,-8,o),
(178,-8,cs)
);
}
);
width = 429;
}
);
locked = 1;
note = ereversedopen;
unicode = 604;
}
{
color = 8;
glyphname = eopenreversedhook;
layers = (
{
layerId = m01;
shapes = (
{
closed = 1;
nodes = (
(206,-8,o),
(236,-4,o),
(269,5,cs),
(301,14,o),
(329,28,o),
(352,49,cs),
(375,69,o),
(386,96,o),
(386,130,cs),
(386,163,o),
(375,189,o),
(354,206,cs),
(332,223,o),
(306,234,o),
(275,239,c),
(298,250,o),
(318,264,o),
(334,282,cs),
(352,301,o),
(358,323,o),
(358,354,c),
(374,359,l),
(375,304,o),
(386,264,o),
(407,240,c),
(424,224,o),
(441,216,o),
(457,216,cs),
(467,216,o),
(477,219,o),
(486,226,c),
(495,236,o),
(500,252,o),
(500,272,cs),
(500,286,o),
(500,282,o),
(491,289,c),
(481,284,o),
(472,282,o),
(462,282,cs),
(449,282,o),
(437,287,o),
(425,297,c),
(408,318,o),
(399,345,o),
(399,379,c),
(394,383,l),
(390,383,o),
(377,379,o),
(356,370,c),
(353,390,o),
(345,406,o),
(333,417,cs),
(316,432,o),
(295,443,o),
(270,448,cs),
(245,453,o),
(220,456,o),
(196,456,cs),
(155,456,o),
(115,452,o),
(74,443,c),
(70,437,l),
(71,396,o),
(71,415,o),
(71,375,cs),
(70,352,o),
(69,332,o),
(67,315,c),
(112,319,l),
(114,347,o),
(120,369,o),
(130,385,cs),
(140,401,o),
(160,409,o),
(191,409,cs),
(216,409,o),
(238,403,o),
(257,392,cs),
(276,381,o),
(285,361,o),
(285,333,cs),
(285,299,o),
(269,273,o),
(236,254,c),
(145,255,l),
(138,209,l),
(140,204,l),
(217,207,l),
(278,195,o),
(308,165,o),
(308,118,cs),
(308,116,ls),
(308,64,o),
(272,39,o),
(202,39,cs),
(170,39,o),
(146,46,o),
(130,60,cs),
(112,75,o),
(106,98,o),
(106,135,c),
(87,135,l),
(61,129,l),
(64,97,l),
(64,63,l),
(63,56,o),
(63,47,o),
(63,37,cs),
(63,28,o),
(63,19,o),
(62,10,c),
(66,4,l),
(112,-4,o),
(149,-8,o),
(178,-8,cs)
);
}
);
width = 495;
}
);
locked = 1;
note = ereversedopenhook;
unicode = 605;
}
{
color = 8;
glyphname = jdotlessbar;
layers = (
{
layerId = m01;
shapes = (
{
closed = 1;
nodes = (
(32,-241,l),
(122,-185,o),
(159,-101,o),
(159,-14,cs),
(160,210,l),
(220,208,l),
(228,257,l),
(225,262,l),
(161,257,l),
(164,380,o),
(170,442,o),
(176,452,c),
(171,464,l),
(155,460,o),
(90,445,o),
(27,436,c),
(23,399,l),
(30,401,o),
(39,402,o),
(50,402,cs),
(81,402,o),
(90,387,o),
(90,348,cs),
(90,255,l),
(20,256,l),
(15,204,l),
(37,207,o),
(62,209,o),
(90,209,c),
(90,38,ls),
(90,-92,o),
(73,-158,o),
(16,-214,c),
(14,-222,l)
);
}
);
width = 250;
}
);
note = jdotlessbar;
unicode = 607;
}
{
color = 8;
glyphname = ghook;
layers = (
{
layerId = m01;
shapes = (
{
closed = 1;
nodes = (
(171,53,o),
(112,128,o),
(112,236,cs),
(112,333,o),
(159,406,o),
(256,406,cs),
(310,406,o),
(347,389,o),
(353,383,c),
(353,109,l),
(344,100,o),
(290,53,o),
(244,53,cs)
);
},
{
closed = 1;
nodes = (
(312,-231,o),
(420,-152,o),
(420,-23,cs),
(420,206,o),
(423,396,o),
(433,474,cs),
(445,560,o),
(453,603,o),
(506,603,cs),
(537,603,o),
(566,591,o),
(601,566,c),
(612,569,l),
(622,594,o),
(632,616,o),
(643,634,c),
(641,643,l),
(606,656,o),
(568,662,o),
(537,662,cs),
(455,662,o),
(378,600,o),
(363,457,c),
(334,462,o),
(308,464,o),
(284,464,cs),
(155,464,o),
(35,359,o),
(35,202,cs),
(35,89,o),
(100,-12,o),
(228,-12,cs),
(245,-12,o),
(296,19,o),
(353,60,c),
(351,-37,ls),
(351,-120,o),
(314,-179,o),
(213,-179,cs),
(112,-179,o),
(87,-139,o),
(87,-79,cs),
(88,-60,l),
(53,-62,l),
(48,-68,l),
(45,-198,l),
(48,-204,l),
(95,-222,o),
(142,-231,o),
(189,-231,cs)
);
}
);
width = 538;
}
);
note = ghook;
unicode = 608;
}
{
color = 8;
glyphname = gscript;
layers = (
{
layerId = m01;
shapes = (
{
closed = 1;
nodes = (
(170,53,o),
(112,130,o),
(112,236,cs),
(112,341,o),
(166,406,o),
(256,406,cs),
(316,406,o),
(346,386,o),
(353,383,c),
(353,109,l),
(345,103,o),
(291,53,o),
(244,53,cs)
);
},
{
closed = 1;
nodes = (
(311,-231,o),
(420,-152,o),
(420,-23,cs),
(420,239,o),
(427,437,o),
(439,469,c),
(431,478,l),
(376,455,l),
(342,461,o),
(311,464,o),
(284,464,cs),
(157,464,o),
(35,359,o),
(35,202,cs),
(35,81,o),
(107,-12,o),
(228,-12,cs),
(243,-12,o),
(293,18,o),
(353,60,c),
(351,-37,ls),
(349,-119,o),
(312,-179,o),
(213,-179,cs),
(128,-179,o),
(87,-153,o),
(87,-79,cs),
(88,-60,l),
(53,-62,l),
(48,-68,l),
(45,-198,l),
(48,-204,l),
(95,-222,o),
(142,-231,o),
(189,-231,cs)
);
}
);
width = 516;
}
);
locked = 1;
note = gscript;
unicode = 609;
}
{
color = 8;
glyphname = "gamma-latin";
layers = (
{
layerId = m01;
shapes = (
{
closed = 1;
nodes = (
(258,-241,o),
(283,-216,o),
(283,-166,cs),
(283,-125,o),
(268,-66,o),
(238,10,c),
(381,341,ls),
(404,395,o),
(416,412,o),
(445,416,c),
(452,453,l),
(370,452,l),
(263,453,l),
(258,422,l),
(262,416,l),
(300,416,ls),
(332,416,o),
(343,411,o),
(343,392,cs),
(343,370,o),
(293,247,o),
(225,96,c),
(221,96,l),
(198,155,o),
(136,371,o),
(136,397,cs),
(136,416,o),
(152,422,o),
(195,423,c),
(201,454,l),
(199,459,l),
(165,456,o),
(130,452,o),
(79,452,cs),
(-4,453,l),
(-10,420,l),
(-8,416,l),
(26,415,o),
(49,398,o),
(60,366,cs),
(80,307,o),
(143,116,o),
(175,15,c),
(141,-58,o),
(124,-115,o),
(124,-157,cs),
(124,-213,o),
(152,-241,o),
(208,-241,cs)
);
},
{
closed = 1;
nodes = (
(185,-202,o),
(178,-193,o),
(178,-174,cs),
(178,-126,o),
(187,-82,o),
(205,-44,c),
(210,-45,l),
(218,-85,o),
(221,-129,o),
(221,-177,cs),
(221,-194,o),
(214,-202,o),
(200,-202,cs)
);
}
);
width = 445;
}
);
note = gamma;
unicode = 611;
}
{
color = 8;
glyphname = ramshorn;
layers = (
{
layerId = m01;
shapes = (
{
closed = 1;
nodes = (
(290,-3,o),
(338,19,o),
(338,79,cs),
(338,117,o),
(319,167,o),
(269,242,c),
(355,343,ls),
(387,381,o),
(417,411,o),
(449,418,c),
(455,450,l),
(452,455,l),
(452,455,o),
(451,452,o),
(298,452,c),
(293,419,l),
(295,415,l),
(327,415,o),
(338,413,o),
(338,402,cs),
(338,379,o),
(248,277,o),
(246,274,c),
(191,354,ls),
(175,376,o),
(167,389,o),
(167,401,cs),
(167,414,o),
(182,420,o),
(212,420,c),
(218,451,l),
(216,456,l),
(216,456,o),
(171,452,o),
(114,452,cs),
(80,452,o),
(13,454,o),
(13,454,c),
(7,420,l),
(9,416,l),
(25,413,o),
(38,409,o),
(49,404,cs),
(91,381,o),
(166,259,o),
(193,221,c),
(151,167,o),
(124,117,o),
(124,72,cs),
(124,17,o),
(174,-3,o),
(232,-3,cs)
);
},
{
closed = 1;
nodes = (
(196,27,o),
(173,38,o),
(173,70,cs),
(173,96,o),
(185,125,o),
(223,187,c),
(229,187,l),
(263,125,o),
(272,96,o),
(272,74,cs),
(272,40,o),
(249,27,o),
(223,27,cs)
);
}
);
width = 475;
}
);
note = ramshorn;
unicode = 612;
}
{
color = 8;
glyphname = hturned;
layers = (
{
layerId = m01;
shapes = (
{
closed = 1;
nodes = (
(345,-292,l),
(388,-281,o),
(438,-271,o),
(493,-263,c),
(497,-231,l),
(493,-228,l),
(450,-228,o),
(435,-227,o),
(435,-176,cs),
(437,170,o),
(439,357,o),
(442,385,cs),
(445,419,o),
(449,441,o),
(453,452,c),
(447,464,l),
(431,461,o),
(367,446,o),
(299,435,c),
(295,399,l),
(318,400,ls),
(352,400,o),
(366,388,o),
(366,346,cs),
(366,284,ls),
(366,225,o),
(365,167,o),
(364,109,c),
(315,72,o),
(272,54,o),
(237,54,cs),
(178,54,o),
(154,99,o),
(154,158,cs),
(158,275,ls),
(159,308,o),
(165,406,o),
(180,452,c),
(174,464,l),
(31,434,l),
(27,397,l),
(33,400,o),
(41,401,o),
(52,401,cs),
(79,401,o),
(89,380,o),
(89,347,cs),
(88,272,l),
(85,233,o),
(76,151,o),
(76,115,cs),
(76,23,o),
(136,-14,o),
(213,-14,cs),
(254,-14,o),
(339,47,o),
(363,64,c),
(357,-131,o),
(349,-264,o),
(339,-279,c)
);
}
);
width = 534;
}
);
note = hturned;
unicode = 613;
}
{
color = 8;
glyphname = hhook;
layers = (
{
layerId = m01;
shapes = (
{
closed = 1;
nodes = (
(301,-12,l),
(346,-4,o),
(380,0,o),
(404,0,cs),
(432,0,o),
(462,-1,o),
(493,-3,c),
(501,40,l),
(499,44,l),
(464,42,ls),
(441,42,o),
(429,57,o),
(429,98,cs),
(429,158,o),
(445,298,o),
(445,335,cs),
(445,430,o),
(383,464,o),
(308,464,cs),
(268,464,o),
(181,403,o),
(158,386,c),
(159,502,ls),
(160,623,o),
(199,683,o),
(274,683,cs),
(349,683,o),
(384,650,o),
(389,646,c),
(400,649,l),
(431,714,l),
(429,723,l),
(416,727,o),
(382,742,o),
(315,742,cs),
(205,742,o),
(87,667,o),
(86,511,cs),
(86,94,ls),
(86,59,o),
(74,43,o),
(34,39,c),
(28,-2,l),
(71,-2,o),
(91,0,o),
(127,0,cs),
(198,0,o),
(190,-3,o),
(218,-3,c),
(227,40,l),
(225,44,l),
(188,42,ls),
(165,42,o),
(154,61,o),
(154,98,cs),
(154,180,o),
(155,261,o),
(157,341,c),
(207,378,o),
(249,396,o),
(284,396,cs),
(334,396,o),
(367,364,o),
(367,292,cs),
(361,94,ls),
(361,58,o),
(342,36,o),
(305,29,c)
);
}
);
width = 534;
}
);
note = hhook;
unicode = 614;
}
{
color = 8;
glyphname = ibar;
layers = (
{
layerId = m01;
shapes = (
{
closed = 1;
nodes = (
(174,582,o),
(193,614,o),
(193,641,cs),
(193,665,o),
(180,692,o),
(144,692,cs),
(107,692,o),
(85,663,o),
(85,633,cs),
(85,611,o),
(96,582,o),
(134,582,cs)
);
},
{
closed = 1;
nodes = (
(46,-12,ls),
(58,-10,o),
(106,0,o),
(147,0,cs),
(236,-3,l),
(244,40,l),
(242,44,l),
(231,43,o),
(220,42,o),
(207,42,cs),
(182,42,o),
(172,60,o),
(172,98,cs),
(173,204,l),
(241,205,l),
(248,252,l),
(242,262,l),
(234,261,o),
(208,258,o),
(175,257,c),
(181,360,o),
(186,424,o),
(195,452,c),
(190,464,l),
(178,461,o),
(116,447,o),
(46,435,c),
(42,398,l),
(47,401,o),
(56,402,o),
(67,402,cs),
(92,401,o),
(104,383,o),
(104,348,cs),
(104,256,l),
(39,257,l),
(29,212,l),
(35,203,l),
(104,204,l),
(104,94,ls),
(104,60,o),
(87,39,o),
(48,29,c),
(44,-12,l)
);
}
);
width = 282;
}
);
note = ibar;
unicode = 616;
}
{
color = 8;
glyphname = lretroflexhook;
layers = (
{
layerId = m01;
shapes = (
{
closed = 1;
nodes = (
(235,-234,o),
(304,-178,o),
(310,-174,c),
(300,-148,l),
(293,-151,o),
(266,-166,o),
(232,-166,cs),
(172,-166,o),
(154,-125,o),
(154,110,cs),
(154,280,o),
(156,430,o),
(167,583,c),
(167,620,o),
(175,712,o),
(182,729,c),
(176,742,l),
(128,729,o),
(79,719,o),
(28,713,c),
(24,679,l),
(27,677,l),
(49,679,l),
(78,675,o),
(86,677,o),
(86,626,cs),
(86,172,l),
(85,-113,ls),
(85,-199,o),
(117,-234,o),
(209,-234,cs)
);
}
);
width = 244;
}
);
locked = 1;
note = lretroflexhook;
unicode = 621;
}
{
color = 8;
glyphname = mturned;
layers = (
{
layerId = m01;
shapes = (
{
closed = 1;
nodes = (
(758,-12,o),
(803,61,o),
(808,68,c),
(794,84,l),
(784,77,o),
(762,59,o),
(734,59,cs),
(711,59,o),
(693,73,o),
(693,105,cs),
(693,254,o),
(702,418,o),
(715,452,c),
(709,464,l),
(694,461,o),
(624,445,o),
(555,435,c),
(551,399,l),
(575,400,ls),
(610,400,o),
(625,388,o),
(625,346,cs),
(625,114,l),
(583,81,o),
(540,57,o),
(504,57,cs),
(451,58,o),
(424,90,o),
(424,155,cs),
(424,257,o),
(434,405,o),
(450,452,c),
(444,464,l),
(301,434,l),
(297,397,l),
(303,400,o),
(311,401,o),
(322,401,cs),
(349,401,o),
(359,380,o),
(359,347,cs),
(355,114,l),
(301,74,o),
(272,57,o),
(234,57,cs),
(181,58,o),
(154,90,o),
(154,155,cs),
(154,257,o),
(164,405,o),
(180,452,c),
(174,464,l),
(31,434,l),
(27,397,l),
(33,400,o),
(41,401,o),
(52,401,cs),
(79,401,o),
(89,380,o),
(89,347,cs),
(85,104,ls),
(85,22,o),
(141,-12,o),
(218,-12,cs),
(238,-12,o),
(284,16,o),
(357,71,c),
(359,70,l),
(372,13,o),
(424,-12,o),
(488,-12,cs),
(508,-12,o),
(554,16,o),
(627,71,c),
(632,69,l),
(637,15,o),
(667,-12,o),
(721,-12,cs)
);
}
);
width = 808;
}
);
locked = 1;
note = mturned;
unicode = 623;
}
{
color = 8;
glyphname = mturnedlongleg;
layers = (
{
layerId = m01;
shapes = (
{
closed = 1;
nodes = (
(555,-234,ls),
(612,-231,o),
(574,-230,o),
(750,-230,c),
(757,-191,l),
(755,-189,l),
(746,-190,o),
(743,-190,o),
(729,-190,cs),
(697,-190,o),
(693,-173,o),
(693,-106,cs),
(693,105,ls),
(693,254,o),
(702,418,o),
(715,452,c),
(709,464,l),
(704,464,o),
(707,463,o),
(680,458,c),
(676,458,o),
(664,454,o),
(659,454,c),
(625,447,o),
(590,440,o),
(555,435,c),
(551,399,l),
(575,400,ls),
(610,400,o),
(625,388,o),
(625,346,cs),
(625,114,l),
(583,81,o),
(540,57,o),
(504,57,cs),
(451,58,o),
(424,90,o),
(424,155,cs),
(424,257,o),
(434,405,o),
(450,452,c),
(444,464,l),
(301,434,l),
(297,397,l),
(303,400,o),
(311,401,o),
(322,401,cs),
(349,401,o),
(359,380,o),
(359,347,cs),
(355,114,l),
(301,74,o),
(272,57,o),
(234,57,cs),
(181,58,o),
(154,90,o),
(154,155,cs),
(154,257,o),
(164,405,o),
(180,452,c),
(174,464,l),
(31,434,l),
(27,397,l),
(33,400,o),
(41,401,o),
(52,401,cs),
(79,401,o),
(89,380,o),
(89,347,cs),
(85,104,ls),
(85,22,o),
(141,-12,o),
(218,-12,cs),
(238,-12,o),
(284,16,o),
(357,71,c),
(359,70,l),
(371,13,o),
(424,-12,o),
(488,-12,cs),
(508,-12,o),
(553,15,o),
(625,69,c),
(622,-135,ls),
(621,-185,o),
(608,-193,o),
(556,-196,c),
(551,-234,l)
);
}
);
width = 788;
}
);
locked = 1;
note = mturnedlongleg;
unicode = 624;
}
{
color = 8;
glyphname = nlefthook;
layers = (
{
layerId = m01;
shapes = (
{
closed = 1;
nodes = (
(46,-241,l),
(123,-199,o),
(171,-120,o),
(173,143,c),
(181,344,l),
(202,360,o),
(257,396,o),
(304,396,cs),
(360,396,o),
(387,355,o),
(387,292,cs),
(383,94,ls),
(383,58,o),
(365,39,o),
(327,29,c),
(323,-12,l),
(333,-10,o),
(389,0,o),
(426,0,cs),
(462,0,o),
(501,-2,o),
(515,-3,c),
(523,40,l),
(521,44,l),
(510,43,o),
(498,42,o),
(486,42,cs),
(462,42,o),
(451,57,o),
(451,98,cs),
(451,159,o),
(465,299,o),
(465,335,cs),
(465,414,o),
(413,464,o),
(328,464,cs),
(296,464,o),
(208,406,o),
(181,388,c),
(179,391,l),
(182,425,o),
(189,452,o),
(190,457,c),
(184,465,l),
(169,461,o),
(116,448,o),
(44,436,c),
(41,403,l),
(44,399,l),
(90,399,o),
(104,391,o),
(104,338,cs),
(104,162,ls),
(104,-69,o),
(92,-160,o),
(30,-214,c),
(28,-222,l)
);
}
);
width = 548;
}
);
locked = 1;
note = nlefthook;
unicode = 626;
}
{
color = 8;
glyphname = nhookretroflex;
layers = (
{
layerId = m01;
shapes = (
{
closed = 1;
nodes = (
(520,-234,o),
(540,-224,o),
(567,-204,cs),
(590,-187,o),
(603,-177,o),
(607,-175,c),
(607,-175,o),
(607,-174,o),
(608,-174,c),
(598,-148,l),
(597,-148,l),
(597,-149,o),
(596,-149,o),
(595,-149,c),
(592,-151,o),
(586,-153,o),
(577,-157,cs),
(563,-163,o),
(547,-166,o),
(530,-166,cs),
(501,-166,o),
(481,-159,o),
(470,-145,cs),
(458,-131,o),
(452,-107,o),
(452,-73,cs),
(452,-31,o),
(452,22,o),
(453,86,cs),
(453,148,o),
(456,197,o),
(459,232,cs),
(463,285,o),
(465,320,o),
(465,335,cs),
(465,374,o),
(453,406,o),
(428,429,cs),
(403,452,o),
(370,464,o),
(328,464,cs),
(312,464,o),
(288,454,o),
(255,435,cs),
(222,415,o),
(197,399,o),
(181,388,c),
(179,391,l),
(180,409,o),
(183,425,o),
(186,438,cs),
(187,446,o),
(189,451,o),
(189,454,c),
(190,456,l),
(190,457,l),
(184,465,o),
(186,465,o),
(182,465,c),
(154,458,l),
(151,458,l),
(151,457,l),
(147,457,l),
(145,456,l),
(118,450,o),
(85,443,o),
(44,436,c),
(41,403,l),
(44,399,l),
(67,399,o),
(82,395,o),
(91,388,cs),
(100,381,o),
(104,364,o),
(104,338,cs),
(104,94,ls),
(104,58,o),
(86,38,o),
(51,35,c),
(46,-6,l),
(70,-2,o),
(103,0,o),
(145,0,cs),
(236,-3,l),
(245,40,l),
(243,44,l),
(232,43,o),
(221,42,o),
(208,42,cs),
(206,42,ls),
(183,42,o),
(172,61,o),
(172,98,cs),
(172,127,o),
(174,185,o),
(178,271,cs),
(181,344,l),
(192,353,o),
(210,364,o),
(234,377,cs),
(257,390,o),
(281,396,o),
(304,396,cs),
(332,396,o),
(353,387,o),
(366,369,cs),
(379,350,o),
(386,325,o),
(387,292,cs),
(386,109,o),
(385,-26,o),
(383,-113,cs),
(383,-158,o),
(393,-189,o),
(412,-207,cs),
(431,-225,o),
(462,-234,o),
(507,-234,cs)
);
}
);
width = 548;
}
);
locked = 1;
note = nretroflexhook;
unicode = 627;
}
{
color = 8;
glyphname = nsmallcapital;
layers = (
{
layerId = m01;
shapes = (
{
closed = 1;
nodes = (
(475,-18,l),
(486,382,ls),
(487,409,o),
(501,423,o),
(537,428,c),
(541,466,l),
(541,466,o),
(494,461,o),
(462,461,cs),
(435,461,o),
(383,463,o),
(383,463,c),
(376,427,l),
(378,424,l),
(388,424,ls),
(415,424,o),
(431,424,o),
(431,393,cs),
(432,124,l),
(427,124,l),
(427,124,o),
(289,308,o),
(184,463,c),
(184,463,o),
(144,461,o),
(127,461,cs),
(102,461,o),
(57,464,o),
(57,464,c),
(50,433,l),
(54,428,l),
(104,424,o),
(119,413,o),
(119,383,cs),
(109,76,ls),
(108,48,o),
(95,34,o),
(62,31,c),
(57,-8,l),
(57,-8,o),
(102,-2,o),
(135,-2,cs),
(167,-2,o),
(219,-5,o),
(219,-5,c),
(227,32,l),
(224,35,l),
(187,34,ls),
(168,34,o),
(162,43,o),
(162,65,cs),
(165,346,l),
(170,346,l),
(170,346,o),
(309,162,o),
(438,-28,c)
);
}
);
width = 585;
}
);
locked = 1;
note = nsmallcapital;
unicode = 628;
}
{
color = 8;
glyphname = obarred;
layers = (
{
layerId = m01;
shapes = (
{
closed = 1;
nodes = (
(388,210,l),
(388,129,o),
(360,36,o),
(263,36,cs),
(185,36,o),
(128,104,o),
(118,208,c)
);
},
{
closed = 1;
nodes = (
(271,256,l),
(117,257,l),
(123,351,o),
(169,410,o),
(242,410,cs),
(316,410,o),
(369,350,o),
(384,260,c)
);
},
{
closed = 1;
nodes = (
(370,-12,o),
(469,99,o),
(469,242,cs),
(469,374,o),
(390,464,o),
(273,464,cs),
(142,464,o),
(38,356,o),
(38,210,cs),
(38,85,o),
(112,-12,o),
(234,-12,cs)
);
}
);
width = 510;
}
);
note = obarred;
unicode = 629;
}
{
color = 8;
glyphname = oesmallcapital;
layers = (
{
layerId = m01;
shapes = (
{
closed = 1;
nodes = (
(179,35,o),
(118,113,o),
(118,239,cs),
(118,347,o),
(179,415,o),
(266,415,cs),
(366,415,o),
(394,396,o),
(394,331,cs),
(393,147,ls),
(392,64,o),
(358,35,o),
(269,35,cs)
);
},
{
closed = 1;
nodes = (
(313,-9,o),
(345,0,o),
(435,0,cs),
(514,0,o),
(666,-5,o),
(666,-5,c),
(671,-1,l),
(679,69,o),
(691,124,o),
(691,124,c),
(688,129,l),
(648,125,l),
(638,53,o),
(624,39,o),
(509,39,cs),
(459,39,o),
(452,43,o),
(452,82,cs),
(455,208,l),
(513,212,l),
(554,212,o),
(616,210,o),
(616,210,c),
(627,258,l),
(624,263,l),
(624,263,o),
(560,255,o),
(533,255,cs),
(457,256,l),
(462,387,ls),
(463,411,o),
(469,413,o),
(512,413,cs),
(611,413,o),
(623,408,o),
(623,364,cs),
(623,353,o),
(621,333,o),
(621,333,c),
(665,337,l),
(671,405,o),
(682,460,o),
(682,460,c),
(680,465,l),
(623,459,o),
(548,454,o),
(449,454,cs),
(373,454,o),
(348,464,o),
(283,464,cs),
(147,464,o),
(41,361,o),
(41,213,cs),
(41,81,o),
(124,-9,o),
(247,-9,cs)
);
}
);
width = 755;
}
);
locked = 1;
note = oesmallcapital;
unicode = 630;
}
{
color = 8;
glyphname = rturnedlongleg;
layers = (
{
layerId = m01;
shapes = (
{
closed = 1;
nodes = (
(201,-4,l),
(336,26,l),
(339,57,l),
(334,64,l),
(331,62,o),
(323,61,o),
(311,61,cs),
(309,61,ls),
(286,61,o),
(275,82,o),
(275,122,cs),
(276,459,ls),
(279,564,o),
(282,633,o),
(286,668,cs),
(290,703,o),
(294,723,o),
(297,729,c),
(291,742,l),
(248,731,o),
(198,721,o),
(143,713,c),
(139,681,l),
(143,678,l),
(164,678,o),
(179,676,o),
(188,671,cs),
(197,666,o),
(201,651,o),
(201,626,cs),
(201,458,l),
(199,155,l),
(184,132,o),
(169,115,o),
(152,104,cs),
(135,93,o),
(120,87,o),
(106,87,cs),
(95,87,o),
(88,92,o),
(84,102,cs),
(81,111,o),
(79,129,o),
(79,155,c),
(40,152,l),
(36,86,o),
(32,60,o),
(24,9,c),
(28,4,o),
(25,5,o),
(35,3,cs),
(40,2,o),
(47,1,o),
(58,1,cs),
(79,1,o),
(103,11,o),
(128,31,cs),
(154,51,o),
(178,77,o),
(199,108,c),
(203,105,l),
(203,53,o),
(200,42,o),
(194,2,c)
);
}
);
width = 383;
}
);
locked = 1;
note = rturnedlongleg;
unicode = 634;
}
{
color = 8;
glyphname = rturnedhook;
layers = (
{
layerId = m01;
shapes = (
{
closed = 1;
nodes = (
(354,-234,o),
(423,-178,o),
(429,-174,c),
(419,-148,l),
(413,-150,o),
(384,-166,o),
(351,-166,cs),
(294,-166,o),
(273,-141,o),
(273,-73,cs),
(276,259,ls),
(280,372,o),
(291,447,o),
(297,459,c),
(291,472,l),
(248,461,o),
(198,451,o),
(143,443,c),
(139,411,l),
(143,408,l),
(189,408,o),
(201,403,o),
(201,356,cs),
(201,258,l),
(199,155,l),
(168,107,o),
(133,87,o),
(106,87,cs),
(82,87,o),
(79,109,o),
(79,155,c),
(40,152,l),
(35,79,o),
(32,57,o),
(24,9,c),
(28,5,o),
(27,5,o),
(30,4,c),
(34,4,o),
(37,1,o),
(58,1,cs),
(97,1,o),
(153,40,o),
(199,108,c),
(203,105,l),
(204,-73,ls),
(204,-188,o),
(229,-234,o),
(328,-234,cs)
);
}
);
width = 396;
}
);
locked = 1;
note = rturnedhook;
unicode = 635;
}
{
color = 8;
glyphname = rtail;
layers = (
{
layerId = m01;
shapes = (
{
closed = 1;
nodes = (
(260,-234,o),
(317,-186,o),
(333,-174,c),
(323,-148,l),
(311,-152,o),
(292,-166,o),
(255,-166,cs),
(200,-166,o),
(177,-142,o),
(177,-76,cs),
(177,23,ls),
(177,146,o),
(179,241,o),
(185,306,c),
(216,354,o),
(251,374,o),
(278,374,cs),
(301,374,o),
(305,360,o),
(305,306,c),
(344,309,l),
(347,357,o),
(352,404,o),
(360,451,c),
(360,457,o),
(350,460,o),
(326,460,cs),
(285,460,o),
(227,417,o),
(185,353,c),
(181,356,l),
(181,387,o),
(184,421,o),
(190,457,c),
(190,460,o),
(190,459,o),
(183,465,c),
(48,435,l),
(45,404,l),
(50,397,l),
(53,399,o),
(60,400,o),
(73,400,cs),
(97,400,o),
(109,380,o),
(109,339,cs),
(109,-80,ls),
(109,-196,o),
(141,-234,o),
(232,-234,cs)
);
}
);
width = 383;
}
);
locked = 1;
note = rtail;
unicode = 637;
}
{
color = 8;
glyphname = rfishhook;
layers = (
{
layerId = m01;
shapes = (
{
closed = 1;
nodes = (
(54,-4,l),
(54,-4,o),
(101,0,o),
(159,0,cs),
(261,-2,l),
(270,42,l),
(269,46,l),
(269,46,o),
(240,44,o),
(225,44,cs),
(187,44,o),
(177,58,o),
(177,102,cs),
(177,116,o),
(184,281,o),
(185,307,cs),
(186,378,o),
(217,414,o),
(278,414,cs),
(302,414,o),
(305,401,o),
(305,326,c),
(344,329,l),
(346,364,o),
(360,452,o),
(360,452,c),
(357,456,l),
(357,456,o),
(348,460,o),
(326,460,cs),
(306,460,o),
(265,454,o),
(203,441,cs),
(140,428,o),
(109,394,o),
(109,339,cs),
(109,119,ls),
(109,63,o),
(102,40,o),
(59,36,c)
);
}
);
width = 383;
}
);
note = rfishhook;
unicode = 638;
}
{
color = 8;
glyphname = rsmallcapital;
layers = (
{
layerId = m01;
shapes = (
{
closed = 1;
nodes = (
(186,241,l),
(186,287,o),
(188,334,o),
(194,409,cs),
(194,422,o),
(196,425,o),
(207,425,cs),
(301,425,o),
(340,393,o),
(340,335,cs),
(340,253,o),
(268,236,o),
(261,234,c)
);
},
{
closed = 1;
nodes = (
(476,-5,l),
(480,24,l),
(476,29,l),
(432,29,o),
(408,55,o),
(384,90,cs),
(305,209,l),
(362,236,o),
(415,281,o),
(415,348,cs),
(415,438,o),
(330,465,o),
(254,465,cs),
(243,465,ls),
(235,464,o),
(226,464,o),
(215,464,cs),
(204,464,o),
(193,464,o),
(181,464,cs),
(170,463,o),
(161,463,o),
(154,463,cs),
(147,463,o),
(139,463,o),
(129,464,cs),
(100,464,ls),
(90,464,o),
(83,464,o),
(76,464,cs),
(67,464,l),
(61,429,l),
(64,425,l),
(73,426,l),
(90,426,ls),
(116,426,o),
(117,411,o),
(117,388,cs),
(116,91,ls),
(116,70,o),
(113,56,o),
(105,49,cs),
(98,42,o),
(83,36,o),
(60,34,c),
(53,-5,l),
(126,-1,l),
(146,-2,l),
(202,-2,l),
(210,-3,o),
(218,-3,o),
(223,-3,cs),
(232,-4,l),
(239,32,l),
(237,35,l),
(221,35,o),
(209,36,o),
(201,39,cs),
(193,42,o),
(188,48,o),
(186,56,cs),
(183,64,o),
(182,76,o),
(182,93,cs),
(184,193,l),
(245,193,l),
(323,56,ls),
(338,29,o),
(369,-12,o),
(404,-12,c)
);
}
);
width = 498;
}
);
note = rsmallcapital;
unicode = 640;
}
{
color = 8;
glyphname = rinvertedsmallcapital;
layers = (
{
layerId = m01;
shapes = (
{
closed = 1;
nodes = (
(261,220,l),
(268,217,o),
(340,200,o),
(340,118,cs),
(340,61,o),
(301,28,o),
(207,28,cs),
(196,28,o),
(194,32,o),
(194,45,cs),
(188,119,o),
(186,167,o),
(186,212,c)
);
},
{
closed = 1;
nodes = (
(476,458,l),
(404,465,l),
(369,465,o),
(338,424,o),
(323,397,cs),
(245,261,l),
(184,261,l),
(182,360,ls),
(182,377,o),
(183,389,o),
(186,397,cs),
(188,406,o),
(193,411,o),
(201,414,cs),
(209,417,o),
(221,418,o),
(237,419,c),
(239,422,l),
(232,457,l),
(223,456,ls),
(218,456,o),
(210,456,o),
(202,455,c),
(146,455,l),
(126,454,l),
(53,458,l),
(60,420,l),
(83,417,o),
(98,411,o),
(105,404,cs),
(113,397,o),
(116,384,o),
(116,362,cs),
(117,65,ls),
(117,43,o),
(116,27,o),
(90,27,cs),
(73,27,l),
(64,28,l),
(61,24,l),
(67,-11,l),
(76,-11,ls),
(83,-10,o),
(90,-10,o),
(100,-10,cs),
(129,-10,ls),
(139,-9,o),
(147,-9,o),
(154,-9,cs),
(161,-9,o),
(170,-9,o),
(181,-10,cs),
(193,-10,o),
(204,-10,o),
(215,-11,cs),
(226,-11,o),
(235,-11,o),
(243,-12,cs),
(254,-12,ls),
(330,-12,o),
(415,15,o),
(415,105,cs),
(415,172,o),
(362,218,o),
(305,244,c),
(384,363,ls),
(408,398,o),
(432,424,o),
(476,424,c),
(480,429,l)
);
}
);
width = 498;
}
);
note = rinvertedsmallcapital;
unicode = 641;
}
{
color = 8;
glyphname = shook;
layers = (
{
layerId = m01;
shapes = (
{
closed = 1;
nodes = (
(188,-234,o),
(208,-224,o),
(235,-204,cs),
(258,-187,o),
(271,-177,o),
(275,-175,c),
(275,-175,o),
(275,-174,o),
(276,-174,c),
(266,-148,l),
(265,-148,l),
(265,-149,o),
(264,-149,o),
(263,-149,c),
(245,-157,ls),
(231,-163,o),
(215,-166,o),
(198,-166,cs),
(169,-166,o),
(145,-159,o),
(124,-145,cs),
(103,-132,o),
(93,-108,o),
(92,-73,cs),
(92,-56,ls),
(92,-29,o),
(94,-2,o),
(96,25,c),
(136,0,o),
(161,-12,o),
(170,-12,cs),
(221,-12,o),
(264,2,o),
(300,31,cs),
(335,60,o),
(353,93,o),
(353,131,cs),
(353,166,o),
(335,196,o),
(298,221,cs),
(273,238,o),
(249,252,o),
(224,265,cs),
(197,279,o),
(174,293,o),
(155,308,cs),
(136,322,o),
(126,340,o),
(126,361,cs),
(126,376,o),
(134,389,o),
(150,400,cs),
(165,411,o),
(184,416,o),
(207,416,cs),
(234,416,o),
(255,411,o),
(269,401,cs),
(282,390,o),
(289,372,o),
(289,347,cs),
(287,318,l),
(324,321,l),
(327,355,o),
(331,384,o),
(336,408,cs),
(343,441,l),
(343,445,o),
(343,444,o),
(341,448,c),
(339,449,ls),
(336,450,o),
(327,455,o),
(314,455,c),
(314,456,l),
(312,456,l),
(293,461,o),
(269,464,o),
(241,464,cs),
(192,464,o),
(149,451,o),
(112,426,cs),
(75,400,o),
(57,365,o),
(57,322,cs),
(57,297,o),
(66,275,o),
(85,255,cs),
(103,234,o),
(130,215,o),
(166,197,cs),
(210,174,o),
(240,156,o),
(257,141,cs),
(274,126,o),
(282,111,o),
(282,94,cs),
(282,77,o),
(273,63,o),
(256,52,cs),
(239,41,o),
(217,35,o),
(192,35,cs),
(156,35,o),
(131,44,o),
(117,63,cs),
(102,82,o),
(95,112,o),
(95,155,c),
(60,150,l),
(60,96,o),
(60,54,o),
(59,25,cs),
(58,-4,o),
(55,-50,o),
(51,-113,cs),
(51,-158,o),
(61,-189,o),
(80,-207,cs),
(99,-225,o),
(130,-234,o),
(175,-234,cs)
);
}
);
width = 402;
}
);
locked = 1;
note = shook;
unicode = 642;
}
{
color = 8;
glyphname = esh;
layers = (
{
layerId = m01;
shapes = (
{
closed = 1;
nodes = (
(92,-231,o),
(196,-141,o),
(196,55,cs),
(196,298,l),
(199,498,ls),
(200,621,o),
(238,683,o),
(314,683,cs),
(355,683,o),
(394,671,o),
(429,646,c),
(440,649,l),
(450,674,o),
(460,696,o),
(471,714,c),
(469,723,l),
(434,736,o),
(396,742,o),
(355,742,cs),
(234,742,o),
(125,658,o),
(125,456,cs),
(125,213,l),
(122,13,ls),
(121,-110,o),
(83,-172,o),
(7,-172,cs),
(-34,-172,o),
(-72,-160,o),
(-108,-135,c),
(-119,-138,l),
(-129,-163,o),
(-139,-185,o),
(-150,-203,c),
(-148,-212,l),
(-113,-225,o),
(-75,-231,o),
(-34,-231,cs)
);
}
);
width = 321;
}
);
locked = 1;
note = esh;
unicode = 643;
}
{
color = 8;
glyphname = jdotlessstrokehook;
layers = (
{
layerId = m01;
shapes = (
{
closed = 1;
nodes = (
(32,-241,l),
(124,-183,o),
(159,-98,o),
(159,-14,cs),
(160,210,l),
(220,208,l),
(228,257,l),
(225,262,l),
(161,257,l),
(163,467,ls),
(164,591,o),
(176,683,o),
(219,683,cs),
(260,683,o),
(292,671,o),
(314,646,c),
(325,649,l),
(335,674,o),
(345,696,o),
(356,714,c),
(354,723,l),
(323,736,o),
(291,742,o),
(260,742,cs),
(182,742,o),
(90,661,o),
(90,408,cs),
(90,255,l),
(20,256,l),
(15,204,l),
(37,207,o),
(62,208,o),
(90,209,c),
(90,38,ls),
(90,-99,o),
(69,-164,o),
(16,-214,c),
(14,-222,l)
);
}
);
width = 301;
}
);
note = jdotlessstrokehook;
unicode = 644;
}
{
color = 8;
glyphname = eshsquatreversed;
layers = (
{
layerId = m01;
shapes = (
{
closed = 1;
nodes = (
(336,-231,o),
(374,-225,o),
(409,-212,c),
(411,-203,l),
(400,-185,o),
(390,-163,o),
(380,-138,c),
(369,-135,l),
(333,-160,o),
(295,-172,o),
(254,-172,cs),
(218,-172,o),
(200,-110,o),
(199,34,cs),
(196,217,ls),
(196,381,o),
(107,465,o),
(26,465,cs),
(-15,465,o),
(-53,459,o),
(-88,446,c),
(-90,437,l),
(-79,419,o),
(-69,397,o),
(-59,372,c),
(-48,369,l),
(-13,394,o),
(26,406,o),
(67,406,cs),
(103,406,o),
(121,344,o),
(122,217,cs),
(125,34,ls),
(125,-141,o),
(209,-231,o),
(295,-231,cs)
);
}
);
width = 321;
}
);
note = eshsquatreversed;
unicode = 645;
}
{
color = 8;
glyphname = tturned;
layers = (
{
layerId = m01;
shapes = (
{
closed = 1;
nodes = (
(101,458,o),
(25,398,o),
(25,398,c),
(35,372,l),
(35,372,o),
(69,390,o),
(103,390,cs),
(160,390,o),
(181,365,o),
(181,297,cs),
(181,189,o),
(178,107,o),
(174,47,c),
(29,50,l),
(20,-3,l),
(23,-6,l),
(170,-3,l),
(166,-52,o),
(162,-78,o),
(162,-78,c),
(182,-86,l),
(182,-86,o),
(240,-28,o),
(306,5,c),
(311,35,l),
(307,41,l),
(264,42,o),
(250,55,o),
(250,91,cs),
(250,337,ls),
(250,426,o),
(215,458,o),
(126,458,cs)
);
}
);
width = 330;
}
);
locked = 1;
note = tturned;
unicode = 647;
}
{
color = 8;
glyphname = tretroflexhook;
layers = (
{
layerId = m01;
shapes = (
{
closed = 1;
nodes = (
(230,-234,o),
(306,-174,o),
(306,-174,c),
(296,-148,l),
(296,-148,o),
(262,-166,o),
(228,-166,cs),
(171,-166,o),
(150,-141,o),
(150,-73,cs),
(150,257,o),
(153,339,o),
(157,399,c),
(302,396,l),
(311,449,l),
(308,452,l),
(161,449,l),
(165,498,o),
(169,524,o),
(169,524,c),
(149,532,l),
(149,532,o),
(91,474,o),
(25,441,c),
(20,411,l),
(24,405,l),
(67,404,o),
(81,391,o),
(81,355,cs),
(81,-113,ls),
(81,-202,o),
(116,-234,o),
(205,-234,cs)
);
}
);
width = 283;
}
);
locked = 1;
note = tretroflexhook;
unicode = 648;
}
{
color = 8;
glyphname = ubar;
layers = (
{
layerId = m01;
shapes = (
{
closed = 1;
nodes = (
(488,-12,o),
(533,61,o),
(538,68,c),
(524,84,l),
(518,80,o),
(494,59,o),
(464,59,cs),
(441,59,o),
(423,73,o),
(423,105,cs),
(423,144,o),
(424,181,o),
(425,218,c),
(490,218,l),
(501,265,l),
(492,275,l),
(471,274,o),
(450,272,o),
(427,272,c),
(430,359,o),
(437,431,o),
(445,452,c),
(439,464,l),
(426,461,o),
(353,445,o),
(285,435,c),
(281,399,l),
(305,400,ls),
(340,400,o),
(355,388,o),
(355,346,cs),
(355,270,l),
(285,269,l),
(157,270,l),
(162,350,o),
(170,421,o),
(180,452,c),
(174,464,l),
(31,434,l),
(27,397,l),
(33,400,o),
(41,401,o),
(52,401,cs),
(79,401,o),
(89,380,o),
(89,347,cs),
(88,270,l),
(38,270,l),
(22,225,l),
(32,216,l),
(87,216,l),
(85,104,ls),
(85,22,o),
(141,-12,o),
(218,-12,cs),
(238,-12,o),
(284,16,o),
(357,71,c),
(362,69,l),
(367,15,o),
(397,-12,o),
(451,-12,cs)
);
},
{
closed = 1;
nodes = (
(181,58,o),
(154,90,o),
(154,155,cs),
(155,217,l),
(355,217,l),
(355,114,l),
(313,81,o),
(270,57,o),
(234,57,cs)
);
}
);
width = 541;
}
);
note = ubar;
unicode = 649;
}
{
color = 8;
glyphname = vhook;
layers = (
{
layerId = m01;
shapes = (
{
closed = 1;
nodes = (
(362,-12,o),
(471,104,o),
(471,371,cs),
(471,443,o),
(426,469,o),
(379,469,cs),
(333,469,o),
(296,393,o),
(292,389,c),
(306,373,l),
(316,378,o),
(333,398,o),
(366,398,cs),
(393,398,o),
(403,381,o),
(403,367,cs),
(403,274,ls),
(403,131,o),
(324,57,o),
(254,57,cs),
(187,57,o),
(154,84,o),
(154,155,cs),
(154,257,o),
(164,405,o),
(180,452,c),
(174,464,l),
(31,434,l),
(27,397,l),
(33,400,o),
(41,401,o),
(52,401,cs),
(79,401,o),
(89,380,o),
(89,347,cs),
(85,104,ls),
(86,27,o),
(137,-12,o),
(238,-12,cs)
);
}
);
width = 508;
}
);
note = vhook;
unicode = 651;
}
{
color = 8;
glyphname = vturned;
layers = (
{
layerId = m01;
shapes = (
{
closed = 1;
nodes = (
(203,442,l),
(60,101,ls),
(37,47,o),
(25,30,o),
(-4,26,c),
(-11,-11,l),
(71,-10,l),
(178,-11,l),
(183,20,l),
(179,26,l),
(141,26,ls),
(109,26,o),
(98,31,o),
(98,50,cs),
(98,74,o),
(134,153,o),
(216,356,c),
(220,356,l),
(220,356,o),
(305,74,o),
(305,45,cs),
(305,26,o),
(289,20,o),
(246,19,c),
(240,-12,l),
(242,-17,l),
(242,-17,o),
(312,-10,o),
(362,-10,cs),
(445,-11,l),
(451,22,l),
(449,26,l),
(415,27,o),
(392,44,o),
(381,76,cs),
(362,132,o),
(259,459,o),
(259,459,c)
);
}
);
width = 445;
}
);
locked = 1;
note = vturned;
unicode = 652;
}
{
color = 8;
glyphname = wturned;
layers = (
{
layerId = m01;
shapes = (
{
closed = 1;
nodes = (
(204,442,l),
(64,101,ls),
(42,47,o),
(30,29,o),
(2,26,c),
(-5,-11,l),
(77,-10,ls),
(127,-10,o),
(176,-12,o),
(176,-12,c),
(181,19,l),
(177,25,l),
(140,25,ls),
(111,25,o),
(99,30,o),
(99,50,cs),
(99,74,o),
(136,154,o),
(215,357,c),
(219,357,l),
(219,357,o),
(302,74,o),
(302,45,cs),
(302,27,o),
(287,22,o),
(245,21,c),
(239,-10,l),
(241,-15,l),
(241,-15,o),
(313,-10,o),
(358,-10,cs),
(438,-11,l),
(444,22,l),
(442,26,l),
(403,26,o),
(385,47,o),
(371,92,c),
(388,142,o),
(424,222,o),
(476,357,c),
(480,357,l),
(480,357,o),
(563,77,o),
(563,45,cs),
(563,26,o),
(548,20,o),
(506,19,c),
(500,-12,l),
(502,-17,l),
(502,-17,o),
(568,-10,o),
(619,-10,cs),
(699,-11,l),
(705,22,l),
(703,26,l),
(670,27,o),
(648,43,o),
(637,76,cs),
(612,152,o),
(519,459,o),
(519,459,c),
(464,442,l),
(354,164,l),
(348,164,l),
(312,279,o),
(258,459,o),
(258,459,c)
);
}
);
width = 705;
}
);
note = wturned;
unicode = 653;
}
{
color = 8;
glyphname = Ysmall;
layers = (
{
layerId = m01;
shapes = (
{
closed = 1;
nodes = (
(115,-9,l),
(124,-7,l),
(178,-2,ls),
(188,-1,o),
(198,-1,o),
(208,-1,cs),
(272,-2,ls),
(283,-3,o),
(292,-3,o),
(300,-3,cs),
(311,-4,l),
(318,35,l),
(316,38,l),
(303,37,ls),
(295,36,o),
(287,36,o),
(280,36,cs),
(251,36,o),
(246,51,o),
(246,77,cs),
(246,83,l),
(248,140,ls),
(248,154,o),
(249,166,o),
(251,176,cs),
(253,185,o),
(257,194,o),
(261,202,cs),
(335,329,ls),
(348,350,o),
(359,367,o),
(367,379,cs),
(386,405,o),
(402,415,o),
(432,421,c),
(437,452,l),
(434,458,l),
(423,458,l),
(395,456,ls),
(384,455,o),
(373,455,o),
(363,455,cs),
(353,455,o),
(342,456,o),
(329,457,cs),
(275,459,l),
(270,427,l),
(272,424,l),
(303,422,o),
(317,416,o),
(317,404,cs),
(317,394,o),
(313,383,o),
(305,369,cs),
(227,228,l),
(222,228,l),
(213,246,ls),
(197,275,o),
(184,304,o),
(171,333,cs),
(163,349,o),
(156,363,o),
(152,376,c),
(146,388,o),
(143,396,o),
(143,400,cs),
(143,408,o),
(147,415,o),
(155,418,cs),
(163,421,o),
(176,424,o),
(197,425,c),
(200,455,l),
(197,460,l),
(122,456,ls),
(109,455,o),
(98,455,o),
(87,455,cs),
(79,455,o),
(70,455,o),
(60,456,cs),
(33,456,ls),
(23,456,o),
(16,456,o),
(11,457,c),
(1,457,l),
(-4,424,l),
(-2,420,l),
(28,417,o),
(48,411,o),
(66,385,cs),
(83,356,o),
(149,230,o),
(159,210,cs),
(175,179,o),
(181,166,o),
(181,131,cs),
(181,103,ls),
(181,85,o),
(180,72,o),
(177,62,cs),
(171,38,o),
(143,32,o),
(120,29,c)
);
}
);
width = 434;
}
);
locked = 1;
note = ysmallcapital;
unicode = 655;
}
{
color = 8;
glyphname = zcurl;
layers = (
{
layerId = m01;
shapes = (
{
closed = 1;
nodes = (
(251,47,o),
(250,54,o),
(250,61,cs),
(250,70,ls),
(251,81,o),
(257,91,o),
(268,102,cs),
(279,113,o),
(293,120,o),
(310,125,cs),
(320,128,o),
(329,130,o),
(338,130,cs),
(347,130,o),
(356,128,o),
(364,125,cs),
(381,119,o),
(391,109,o),
(394,95,c),
(394,90,ls),
(394,85,o),
(393,81,o),
(391,77,cs),
(388,71,o),
(380,63,o),
(368,52,c),
(357,45,o),
(318,42,o),
(252,42,c)
);
},
{
closed = 1;
nodes = (
(310,-103,o),
(318,-100,o),
(324,-94,cs),
(337,-83,o),
(344,-63,o),
(345,-36,c),
(337,-27,l),
(328,-30,o),
(319,-32,o),
(311,-32,cs),
(306,-32,o),
(302,-32,o),
(298,-31,cs),
(285,-29,o),
(275,-23,o),
(267,-13,cs),
(258,1,l),
(341,0,ls),
(372,0,o),
(396,6,o),
(415,16,cs),
(428,24,o),
(438,34,o),
(445,46,cs),
(449,53,o),
(451,61,o),
(451,70,cs),
(451,75,o),
(451,81,o),
(449,88,cs),
(444,107,o),
(433,124,o),
(416,137,cs),
(399,150,o),
(378,158,o),
(354,163,cs),
(345,164,o),
(337,165,o),
(329,165,cs),
(313,165,o),
(297,163,o),
(281,158,cs),
(253,149,o),
(234,135,o),
(224,116,cs),
(216,100,o),
(212,82,o),
(212,59,cs),
(213,40,l),
(129,35,l),
(142,54,ls),
(195,133,o),
(286,257,o),
(415,428,c),
(407,449,l),
(279,452,ls),
(181,454,o),
(160,456,o),
(69,462,c),
(63,457,l),
(63,430,o),
(61,400,o),
(58,365,cs),
(53,309,o),
(52,316,o),
(52,312,c),
(91,318,l),
(94,349,o),
(101,372,o),
(114,386,cs),
(126,399,o),
(149,407,o),
(182,408,cs),
(307,414,l),
(35,23,l),
(45,-2,l),
(97,3,l),
(217,2,l),
(217,-2,o),
(217,-5,o),
(218,-9,cs),
(222,-36,o),
(230,-56,o),
(242,-71,cs),
(255,-86,o),
(269,-96,o),
(285,-100,cs),
(291,-102,o),
(296,-103,o),
(301,-103,cs)
);
}
);
width = 460;
}
);
note = zcurl;
unicode = 657;
}
{
color = 2;
glyphname = ezh;
kernLeft = z;
kernRight = z;
layers = (
{
anchors = (
{
name = bottom;
pos = (226,-218);
},
{
name = top;
pos = (246,450);
}
);
background = {
shapes = (
{
closed = 1;
nodes = (
(46,-2,l),
(98,3,l),
(379,-6,l),
(395,10,l),
(395,82,o),
(412,171,o),
(412,171,c),
(372,166,l),
(358,83,o),
(331,48,o),
(278,44,cs),
(130,35,l),
(159,78,o),
(274,245,o),
(416,428,c),
(408,449,l),
(198,454,l),
(70,462,l),
(64,457,l),
(63,393,o),
(53,312,o),
(53,312,c),
(92,318,l),
(99,385,o),
(118,404,o),
(183,408,c),
(308,414,l),
(36,23,l)
);
}
);
};
layerId = m01;
shapes = (
{
closed = 1;
nodes = (
(325,-231,o),
(432,-140,o),
(432,-23,cs),
(432,87,o),
(339,159,o),
(197,153,c),
(180,153,l),
(175,113,l),
(179,108,l),
(290,116,o),
(349,66,o),
(349,-37,cs),
(349,-129,o),
(301,-179,o),
(214,-179,cs),
(125,-179,o),
(84,-127,o),
(89,-20,c),
(54,-22,l),
(49,-28,l),
(46,-198,l),
(49,-204,l),
(95,-221,o),
(145,-231,o),
(190,-231,cs)
);
},
{
closed = 1;
nodes = (
(222,135,l),
(426,405,l),
(413,452,l),
(220,452,l),
(66,460,l),
(57,452,l),
(56,395,o),
(50,318,o),
(42,257,c),
(86,259,l),
(95,366,o),
(107,385,o),
(166,386,cs),
(374,391,l),
(385,425,l),
(180,153,l)
);
}
);
width = 462;
}
);
locked = 1;
production = uni0292;
unicode = 658;
}
{
color = 8;
glyphname = glottalstop;
layers = (
{
layerId = m01;
shapes = (
{
closed = 1;
nodes = (
(145,-4,l),
(168,-1,o),
(205,0,o),
(257,0,cs),
(371,-2,l),
(378,41,l),
(376,45,l),
(368,45,o),
(349,43,o),
(326,43,cs),
(292,43,o),
(275,61,o),
(275,98,cs),
(278,259,l),
(311,272,o),
(366,306,o),
(389,323,cs),
(417,343,o),
(440,376,o),
(440,497,cs),
(440,621,o),
(334,643,o),
(242,643,cs),
(190,643,o),
(138,635,o),
(91,626,c),
(87,620,l),
(88,554,ls),
(88,508,o),
(87,485,o),
(81,449,c),
(132,454,l),
(136,530,o),
(155,591,o),
(239,591,cs),
(317,590,o),
(356,551,o),
(356,476,cs),
(356,425,o),
(348,375,o),
(339,358,cs),
(311,306,o),
(258,294,o),
(218,284,c),
(207,259,l),
(207,94,ls),
(207,59,o),
(188,40,o),
(150,35,c)
);
}
);
width = 528;
}
);
locked = 1;
note = glottalstopcaseless;
unicode = 660;
}
{
color = 8;
glyphname = glottalstopreversed;
layers = (
{
layerId = m01;
shapes = (
{
closed = 1;
nodes = (
(378,35,l),
(340,40,o),
(321,59,o),
(321,94,cs),
(321,259,l),
(310,284,l),
(270,294,o),
(217,306,o),
(189,358,cs),
(180,375,o),
(172,425,o),
(172,476,cs),
(172,551,o),
(211,590,o),
(289,591,cs),
(373,591,o),
(392,530,o),
(396,454,c),
(447,449,l),
(441,485,o),
(440,508,o),
(440,554,cs),
(441,620,l),
(437,626,l),
(390,635,o),
(338,643,o),
(286,643,cs),
(194,643,o),
(88,621,o),
(88,497,cs),
(88,376,o),
(111,343,o),
(139,323,cs),
(162,306,o),
(217,272,o),
(250,259,c),
(253,98,ls),
(253,61,o),
(236,43,o),
(202,43,cs),
(179,43,o),
(160,45,o),
(152,45,c),
(150,41,l),
(157,-2,l),
(271,0,ls),
(323,0,o),
(360,-1,o),
(383,-4,c)
);
}
);
width = 528;
}
);
locked = 1;
note = pharyngealvoicedfricative;
unicode = 661;
}
{
color = 8;
glyphname = bilabialclick;
layers = (
{
layerId = m01;
shapes = (
{
closed = 1;
nodes = (
(498,-12,o),
(651,134,o),
(651,341,cs),
(651,522,o),
(537,649,o),
(368,649,cs),
(198,649,o),
(39,511,o),
(39,297,cs),
(39,117,o),
(148,-12,o),
(316,-12,cs)
);
},
{
closed = 1;
nodes = (
(219,39,o),
(125,153,o),
(125,329,cs),
(125,482,o),
(209,589,o),
(334,589,cs),
(471,589,o),
(562,469,o),
(562,299,cs),
(562,149,o),
(478,39,o),
(347,39,cs)
);
},
{
closed = 1;
nodes = (
(374,264,o),
(399,289,o),
(399,323,cs),
(399,355,o),
(377,374,o),
(350,374,cs),
(316,374,o),
(291,349,o),
(291,315,cs),
(291,287,o),
(309,264,o),
(340,264,cs)
);
}
);
width = 692;
}
);
locked = 1;
note = bilabialclick;
unicode = 664;
}
{
color = 8;
glyphname = bsmallcapital;
layers = (
{
layerId = m01;
shapes = (
{
closed = 1;
nodes = (
(208,37,o),
(181,47,o),
(181,84,cs),
(184,209,l),
(260,210,l),
(324,199,o),
(355,169,o),
(355,120,cs),
(355,68,o),
(321,37,o),
(263,37,cs)
);
},
{
closed = 1;
nodes = (
(253,250,o),
(186,255,o),
(186,255,c),
(186,290,o),
(186,322,o),
(189,358,cs),
(190,388,o),
(186,421,o),
(205,421,cs),
(288,421,o),
(331,398,o),
(331,337,cs),
(331,264,o),
(265,250,o),
(265,250,c)
);
},
{
closed = 1;
nodes = (
(53,-9,l),
(53,-9,o),
(105,-1,o),
(145,-1,cs),
(186,-1,o),
(224,-8,o),
(250,-8,cs),
(351,-8,o),
(432,55,o),
(432,133,cs),
(432,190,o),
(382,228,o),
(318,240,c),
(367,260,o),
(404,299,o),
(404,351,cs),
(404,425,o),
(345,461,o),
(252,461,c),
(252,461,o),
(182,458,o),
(156,458,cs),
(67,460,l),
(61,425,l),
(64,421,l),
(90,422,ls),
(111,422,o),
(117,413,o),
(117,384,cs),
(116,89,ls),
(116,50,o),
(103,37,o),
(58,29,c)
);
}
);
width = 485;
}
);
note = bsmallcapital;
unicode = 665;
}
{
color = 8;
glyphname = ghooksmallcapital;
layers = (
{
layerId = m01;
shapes = (
{
closed = 1;
nodes = (
(360,-9,o),
(426,18,o),
(439,22,c),
(443,30,l),
(440,45,o),
(439,66,o),
(439,93,cs),
(439,169,o),
(443,194,o),
(463,206,c),
(460,227,l),
(449,224,o),
(426,223,o),
(391,223,cs),
(334,223,o),
(324,225,o),
(293,225,c),
(286,184,l),
(288,181,l),
(306,181,ls),
(370,181,o),
(377,179,o),
(377,143,cs),
(377,61,l),
(369,57,o),
(336,37,o),
(280,37,cs),
(190,37,o),
(120,104,o),
(120,239,cs),
(120,361,o),
(186,417,o),
(290,417,cs),
(368,417,o),
(396,397,o),
(396,356,cs),
(394,317,l),
(439,321,l),
(457,455,ls),
(468,548,o),
(470,584,o),
(520,584,cs),
(538,584,o),
(563,572,o),
(595,547,c),
(606,550,l),
(616,575,o),
(626,597,o),
(637,615,c),
(635,624,l),
(597,637,o),
(569,643,o),
(551,643,cs),
(482,643,o),
(414,600,o),
(390,462,c),
(361,466,o),
(333,468,o),
(307,468,cs),
(151,468,o),
(40,374,o),
(40,215,cs),
(40,70,o),
(134,-9,o),
(263,-9,cs)
);
}
);
width = 567;
}
);
locked = 1;
note = ghooksmallcapital;
unicode = 667;
}
{
color = 8;
glyphname = jcrossedtail;
layers = (
{
layerId = m01;
shapes = (
{
closed = 1;
nodes = (
(-17,-176,o),
(-30,-150,o),
(-30,-121,cs),
(-30,-79,o),
(1,-25,o),
(43,-25,cs),
(71,-25,o),
(84,-33,o),
(84,-81,cs),
(84,-121,o),
(62,-169,o),
(11,-176,c)
);
},
{
closed = 1;
nodes = (
(183,-226,ls),
(202,-220,o),
(214,-206,o),
(220,-183,c),
(221,-174,l),
(221,-170,ls),
(217,-137,o),
(196,-100,o),
(157,-59,c),
(158,-47,o),
(159,-32,o),
(159,-14,cs),
(159,62,o),
(159,128,o),
(160,185,cs),
(161,241,o),
(162,288,o),
(164,326,cs),
(165,364,o),
(167,393,o),
(169,414,cs),
(171,435,o),
(173,447,o),
(176,452,c),
(171,464,l),
(166,464,o),
(162,463,o),
(160,461,cs),
(158,458,o),
(150,457,o),
(137,457,c),
(137,456,l),
(132,456,o),
(129,456,o),
(129,455,c),
(128,454,o),
(126,454,o),
(123,454,c),
(91,447,o),
(59,441,o),
(27,436,c),
(23,399,l),
(30,401,o),
(39,402,o),
(50,402,cs),
(56,402,ls),
(79,402,o),
(90,384,o),
(90,348,cs),
(90,-4,l),
(72,11,o),
(51,18,o),
(27,18,cs),
(3,18,o),
(-17,12,o),
(-33,1,cs),
(-49,-10,o),
(-61,-25,o),
(-69,-42,cs),
(-78,-59,o),
(-82,-77,o),
(-82,-94,cs),
(-82,-131,o),
(-71,-161,o),
(-48,-184,cs),
(-25,-207,o),
(-1,-219,o),
(26,-219,cs),
(53,-219,o),
(76,-212,o),
(93,-198,cs),
(110,-185,o),
(126,-162,o),
(139,-131,cs),
(144,-119,o),
(148,-107,o),
(151,-93,c),
(160,-105,ls),
(171,-122,o),
(176,-137,o),
(177,-148,cs),
(177,-155,o),
(176,-161,o),
(175,-168,cs),
(172,-185,o),
(163,-185,o),
(161,-205,c),
(167,-218,o),
(174,-225,o),
(181,-227,c)
);
},
{
closed = 1;
nodes = (
(159,602,o),
(179,631,o),
(179,661,cs),
(179,698,o),
(154,712,o),
(130,712,cs),
(100,712,o),
(71,692,o),
(71,653,cs),
(71,628,o),
(85,602,o),
(120,602,cs)
);
}
);
width = 250;
}
);
locked = 1;
note = jcrossedtail;
unicode = 669;
}
{
color = 8;
glyphname = kturned;
layers = (
{
layerId = m01;
shapes = (
{
closed = 1;
nodes = (
(469,457,l),
(469,457,o),
(412,451,o),
(370,451,cs),
(333,451,o),
(279,454,o),
(279,454,c),
(270,411,l),
(272,407,l),
(272,407,o),
(294,409,o),
(307,409,cs),
(334,409,o),
(343,391,o),
(343,353,cs),
(343,58,o),
(329,-254,o),
(315,-278,c),
(321,-291,l),
(321,-291,o),
(411,-269,o),
(469,-262,c),
(473,-225,o),
(473,-232,o),
(473,-225,c),
(473,-225,o),
(459,-229,o),
(448,-229,cs),
(423,-229,o),
(411,-211,o),
(411,-175,cs),
(411,316,ls),
(411,386,o),
(413,408,o),
(464,416,c)
);
},
{
closed = 1;
nodes = (
(79,465,o),
(21,449,o),
(21,449,c),
(15,420,l),
(18,415,l),
(58,415,o),
(91,393,o),
(139,333,cs),
(244,198,l),
(158,114,o),
(97,47,o),
(31,29,c),
(23,-2,l),
(26,-7,l),
(26,-7,o),
(84,-1,o),
(121,-1,cs),
(158,-1,o),
(222,-3,o),
(222,-3,c),
(231,26,l),
(228,31,l),
(191,31,o),
(173,37,o),
(173,52,cs),
(173,62,o),
(179,71,o),
(197,87,cs),
(316,201,l),
(318,217,l),
(200,380,ls),
(157,439,o),
(131,465,o),
(95,465,cs)
);
}
);
width = 497;
}
);
locked = 1;
note = kturned;
unicode = 670;
}
{
color = 8;
glyphname = lsmallcapital;
layers = (
{
layerId = m01;
shapes = (
{
closed = 1;
nodes = (
(60,-8,l),
(60,-8,o),
(110,-1,o),
(168,-1,cs),
(245,-1,o),
(373,-7,o),
(373,-7,c),
(378,-2,l),
(391,101,o),
(399,143,o),
(399,143,c),
(396,148,l),
(356,144,l),
(341,54,o),
(323,39,o),
(241,39,cs),
(190,39,o),
(181,46,o),
(181,90,cs),
(181,172,o),
(184,268,o),
(190,363,cs),
(194,408,o),
(194,419,o),
(242,425,c),
(246,463,l),
(246,463,o),
(190,457,o),
(156,457,cs),
(125,457,o),
(73,459,o),
(67,459,c),
(62,424,l),
(65,420,l),
(89,421,ls),
(112,421,o),
(117,413,o),
(117,382,cs),
(116,91,ls),
(116,51,o),
(105,37,o),
(66,31,c)
);
}
);
width = 412;
}
);
locked = 1;
note = lsmallcapital;
unicode = 671;
}
{
color = 8;
glyphname = bilabialpercussive;
layers = (
{
layerId = m01;
shapes = (
{
closed = 1;
nodes = (
(346,-9,l),
(430,207,ls),
(444,239,o),
(451,247,o),
(467,248,c),
(472,280,l),
(416,279,l),
(350,280,l),
(346,252,l),
(348,248,l),
(369,248,ls),
(385,248,o),
(391,245,o),
(391,234,cs),
(391,221,o),
(364,148,o),
(327,53,c),
(322,53,l),
(322,53,o),
(278,217,o),
(278,235,cs),
(278,246,o),
(284,249,o),
(311,250,c),
(316,280,l),
(314,283,l),
(314,283,o),
(274,279,o),
(234,279,cs),
(179,280,l),
(174,250,l),
(175,247,l),
(199,247,o),
(209,239,o),
(215,215,c),
(208,191,o),
(182,120,o),
(156,53,c),
(151,53,l),
(151,53,o),
(107,215,o),
(107,235,cs),
(107,246,o),
(115,250,o),
(140,251,c),
(145,280,l),
(143,284,l),
(143,284,o),
(92,279,o),
(62,279,cs),
(6,280,l),
(2,250,l),
(3,248,l),
(24,247,o),
(37,237,o),
(44,216,cs),
(58,173,o),
(114,-19,o),
(114,-19,c),
(175,-9,l),
(233,150,l),
(239,150,l),
(257,91,o),
(286,-10,o),
(286,-19,c)
);
},
{
closed = 1;
nodes = (
(346,441,l),
(430,657,ls),
(444,689,o),
(451,697,o),
(467,698,c),
(472,730,l),
(416,729,l),
(350,730,l),
(346,702,l),
(348,698,l),
(369,698,ls),
(385,698,o),
(391,695,o),
(391,684,cs),
(391,671,o),
(364,598,o),
(327,503,c),
(322,503,l),
(322,503,o),
(278,667,o),
(278,685,cs),
(278,696,o),
(284,699,o),
(311,700,c),
(316,730,l),
(314,733,l),
(314,733,o),
(274,729,o),
(234,729,cs),
(179,730,l),
(174,700,l),
(175,697,l),
(199,697,o),
(209,689,o),
(215,665,c),
(208,641,o),
(182,570,o),
(156,503,c),
(151,503,l),
(151,503,o),
(107,665,o),
(107,685,cs),
(107,696,o),
(115,700,o),
(140,701,c),
(145,730,l),
(143,734,l),
(143,734,o),
(92,729,o),
(62,729,cs),
(6,730,l),
(2,700,l),
(3,698,l),
(24,697,o),
(37,687,o),
(44,666,cs),
(58,623,o),
(114,431,o),
(114,431,c),
(175,441,l),
(233,600,l),
(239,600,l),
(257,541,o),
(286,440,o),
(286,431,c)
);
}
);
width = 474;
}
);
note = bilabialpercussive;
unicode = 684;
}
{
color = 8;
glyphname = hturnedfishhook;
layers = (
{
layerId = m01;
shapes = (
{
closed = 1;
nodes = (
(385,-292,l),
(428,-281,o),
(478,-271,o),
(533,-263,c),
(537,-231,l),
(533,-228,l),
(487,-228,o),
(475,-223,o),
(475,-176,cs),
(477,202,o),
(479,349,o),
(482,385,cs),
(485,419,o),
(489,441,o),
(493,452,c),
(487,464,l),
(471,459,o),
(340,435,o),
(339,435,c),
(335,399,l),
(358,400,ls),
(394,400,o),
(406,385,o),
(406,346,cs),
(406,284,ls),
(406,225,o),
(405,167,o),
(404,109,c),
(355,72,o),
(312,54,o),
(277,54,cs),
(216,54,o),
(194,102,o),
(194,158,cs),
(196,217,ls),
(196,396,o),
(97,465,o),
(26,465,cs),
(-15,465,o),
(-53,459,o),
(-88,446,c),
(-90,437,l),
(-79,419,o),
(-69,397,o),
(-59,372,c),
(-48,369,l),
(-13,394,o),
(26,406,o),
(67,406,cs),
(103,406,o),
(121,344,o),
(122,221,c),
(118,167,o),
(116,132,o),
(116,115,cs),
(116,20,o),
(180,-14,o),
(253,-14,cs),
(295,-14,o),
(376,43,o),
(403,64,c),
(397,-135,o),
(389,-262,o),
(379,-279,c)
);
}
);
width = 574;
}
);
locked = 1;
note = hturnedfishhook;
unicode = 686;
}
{
color = 8;
glyphname = hturnedfishhooktail;
layers = (
{
layerId = m01;
shapes = (
{
closed = 1;
nodes = (
(550,-234,o),
(607,-186,o),
(623,-174,c),
(613,-148,l),
(601,-152,o),
(582,-166,o),
(545,-166,cs),
(482,-166,o),
(467,-139,o),
(467,-51,cs),
(473,107,o),
(477,220,o),
(478,288,cs),
(481,353,o),
(481,421,o),
(493,452,c),
(487,464,l),
(430,452,o),
(381,442,o),
(339,435,c),
(335,399,l),
(364,400,ls),
(392,400,o),
(406,382,o),
(406,346,cs),
(406,246,o),
(405,167,o),
(404,109,c),
(355,72,o),
(312,54,o),
(277,54,cs),
(213,54,o),
(194,104,o),
(194,158,cs),
(196,217,ls),
(196,415,o),
(82,465,o),
(26,465,cs),
(-15,465,o),
(-53,459,o),
(-88,446,c),
(-90,437,l),
(-79,419,o),
(-69,397,o),
(-59,372,c),
(-48,369,l),
(-13,394,o),
(26,406,o),
(67,406,cs),
(102,406,o),
(121,344,o),
(122,221,c),
(118,167,o),
(116,132,o),
(116,115,cs),
(116,20,o),
(178,-14,o),
(253,-14,cs),
(298,-14,o),
(373,39,o),
(403,64,c),
(403,-51,l),
(402,-80,ls),
(402,-192,o),
(424,-234,o),
(522,-234,cs)
);
}
);
width = 578;
}
);
locked = 1;
note = hturnedfishhooktail;
unicode = 687;
}
{
color = 2;
glyphname = commaturnedmod;
layers = (
{
layerId = m01;
shapes = (
{
closed = 1;
nodes = (
(113,414,o),
(134,427,o),
(155,452,c),
(154,466,l),
(122,476,o),
(101,502,o),
(101,532,cs),
(101,562,o),
(121,601,o),
(152,630,c),
(150,640,l),
(129,651,l),
(69,600,o),
(34,543,o),
(34,497,cs),
(34,451,o),
(60,414,o),
(92,414,cs)
);
}
);
width = 176;
}
);
locked = 1;
production = uni02BB;
unicode = 699;
}
{
color = 2;
glyphname = apostrophemod;
layers = (
{
layerId = m01;
shapes = (
{
closed = 1;
nodes = (
(107,465,o),
(142,522,o),
(142,568,cs),
(142,614,o),
(116,651,o),
(84,651,cs),
(63,651,o),
(42,638,o),
(21,613,c),
(22,599,l),
(54,589,o),
(75,563,o),
(75,533,cs),
(75,503,o),
(55,464,o),
(24,435,c),
(26,425,l),
(47,414,l)
);
}
);
width = 176;
}
);
locked = 1;
production = uni02BC;
unicode = 700;
}
{
color = 2;
glyphname = ringhalfleft;
layers = (
{
background = {
shapes = (
{
closed = 1;
nodes = (
(200,582,l),
(174,582,o),
(152,604,o),
(152,630,cs),
(152,655,o),
(169,669,o),
(200,669,c),
(200,708,l),
(154,708,o),
(120,673,o),
(120,624,cs),
(120,574,o),
(150,544,o),
(200,544,c)
);
}
);
};
layerId = m01;
shapes = (
{
closed = 1;
nodes = (
(159,638,o),
(118,594,o),
(118,535,cs),
(118,481,o),
(155,447,o),
(213,447,c),
(213,492,l),
(181,492,o),
(158,514,o),
(158,549,cs),
(158,578,o),
(176,594,o),
(213,594,c),
(213,638,l)
);
}
);
width = 332;
}
);
locked = 1;
metricLeft = "=ringcomb";
metricRight = "=ringcomb";
production = uni02BF;
unicode = 703;
}
{
color = 2;
glyphname = smod;
kernLeft = smod;
kernRight = smod;
layers = (
{
layerId = m01;
shapes = (
{
closed = 1;
nodes = (
(187,343,o),
(243,385,o),
(243,436,cs),
(243,472,o),
(222,492,o),
(151,527,c),
(116,544,o),
(102,558,o),
(102,576,cs),
(102,593,o),
(121,606,o),
(146,606,cs),
(179,606,o),
(194,593,o),
(194,563,cs),
(194,559,o),
(193,549,o),
(193,549,c),
(224,551,l),
(228,593,o),
(236,631,o),
(236,631,c),
(234,636,l),
(234,636,o),
(204,647,o),
(166,647,cs),
(92,647,o),
(40,608,o),
(40,553,cs),
(40,519,o),
(61,495,o),
(111,471,cs),
(166,444,o),
(180,433,o),
(180,414,cs),
(180,396,o),
(158,383,o),
(130,383,cs),
(90,383,o),
(72,404,o),
(71,451,c),
(41,448,l),
(40,425,o),
(36,380,o),
(33,365,c),
(36,359,l),
(36,359,o),
(68,343,o),
(118,343,cs)
);
}
);
width = 278;
}
);
locked = 1;
production = uni02E2;
unicode = 738;
}
{
color = 2;
glyphname = circumflexcomb;
kernLeft = asterisk;
kernRight = asterisk;
layers = (
{
anchors = (
{
name = _top;
pos = (193,473);
},
{
name = top;
pos = (199,703);
}
);
layerId = m01;
shapes = (
{
closed = 1;
nodes = (
(125,569,o),
(171,603,o),
(199,624,c),
(226,603,o),
(274,568,o),
(321,527,c),
(330,528,l),
(344,550,l),
(279,618,o),
(206,703,o),
(206,703,c),
(192,703,l),
(192,703,o),
(119,618,o),
(54,550,c),
(68,528,l),
(77,527,l)
);
}
);
width = 398;
}
);
locked = 1;
production = uni0302;
unicode = 770;
}
{
color = 2;
glyphname = tildecomb;
layers = (
{
anchors = (
{
name = _top;
pos = (200,452);
},
{
name = top;
pos = (200,608);
}
);
layerId = m01;
shapes = (
{
closed = 1;
nodes = (
(63,547,l),
(63,547,o),
(102,602,o),
(126,602,cs),
(154,602,o),
(239,569,o),
(272,569,c),
(288,573,l),
(364,662,l),
(364,667,l),
(342,688,l),
(336,688,l),
(336,688,o),
(296,633,o),
(273,633,cs),
(245,633,o),
(160,666,o),
(127,666,c),
(111,662,l),
(35,573,l),
(35,568,l),
(57,547,l)
);
}
);
width = 398;
}
);
locked = 1;
unicode = 771;
}
{
color = 2;
glyphname = brevecomb;
kernLeft = asterisk;
kernRight = asterisk;
layers = (
{
anchors = (
{
name = _top;
pos = (199,452);
},
{
name = top;
pos = (199,662);
}
);
layerId = m01;
shapes = (
{
closed = 1;
nodes = (
(268,538,o),
(305,595,o),
(319,652,c),
(303,662,l),
(295,662,l),
(278,618,o),
(241,596,o),
(199,596,cs),
(157,596,o),
(120,618,o),
(103,662,c),
(95,662,l),
(79,652,l),
(93,595,o),
(130,538,o),
(199,538,cs)
);
}
);
width = 398;
}
);
locked = 1;
production = uni0306;
unicode = 774;
}
{
color = 2;
glyphname = dieresiscomb;
kernLeft = asterisk;
kernRight = asterisk;
layers = (
{
anchors = (
{
name = _top;
pos = (199,452);
},
{
name = top;
pos = (199,619);
}
);
layerId = m01;
shapes = (
{
closed = 1;
nodes = (
(306,546,o),
(327,569,o),
(327,596,cs),
(327,618,o),
(313,639,o),
(286,639,cs),
(257,639,o),
(236,616,o),
(236,589,cs),
(236,568,o),
(250,546,o),
(277,546,cs)
);
},
{
closed = 1;
nodes = (
(140,546,o),
(161,569,o),
(161,596,cs),
(161,618,o),
(147,639,o),
(120,639,cs),
(91,639,o),
(70,616,o),
(70,589,cs),
(70,568,o),
(84,546,o),
(111,546,cs)
);
}
);
width = 398;
}
);
locked = 1;
production = uni0308;
unicode = 776;
}
{
color = 2;
glyphname = hookabovecomb;
layers = (
{
anchors = (
{
name = _top;
pos = (198,472);
},
{
name = top;
pos = (188,751);
}
);
background = {
shapes = (
{
closed = 1;
nodes = (
(154,616,o),
(119,640,o),
(103,682,c),
(95,682,l),
(79,672,l),
(96,601,o),
(141,558,o),
(199,558,cs),
(256,558,o),
(301,601,o),
(319,672,c),
(303,682,l),
(295,682,l),
(279,640,o),
(243,616,o),
(199,616,cs)
);
},
{
closed = 1;
nodes = (
(126,758,l),
(126,758,o),
(151,775,o),
(178,775,cs),
(197,775,o),
(210,767,o),
(210,753,cs),
(210,736,o),
(198,721,o),
(163,696,c),
(192,646,l),
(225,661,l),
(206,693,l),
(240,718,o),
(260,747,o),
(260,767,cs),
(260,800,o),
(231,820,o),
(185,820,c),
(150,808,o),
(116,773,o),
(116,773,c)
);
}
);
};
layerId = m01;
shapes = (
{
closed = 1;
nodes = (
(229,576,l),
(208,611,l),
(245,638,o),
(267,670,o),
(267,692,cs),
(267,729,o),
(235,751,o),
(185,751,c),
(146,737,o),
(109,699,o),
(109,699,c),
(120,682,l),
(120,682,o),
(147,701,o),
(177,701,cs),
(198,701,o),
(212,692,o),
(212,677,cs),
(212,658,o),
(199,642,o),
(160,614,c),
(192,559,l)
);
}
);
width = 398;
}
);
locked = 1;
unicode = 777;
}
{
color = 2;
glyphname = hungarumlautcomb;
kernLeft = asterisk;
kernRight = asterisk;
layers = (
{
anchors = (
{
name = _top;
pos = (149,452);
},
{
name = top;
pos = (149,705);
}
);
background = {
shapes = (
{
closed = 1;
nodes = (
(169,664,l),
(136,702,l),
(127,705,l),
(127,705,o),
(53,622,o),
(-13,554,c),
(3,536,l),
(12,534,l),
(91,600,o),
(167,655,o),
(167,655,c)
);
},
{
closed = 1;
nodes = (
(297,664,l),
(264,702,l),
(255,705,l),
(255,705,o),
(181,622,o),
(115,554,c),
(131,536,l),
(140,534,l),
(219,600,o),
(295,655,o),
(295,655,c)
);
}
);
};
layerId = m01;
shapes = (
{
closed = 1;
nodes = (
(334,664,l),
(301,702,l),
(292,705,l),
(292,705,o),
(218,622,o),
(152,554,c),
(168,536,l),
(177,534,l),
(256,600,o),
(332,655,o),
(332,655,c)
);
},
{
closed = 1;
nodes = (
(206,664,l),
(173,702,l),
(164,705,l),
(164,705,o),
(90,622,o),
(24,554,c),
(40,536,l),
(49,534,l),
(128,600,o),
(204,655,o),
(204,655,c)
);
}
);
width = 362;
}
);
locked = 1;
production = uni030B;
unicode = 779;
}
{
color = 2;
glyphname = caroncomb;
kernLeft = asterisk;
kernRight = asterisk;
layers = (
{
anchors = (
{
name = _top;
pos = (199,452);
},
{
name = top;
pos = (199,710);
}
);
layerId = m01;
shapes = (
{
closed = 1;
nodes = (
(206,526,l),
(206,526,o),
(282,615,o),
(351,686,c),
(335,709,l),
(327,710,l),
(277,667,o),
(227,630,o),
(199,609,c),
(170,630,o),
(122,666,o),
(71,710,c),
(63,709,l),
(47,686,l),
(116,615,o),
(192,526,o),
(192,526,c)
);
}
);
width = 398;
}
);
locked = 1;
production = uni030C;
unicode = 780;
}
{
color = 2;
glyphname = breveinvertedcomb;
layers = (
{
anchors = (
{
name = _top;
pos = (178,452);
},
{
name = top;
pos = (178,662);
}
);
layerId = m01;
shapes = (
{
closed = 1;
nodes = (
(220,604,o),
(257,582,o),
(274,538,c),
(282,538,l),
(298,548,l),
(284,605,o),
(247,662,o),
(178,662,cs),
(109,662,o),
(72,605,o),
(58,548,c),
(74,538,l),
(82,538,l),
(99,582,o),
(136,604,o),
(178,604,cs)
);
}
);
width = 356;
}
);
locked = 1;
production = uni0311;
unicode = 785;
}
{
color = 2;
glyphname = horncomb;
layers = (
{
anchors = (
{
name = _topright;
pos = (119,452);
},
{
name = topright;
pos = (119,452);
}
);
background = {
shapes = (
{
closed = 1;
nodes = (
(84,487,o),
(114,505,o),
(114,536,cs),
(114,560,o),
(102,587,o),
(82,606,c),
(84,620,l),
(104,637,o),
(125,646,o),
(142,646,cs),
(173,646,o),
(193,615,o),
(193,568,cs),
(193,499,o),
(128,449,o),
(56,452,c),
(44,487,l)
);
}
);
};
layerId = m01;
shapes = (
{
closed = 1;
nodes = (
(132,447,o),
(193,496,o),
(193,572,cs),
(193,616,o),
(172,646,o),
(142,646,cs),
(124,646,o),
(102,636,o),
(84,620,c),
(82,606,l),
(101,588,o),
(114,560,o),
(114,538,cs),
(114,507,o),
(87,487,o),
(44,487,c),
(44,452,l)
);
}
);
width = 259;
}
);
locked = 1;
production = uni031B;
unicode = 795;
}
{
color = 2;
glyphname = dotbelowcomb;
kernLeft = period;
kernRight = period;
layers = (
{
anchors = (
{
name = _bottom;
pos = (202,0);
},
{
name = bottom;
pos = (200,-192);
}
);
layerId = m01;
shapes = (
{
closed = 1;
nodes = (
(235,-192,o),
(259,-164,o),
(259,-130,cs),
(259,-99,o),
(239,-73,o),
(202,-73,cs),
(164,-73,o),
(140,-101,o),
(140,-135,cs),
(140,-164,o),
(158,-192,o),
(196,-192,cs)
);
}
);
width = 398;
}
);
locked = 1;
unicode = 803;
}
{
color = 2;
glyphname = ogonekcomb;
kernLeft = period;
kernRight = period;
layers = (
{
anchors = (
{
name = _ogonek;
pos = (233,40);
}
);
layerId = m01;
shapes = (
{
closed = 1;
nodes = (
(234,-231,o),
(276,-204,o),
(303,-178,c),
(290,-159,l),
(269,-172,o),
(236,-182,o),
(213,-182,cs),
(177,-182,o),
(155,-160,o),
(155,-125,cs),
(155,-86,o),
(176,-56,o),
(271,42,c),
(229,42,l),
(112,-75,o),
(92,-103,o),
(92,-150,cs),
(92,-204,o),
(137,-241,o),
(203,-241,c)
);
}
);
width = 398;
}
);
locked = 1;
production = uni0328;
unicode = 808;
}
{
color = 2;
glyphname = "lowernumeral-greek";
layers = (
{
layerId = m01;
shapes = (
{
closed = 1;
nodes = (
(122,-158,l),
(122,-158,o),
(112,-50,o),
(116,60,c),
(105,62,l),
(80,48,l),
(59,-54,o),
(45,-164,o),
(45,-164,c),
(52,-172,l)
);
}
);
width = 176;
}
);
locked = 1;
metricLeft = "=|quotesingle";
metricRight = "=|quotesingle";
production = uni0375;
unicode = 885;
}
{
color = 2;
glyphname = Gamma;
kernLeft = H;
kernRight = Gamma;
layers = (
{
anchors = (
{
name = bottomright;
pos = (213,112);
},
{
name = center;
pos = (220,311);
}
);
background = {
shapes = (
{
closed = 1;
nodes = (
(227,548,l),
(228,585,o),
(232,587,o),
(297,587,cs),
(414,587,o),
(426,581,o),
(426,516,cs),
(426,502,o),
(425,463,o),
(424,439,c),
(472,443,l),
(475,511,o),
(483,579,o),
(495,643,c),
(492,649,l),
(433,640,o),
(357,637,o),
(216,637,cs),
(172,637,o),
(111,639,o),
(77,640,c),
(70,596,l),
(72,592,l),
(82,593,o),
(98,594,o),
(106,594,cs),
(136,594,o),
(143,583,o),
(143,540,cs),
(142,120,ls),
(142,64,o),
(126,46,o),
(64,34,c),
(58,-12,l),
(98,-5,o),
(144,0,o),
(172,0,cs),
(208,0,o),
(277,-2,o),
(321,-4,c),
(330,43,l),
(328,47,l),
(306,46,o),
(272,44,o),
(257,44,cs),
(222,44,o),
(213,58,o),
(213,112,c)
);
}
);
};
layerId = m01;
shapes = (
{
closed = 1;
nodes = (
(105,-4,o),
(153,0,o),
(182,0,cs),
(207,0,o),
(254,-2,o),
(321,-4,c),
(330,43,l),
(328,47,l),
(306,46,o),
(272,44,o),
(257,44,cs),
(222,44,o),
(213,58,o),
(213,112,c),
(227,548,l),
(228,585,o),
(232,587,o),
(305,587,cs),
(416,587,o),
(426,581,o),
(426,508,cs),
(426,482,o),
(426,477,o),
(424,439,c),
(472,443,l),
(476,512,o),
(483,577,o),
(495,643,c),
(492,649,l),
(436,640,o),
(366,637,o),
(216,637,cs),
(172,637,o),
(111,639,o),
(77,640,c),
(70,596,l),
(72,592,l),
(89,593,o),
(99,594,o),
(106,594,cs),
(136,594,o),
(143,583,o),
(143,540,cs),
(142,120,ls),
(142,64,o),
(126,46,o),
(64,34,c),
(58,-12,l)
);
}
);
width = 493;
},
{
anchors = (
{
name = bottomright;
pos = (284,170);
},
{
name = center;
pos = (216,295);
}
);
associatedMasterId = m01;
background = {
shapes = (
{
closed = 1;
nodes = (
(296,500,l),
(296,522,o),
(302,527,o),
(330,527,cs),
(389,527,o),
(405,515,o),
(405,472,cs),
(405,434,o),
(399,357,o),
(399,357,c),
(537,365,l),
(542,493,o),
(559,643,o),
(559,643,c),
(546,659,l),
(495,652,o),
(379,647,o),
(265,647,cs),
(174,647,o),
(32,650,o),
(32,650,c),
(23,571,l),
(35,557,l),
(35,557,o),
(50,559,o),
(61,559,cs),
(83,559,o),
(88,548,o),
(88,505,cs),
(87,170,ls),
(87,110,o),
(72,90,o),
(22,82,c),
(13,-10,l),
(13,-10,o),
(121,0,o),
(224,0,cs),
(271,0,o),
(387,-3,o),
(387,-3,c),
(400,105,l),
(384,123,l),
(384,123,o),
(356,115,o),
(326,115,cs),
(292,115,o),
(284,127,o),
(284,175,c)
);
}
);
};
layerId = UUID1;
name = Black;
shapes = (
{
closed = 1;
nodes = (
(77,-4,o),
(164,0,o),
(221,0,cs),
(259,0,o),
(337,-2,o),
(387,-3,c),
(400,105,l),
(384,123,l),
(364,118,o),
(342,115,o),
(326,115,cs),
(292,115,o),
(284,127,o),
(284,170,c),
(296,500,l),
(296,523,o),
(302,527,o),
(334,527,cs),
(390,527,o),
(405,514,o),
(405,468,cs),
(405,448,o),
(402,392,o),
(399,357,c),
(537,365,l),
(540,445,o),
(550,563,o),
(559,643,c),
(546,659,l),
(495,652,o),
(378,647,o),
(267,647,cs),
(198,647,o),
(93,649,o),
(32,650,c),
(23,571,l),
(35,557,l),
(41,558,o),
(54,559,o),
(61,559,cs),
(83,559,o),
(88,549,o),
(88,505,cs),
(87,170,ls),
(87,110,o),
(72,90,o),
(22,82,c),
(13,-10,l)
);
}
);
width = 559;
}
);
locked = 1;
unicode = 915;
}
{
color = 2;
glyphname = Delta;
kernLeft = A;
kernRight = A;
layers = (
{
background = {
shapes = (
{
closed = 1;
nodes = (
(403,338,o),
(319,649,o),
(319,649,c),
(311,649,l),
(248,632,l),
(53,121,l),
(31,65,o),
(12,48,o),
(-25,44,c),
(-33,-3,l),
(-33,-3,o),
(29,0,o),
(77,0,cs),
(143,0,o),
(216,-7,o),
(216,-7,c),
(222,36,l),
(220,40,l),
(163,40,l),
(121,40,o),
(103,52,o),
(103,81,cs),
(103,90,o),
(106,102,o),
(112,120,cs),
(149,224,l),
(172,227,o),
(219,232,o),
(258,232,cs),
(286,232,o),
(338,232,o),
(362,231,c),
(395,122,l),
(401,103,o),
(404,87,o),
(404,74,cs),
(404,50,o),
(384,41,o),
(315,36,c),
(311,-3,l),
(314,-10,l),
(314,-10,o),
(386,0,o),
(463,0,cs),
(497,0,o),
(569,-3,o),
(569,-3,c),
(576,38,l),
(574,42,l),
(516,47,o),
(494,63,o),
(478,113,cs)
);
},
{
closed = 1;
nodes = (
(262,540,l),
(269,540,l),
(348,278,l),
(325,276,o),
(282,273,o),
(255,273,cs),
(167,273,l)
);
}
);
};
layerId = m01;
shapes = (
{
closed = 1;
nodes = (
(502,0,l),
(509,7,l),
(434,232,o),
(319,649,o),
(319,649,c),
(311,649,l),
(248,632,l),
(11,13,l),
(20,0,l)
);
},
{
closed = 1;
nodes = (
(95,61,l),
(91,66,l),
(262,540,l),
(269,540,l),
(409,72,l),
(402,61,l),
(257,57,l)
);
}
);
width = 544;
},
{
associatedMasterId = m01;
background = {
shapes = (
{
closed = 1;
nodes = (
(586,261,o),
(490,646,o),
(490,646,c),
(475,658,l),
(212,642,l),
(53,140,l),
(43,109,o),
(26,91,o),
(2,85,c),
(-5,-2,l),
(-5,-2,o),
(66,-1,o),
(128,-1,cs),
(189,-1,o),
(282,-4,o),
(282,-4,c),
(290,79,l),
(282,89,l),
(256,89,l),
(229,89,o),
(225,92,o),
(225,109,cs),
(225,113,o),
(226,120,o),
(228,131,cs),
(238,175,l),
(264,177,o),
(295,180,o),
(318,180,cs),
(337,180,o),
(368,179,o),
(395,178,c),
(401,139,l),
(402,131,o),
(403,125,o),
(403,121,cs),
(403,95,o),
(400,94,o),
(339,87,c),
(333,3,l),
(341,-6,l),
(341,-6,o),
(437,-1,o),
(532,-1,cs),
(587,-1,o),
(673,-3,o),
(673,-3,c),
(681,76,l),
(674,86,l),
(643,89,o),
(627,108,o),
(615,153,cs)
);
},
{
closed = 1;
nodes = (
(317,478,l),
(339,478,l),
(373,303,l),
(355,302,o),
(336,301,o),
(321,301,cs),
(270,301,l)
);
}
);
};
layerId = UUID1;
name = Black;
shapes = (
{
closed = 1;
nodes = (
(654,0,l),
(663,7,l),
(608,176,o),
(534,450,o),
(488,659,c),
(478,659,l),
(212,642,l),
(12,13,l),
(24,0,l)
);
},
{
closed = 1;
nodes = (
(233,134,l),
(227,142,l),
(316,497,l),
(339,497,l),
(405,146,l),
(398,134,l),
(314,131,l)
);
}
);
width = 675;
}
);
locked = 1;
production = uni0394;
unicode = 916;
}
{
color = 2;
glyphname = Theta;
kernLeft = O;
kernRight = O;
layers = (
{
anchors = (
{
name = bottom;
pos = (315,0);
},
{
name = top;
pos = (324,647);
}
);
background = {
shapes = (
{
closed = 1;
nodes = (
(231,280,o),
(298,286,o),
(328,286,cs),
(375,286,o),
(453,283,o),
(497,282,c),
(514,357,l),
(508,363,l),
(459,355,o),
(392,349,o),
(362,349,cs),
(315,349,o),
(237,352,o),
(193,353,c),
(176,278,l),
(182,272,l)
);
}
);
};
layerId = m01;
shapes = (
{
closed = 1;
nodes = (
(506,-12,o),
(652,142,o),
(652,341,cs),
(652,523,o),
(536,649,o),
(369,649,cs),
(184,649,o),
(40,495,o),
(40,297,cs),
(40,114,o),
(153,-12,o),
(317,-12,cs)
);
},
{
closed = 1;
nodes = (
(217,39,o),
(126,158,o),
(126,329,cs),
(126,483,o),
(211,589,o),
(335,589,cs),
(470,589,o),
(563,470,o),
(563,299,cs),
(563,145,o),
(475,39,o),
(348,39,cs)
);
},
{
closed = 1;
nodes = (
(232,280,o),
(298,286,o),
(328,286,cs),
(374,286,o),
(452,283,o),
(495,282,c),
(512,357,l),
(506,363,l),
(458,355,o),
(392,349,o),
(362,349,cs),
(316,349,o),
(238,352,o),
(195,353,c),
(178,278,l),
(184,272,l)
);
}
);
width = 692;
},
{
anchors = (
{
name = bottom;
pos = (315,0);
},
{
name = top;
pos = (324,647);
}
);
associatedMasterId = m01;
background = {
shapes = (
{
closed = 1;
nodes = (
(510,-12,o),
(636,123,o),
(636,340,cs),
(636,543,o),
(531,656,o),
(343,656,cs),
(139,656,o),
(15,524,o),
(15,308,cs),
(15,106,o),
(122,-12,o),
(307,-12,cs)
);
},
{
closed = 1;
nodes = (
(240,102,o),
(194,180,o),
(194,352,cs),
(194,473,o),
(237,532,o),
(317,532,cs),
(410,532,o),
(456,455,o),
(456,283,cs),
(456,162,o),
(412,102,o),
(330,102,cs)
);
},
{
closed = 1;
nodes = (
(223,343,o),
(220,293,o),
(216,242,c),
(223,235,l),
(273,239,l),
(279,262,o),
(286,270,o),
(318,270,cs),
(329,270,ls),
(360,270,o),
(366,262,o),
(367,236,c),
(425,238,l),
(426,289,o),
(429,342,o),
(434,391,c),
(427,400,l),
(373,395,l),
(367,376,o),
(359,365,o),
(323,365,cs),
(314,365,ls),
(287,365,o),
(283,376,o),
(279,396,c),
(222,391,l)
);
}
);
};
layerId = UUID1;
name = Black;
shapes = (
{
closed = 1;
nodes = (
(510,-12,o),
(636,123,o),
(636,340,cs),
(636,543,o),
(531,656,o),
(343,656,cs),
(139,656,o),
(15,524,o),
(15,308,cs),
(15,106,o),
(122,-12,o),
(307,-12,cs)
);
},
{
closed = 1;
nodes = (
(240,102,o),
(194,180,o),
(194,352,cs),
(194,473,o),
(237,532,o),
(317,532,cs),
(410,532,o),
(456,455,o),
(456,283,cs),
(456,162,o),
(412,102,o),
(330,102,cs)
);
},
{
closed = 1;
nodes = (
(252,250,o),
(297,254,o),
(319,254,cs),
(347,254,o),
(392,252,o),
(418,251,c),
(431,375,l),
(420,389,l),
(398,385,o),
(353,381,o),
(331,381,cs),
(303,381,o),
(258,383,o),
(232,384,c),
(219,261,l),
(230,247,l)
);
}
);
width = 651;
}
);
locked = 1;
metricLeft = "=O";
metricRight = "=O";
unicode = 920;
}
{
color = 2;
glyphname = Lambda;
kernLeft = A;
kernRight = A;
layers = (
{
background = {
shapes = (
{
closed = 1;
nodes = (
(421,338,o),
(337,649,o),
(337,649,c),
(329,649,l),
(266,632,l),
(71,121,l),
(49,65,o),
(30,48,o),
(-7,44,c),
(-15,-3,l),
(-15,-3,o),
(47,0,o),
(95,0,cs),
(161,0,o),
(234,-7,o),
(234,-7,c),
(240,36,l),
(238,40,l),
(181,40,l),
(139,40,o),
(121,52,o),
(121,81,cs),
(121,90,o),
(124,102,o),
(130,120,cs),
(167,224,l),
(190,227,o),
(237,232,o),
(276,232,cs),
(304,232,o),
(356,232,o),
(380,231,c),
(413,122,l),
(419,103,o),
(422,87,o),
(422,74,cs),
(422,50,o),
(402,41,o),
(333,36,c),
(329,-3,l),
(332,-10,l),
(332,-10,o),
(404,0,o),
(481,0,cs),
(515,0,o),
(587,-3,o),
(587,-3,c),
(594,38,l),
(592,42,l),
(534,47,o),
(512,63,o),
(496,113,cs)
);
},
{
closed = 1;
nodes = (
(280,540,l),
(287,540,l),
(366,278,l),
(343,276,o),
(300,273,o),
(273,273,cs),
(185,273,l)
);
}
);
};
layerId = m01;
shapes = (
{
closed = 1;
nodes = (
(332,-10,o),
(404,0,o),
(481,0,cs),
(515,0,o),
(587,-3,o),
(587,-3,c),
(594,38,l),
(592,42,l),
(534,47,o),
(512,63,o),
(496,113,cs),
(421,338,o),
(337,649,o),
(337,649,c),
(329,649,l),
(266,632,l),
(71,121,l),
(49,65,o),
(30,48,o),
(-7,44,c),
(-15,-3,l),
(-15,-3,o),
(47,0,o),
(95,0,cs),
(161,0,o),
(234,-7,o),
(234,-7,c),
(240,36,l),
(238,40,l),
(181,40,l),
(139,40,o),
(121,52,o),
(121,81,cs),
(121,90,o),
(124,102,o),
(130,120,cs),
(280,540,l),
(287,540,l),
(413,122,l),
(419,103,o),
(422,87,o),
(422,74,cs),
(422,50,o),
(402,41,o),
(333,36,c),
(329,-3,l),
(332,-10,l)
);
}
);
width = 584;
},
{
associatedMasterId = m01;
layerId = UUID1;
name = Black;
shapes = (
{
closed = 1;
nodes = (
(341,-6,o),
(437,-1,o),
(532,-1,cs),
(587,-1,o),
(673,-3,o),
(673,-3,c),
(681,76,l),
(674,86,l),
(643,89,o),
(627,108,o),
(615,153,cs),
(586,261,o),
(490,646,o),
(490,646,c),
(475,658,l),
(212,642,l),
(53,140,l),
(43,109,o),
(26,91,o),
(2,85,c),
(-5,-2,l),
(-5,-2,o),
(66,-1,o),
(128,-1,cs),
(189,-1,o),
(282,-4,o),
(282,-4,c),
(290,79,l),
(282,89,l),
(256,89,l),
(229,89,o),
(225,92,o),
(225,109,cs),
(225,113,o),
(226,120,o),
(228,131,c),
(317,478,l),
(339,478,l),
(401,139,l),
(402,131,o),
(403,125,o),
(403,121,cs),
(403,95,o),
(400,94,o),
(339,87,c),
(333,3,l),
(341,-6,l)
);
}
);
width = 676;
}
);
locked = 1;
metricLeft = "=A";
metricRight = "=A";
unicode = 923;
}
{
color = 2;
glyphname = Xi;
kernLeft = Xi;
kernRight = E;
layers = (
{
background = {
shapes = (
{
closed = 1;
nodes = (
(69,589,o),
(64,543,o),
(55,480,c),
(100,485,l),
(123,565,o),
(139,576,o),
(230,576,cs),
(392,576,ls),
(463,576,o),
(473,563,o),
(467,479,c),
(518,483,l),
(520,527,o),
(529,588,o),
(542,643,c),
(539,649,l),
(487,639,o),
(429,636,o),
(293,636,c),
(86,641,l),
(71,627,l)
);
},
{
closed = 1;
nodes = (
(290,2,l),
(522,-3,l),
(537,12,l),
(541,73,o),
(546,124,o),
(551,155,c),
(547,159,l),
(507,155,l),
(485,74,o),
(468,62,o),
(378,62,cs),
(212,62,ls),
(121,62,o),
(103,75,o),
(82,159,c),
(44,153,l),
(41,147,l),
(47,122,o),
(51,75,o),
(53,12,c),
(68,-3,l)
);
},
{
closed = 1;
nodes = (
(131,336,o),
(124,285,o),
(115,241,c),
(118,235,l),
(162,238,l),
(169,283,o),
(181,293,o),
(222,293,cs),
(361,293,ls),
(408,293,o),
(407,283,o),
(403,234,c),
(451,236,l),
(456,289,o),
(464,344,o),
(475,405,c),
(472,410,l),
(426,407,l),
(420,365,o),
(406,353,o),
(367,353,cs),
(228,353,ls),
(186,353,o),
(179,362,o),
(185,408,c),
(138,405,l)
);
}
);
};
layerId = m01;
shapes = (
{
closed = 1;
nodes = (
(290,2,l),
(522,-3,l),
(537,12,l),
(541,73,o),
(546,124,o),
(551,155,c),
(547,159,l),
(507,155,l),
(485,74,o),
(468,62,o),
(378,62,cs),
(212,62,ls),
(121,62,o),
(103,75,o),
(82,159,c),
(44,153,l),
(41,147,l),
(47,123,o),
(51,78,o),
(53,12,c),
(68,-3,l)
);
},
{
closed = 1;
nodes = (
(180,285,o),
(247,291,o),
(277,291,cs),
(324,291,o),
(402,288,o),
(446,287,c),
(463,362,l),
(457,368,l),
(408,360,o),
(341,354,o),
(311,354,cs),
(264,354,o),
(186,357,o),
(142,358,c),
(125,283,l),
(131,277,l)
);
},
{
closed = 1;
nodes = (
(100,486,l),
(123,566,o),
(139,577,o),
(230,577,cs),
(392,577,ls),
(463,577,o),
(473,564,o),
(467,481,c),
(518,484,l),
(520,530,o),
(529,591,o),
(542,644,c),
(539,650,l),
(487,640,o),
(430,637,o),
(293,637,cs),
(86,642,l),
(71,628,l),
(69,590,o),
(64,544,o),
(55,481,c)
);
}
);
width = 596;
},
{
associatedMasterId = m01;
background = {
shapes = (
{
closed = 1;
nodes = (
(323,1,l),
(563,-3,l),
(584,17,l),
(584,72,o),
(588,148,o),
(594,198,c),
(588,205,l),
(477,196,l),
(466,159,o),
(442,146,o),
(387,146,cs),
(243,146,ls),
(188,146,o),
(164,162,o),
(153,207,c),
(43,198,l),
(37,192,l),
(42,135,o),
(46,64,o),
(46,17,c),
(66,-3,l)
);
},
{
closed = 1;
nodes = (
(174,247,o),
(257,252,o),
(299,252,cs),
(350,252,o),
(430,249,o),
(478,248,c),
(496,393,l),
(483,411,l),
(441,406,o),
(358,401,o),
(315,401,cs),
(264,401,o),
(184,403,o),
(136,405,c),
(118,261,l),
(131,243,l)
);
},
{
closed = 1;
nodes = (
(157,451,l),
(173,494,o),
(187,502,o),
(249,502,cs),
(365,502,ls),
(441,502,o),
(456,492,o),
(448,446,c),
(577,454,l),
(582,525,o),
(588,583,o),
(598,644,c),
(586,659,l),
(495,651,o),
(410,647,o),
(354,647,c),
(72,651,l),
(52,631,l),
(50,570,o),
(46,519,o),
(39,446,c)
);
}
);
};
layerId = UUID1;
name = Black;
shapes = (
{
closed = 1;
nodes = (
(328,1,l),
(569,-3,l),
(591,18,l),
(590,72,o),
(594,151,o),
(600,203,c),
(594,210,l),
(474,201,l),
(464,170,o),
(439,157,o),
(389,157,cs),
(247,157,ls),
(197,157,o),
(172,173,o),
(163,213,c),
(43,203,l),
(37,197,l),
(42,136,o),
(46,62,o),
(46,18,c),
(66,-3,l)
);
},
{
closed = 1;
nodes = (
(174,241,o),
(259,246,o),
(302,246,cs),
(354,246,o),
(434,243,o),
(483,242,c),
(501,396,l),
(487,415,l),
(446,411,o),
(361,406,o),
(316,406,cs),
(265,406,o),
(184,408,o),
(136,410,c),
(118,257,l),
(132,238,l)
);
},
{
closed = 1;
nodes = (
(165,445,l),
(180,483,o),
(194,491,o),
(252,491,cs),
(362,491,ls),
(439,491,o),
(443,481,o),
(446,440,c),
(585,449,l),
(590,523,o),
(596,580,o),
(606,642,c),
(593,658,l),
(497,650,o),
(408,646,o),
(362,646,c),
(71,650,l),
(50,629,l),
(48,566,o),
(44,514,o),
(37,440,c)
);
}
);
width = 641;
}
);
locked = 1;
unicode = 926;
}
{
color = 2;
glyphname = Pi;
kernLeft = H;
kernRight = H;
layers = (
{
anchors = (
{
name = bottomright;
pos = (571,106);
}
);
background = {
shapes = (
{
closed = 1;
nodes = (
(25,-7,o),
(114,0,o),
(175,0,cs),
(205,0,o),
(260,-2,o),
(260,-3,c),
(269,43,l),
(267,47,l),
(256,46,o),
(237,44,o),
(222,44,cs),
(187,44,o),
(177,58,o),
(178,112,cs),
(182,291,l),
(249,297,o),
(328,302,o),
(348,302,cs),
(382,302,o),
(454,301,o),
(500,301,c),
(500,150,ls),
(500,62,o),
(487,44,o),
(424,43,c),
(415,-2,l),
(451,-1,o),
(505,0,o),
(530,0,cs),
(562,0,o),
(619,-2,o),
(653,-3,c),
(662,43,l),
(660,47,l),
(649,46,o),
(630,44,o),
(615,44,cs),
(580,44,o),
(571,57,o),
(571,106,cs),
(571,191,o),
(577,389,o),
(585,544,cs),
(587,583,o),
(600,594,o),
(649,601,c),
(653,646,l),
(613,641,o),
(562,637,o),
(533,637,cs),
(501,637,o),
(435,639,o),
(435,640,c),
(428,596,l),
(430,592,l),
(440,593,o),
(455,594,o),
(464,594,cs),
(494,594,o),
(501,583,o),
(501,540,cs),
(500,358,l),
(432,350,o),
(396,348,o),
(352,348,c),
(184,349,l),
(190,511,ls),
(193,583,o),
(200,592,o),
(256,601,c),
(260,646,l),
(224,641,o),
(178,637,o),
(153,637,cs),
(125,637,o),
(73,639,o),
(42,640,c),
(35,596,l),
(37,592,l),
(47,593,o),
(63,594,o),
(71,594,cs),
(101,594,o),
(108,583,o),
(108,540,cs),
(107,120,ls),
(107,64,o),
(91,46,o),
(29,34,c),
(23,-12,l)
);
}
);
};
layerId = m01;
shapes = (
{
closed = 1;
nodes = (
(95,-5,o),
(143,0,o),
(172,0,cs),
(206,0,o),
(267,-2,o),
(303,-3,c),
(312,43,l),
(310,47,l),
(298,46,o),
(275,44,o),
(257,44,cs),
(222,44,o),
(213,58,o),
(213,112,cs),
(213,191,o),
(219,382,o),
(227,538,cs),
(229,576,o),
(253,585,o),
(309,585,c),
(454,585,l),
(484,585,o),
(501,576,o),
(501,534,cs),
(500,117,ls),
(500,65,o),
(481,47,o),
(422,43,c),
(416,0,l),
(530,0,l),
(561,0,o),
(618,-2,o),
(651,-3,c),
(660,42,l),
(658,46,l),
(648,45,o),
(630,44,o),
(615,44,cs),
(580,44,o),
(571,58,o),
(571,112,cs),
(571,194,o),
(577,393,o),
(585,544,cs),
(587,582,o),
(602,594,o),
(657,601,c),
(661,646,l),
(617,641,o),
(570,637,o),
(546,637,cs),
(188,637,ls),
(158,637,o),
(103,639,o),
(69,640,c),
(62,596,l),
(64,592,l),
(83,593,o),
(98,594,o),
(106,594,cs),
(135,594,o),
(143,583,o),
(143,540,cs),
(142,120,ls),
(142,64,o),
(125,46,o),
(62,34,c),
(56,-12,l)
);
}
);
width = 710;
}
);
locked = 1;
metricLeft = "=I";
metricRight = "=I";
unicode = 928;
}
{
color = 2;
glyphname = Sigma;
kernLeft = X;
kernRight = E;
layers = (
{
background = {
shapes = (
{
closed = 1;
nodes = (
(174,138,o),
(175,188,o),
(178,296,c),
(195,299,o),
(225,303,o),
(255,303,cs),
(309,303,o),
(395,300,o),
(395,300,c),
(409,359,l),
(405,364,l),
(405,364,o),
(319,353,o),
(283,353,cs),
(253,353,o),
(202,354,o),
(180,354,c),
(188,548,l),
(189,585,o),
(193,587,o),
(258,587,cs),
(399,587,o),
(411,581,o),
(411,516,cs),
(411,502,o),
(409,473,o),
(409,473,c),
(457,477,l),
(463,569,o),
(480,643,o),
(480,643,c),
(477,649,l),
(411,640,o),
(336,637,o),
(177,637,cs),
(117,637,o),
(38,640,o),
(38,640,c),
(31,596,l),
(33,592,l),
(33,592,o),
(55,594,o),
(67,594,cs),
(97,594,o),
(104,583,o),
(104,540,cs),
(103,120,ls),
(103,63,o),
(85,44,o),
(25,36,c),
(19,-10,l),
(19,-10,o),
(82,0,o),
(158,0,cs),
(253,0,o),
(461,-7,o),
(461,-7,c),
(466,-1,l),
(475,84,o),
(493,167,o),
(493,167,c),
(490,172,l),
(446,167,l),
(430,57,o),
(411,45,o),
(253,45,cs),
(181,45,o),
(174,51,o),
(174,105,cs)
);
}
);
};
layerId = m01;
shapes = (
{
closed = 1;
nodes = (
(113,3,l),
(458,-3,l),
(473,13,l),
(475,66,o),
(484,146,o),
(495,204,c),
(492,208,l),
(449,203,l),
(426,89,o),
(408,71,o),
(313,71,c),
(109,71,l),
(322,313,l),
(324,338,l),
(136,588,l),
(295,588,ls),
(384,588,o),
(417,555,o),
(428,459,c),
(470,467,l),
(464,520,o),
(460,591,o),
(459,640,c),
(449,649,l),
(394,643,o),
(323,639,o),
(274,638,c),
(44,631,l),
(32,597,l),
(253,303,l),
(18,36,l),
(31,-3,l)
);
}
);
width = 556;
},
{
associatedMasterId = m01;
background = {
shapes = (
{
closed = 1;
nodes = (
(587,19,l),
(587,72,o),
(595,175,o),
(606,272,c),
(480,263,l),
(470,185,o),
(445,157,o),
(386,157,cs),
(253,157,l),
(408,321,l),
(408,350,l),
(282,539,l),
(381,539,ls),
(443,539,o),
(470,507,o),
(473,428,c),
(593,445,l),
(588,546,o),
(585,611,o),
(584,648,c),
(573,659,l),
(506,652,o),
(447,648,o),
(392,648,cs),
(56,647,l),
(38,590,l),
(229,302,l),
(20,81,l),
(56,-7,l),
(138,3,l),
(566,-3,l)
);
}
);
};
layerId = UUID1;
name = Black;
shapes = (
{
closed = 1;
nodes = (
(148,3,l),
(566,-3,l),
(587,19,l),
(587,67,o),
(594,160,o),
(603,247,c),
(597,254,l),
(478,245,l),
(468,180,o),
(444,157,o),
(386,157,cs),
(253,157,l),
(408,321,l),
(408,350,l),
(282,539,l),
(381,539,ls),
(443,539,o),
(470,507,o),
(473,428,c),
(593,445,l),
(588,546,o),
(585,611,o),
(584,648,c),
(573,659,l),
(506,652,o),
(447,648,o),
(392,648,cs),
(56,647,l),
(38,590,l),
(229,302,l),
(20,81,l),
(56,-7,l)
);
}
);
width = 630;
}
);
locked = 1;
unicode = 931;
}
{
color = 2;
glyphname = Phi;
kernLeft = Phi;
kernRight = Phi;
layers = (
{
background = {
shapes = (
{
closed = 1;
nodes = (
(267,-5,o),
(315,0,o),
(344,0,cs),
(378,0,o),
(439,-2,o),
(475,-3,c),
(484,40,l),
(482,44,l),
(470,43,o),
(447,41,o),
(429,41,cs),
(393,41,o),
(383,50,o),
(383,94,cs),
(383,171,o),
(389,382,o),
(397,557,cs),
(399,588,o),
(416,598,o),
(471,604,c),
(475,646,l),
(431,641,o),
(384,637,o),
(360,637,cs),
(330,637,o),
(275,639,o),
(241,640,c),
(234,599,l),
(236,595,l),
(255,596,o),
(271,597,o),
(278,597,cs),
(307,597,o),
(317,588,o),
(317,553,cs),
(316,102,ls),
(316,55,o),
(300,43,o),
(234,31,c),
(228,-12,l)
);
},
{
closed = 1;
nodes = (
(349,121,l),
(349,167,l),
(318,167,ls),
(200,167,o),
(131,230,o),
(131,337,cs),
(131,429,o),
(195,482,o),
(307,482,cs),
(349,482,l),
(349,528,l),
(335,528,ls),
(172,528,o),
(60,438,o),
(60,306,cs),
(60,190,o),
(146,121,o),
(291,121,c)
);
},
{
closed = 1;
nodes = (
(369,121,ls),
(532,121,o),
(644,211,o),
(644,343,cs),
(644,459,o),
(558,528,o),
(413,528,c),
(355,528,l),
(355,482,l),
(386,482,ls),
(504,482,o),
(573,419,o),
(573,312,cs),
(573,220,o),
(509,167,o),
(397,167,cs),
(355,167,l),
(355,121,l)
);
}
);
};
layerId = m01;
shapes = (
{
closed = 1;
nodes = (
(267,-35,o),
(315,-30,o),
(344,-30,cs),
(378,-30,o),
(439,-32,o),
(475,-33,c),
(484,13,l),
(482,17,l),
(470,16,o),
(447,14,o),
(429,14,cs),
(394,14,o),
(385,28,o),
(385,82,cs),
(385,165,o),
(391,428,o),
(399,574,cs),
(401,612,o),
(416,624,o),
(471,631,c),
(475,676,l),
(436,671,o),
(388,667,o),
(360,667,cs),
(330,667,o),
(275,669,o),
(241,670,c),
(234,626,l),
(236,622,l),
(249,623,o),
(268,624,o),
(278,624,cs),
(307,624,o),
(315,613,o),
(315,570,cs),
(314,90,ls),
(314,34,o),
(297,16,o),
(234,4,c),
(228,-42,l)
);
},
{
closed = 1;
nodes = (
(349,104,l),
(349,154,l),
(315,154,ls),
(187,154,o),
(112,222,o),
(112,338,cs),
(112,438,o),
(182,495,o),
(303,495,cs),
(349,495,l),
(349,545,l),
(334,545,ls),
(157,545,o),
(33,447,o),
(33,304,cs),
(33,179,o),
(129,104,o),
(286,104,c)
);
},
{
closed = 1;
nodes = (
(370,104,ls),
(547,104,o),
(671,202,o),
(671,345,cs),
(671,470,o),
(575,545,o),
(418,545,c),
(355,545,l),
(355,495,l),
(389,495,ls),
(517,495,o),
(592,427,o),
(592,311,cs),
(592,211,o),
(522,154,o),
(401,154,cs),
(355,154,l),
(355,104,l)
);
}
);
width = 704;
}
);
locked = 1;
unicode = 934;
}
{
color = 2;
glyphname = Psi;
kernLeft = Y;
kernRight = Y;
layers = (
{
anchors = (
{
name = bottom;
pos = (317,0);
},
{
name = ogonek;
pos = (470,40);
},
{
name = top;
pos = (365,647);
}
);
background = {
shapes = (
{
closed = 1;
nodes = (
(339,315,l),
(212,316,o),
(176,375,o),
(135,604,c),
(123,613,l),
(15,589,l),
(20,549,l),
(72,561,o),
(70,539,o),
(85,479,cs),
(128,312,o),
(175,272,o),
(339,272,c)
);
},
{
closed = 1;
nodes = (
(529,272,o),
(585,320,o),
(628,479,cs),
(644,538,o),
(653,552,o),
(676,552,cs),
(684,552,o),
(691,551,o),
(699,550,c),
(704,589,l),
(597,613,l),
(585,604,l),
(544,375,o),
(508,316,o),
(381,315,c),
(381,272,l)
);
},
{
closed = 1;
nodes = (
(407,582,o),
(422,594,o),
(477,601,c),
(481,646,l),
(442,641,o),
(394,637,o),
(366,637,cs),
(336,637,o),
(281,639,o),
(247,640,c),
(240,596,l),
(242,592,l),
(255,593,o),
(274,594,o),
(284,594,cs),
(313,594,o),
(321,583,o),
(321,540,cs),
(320,120,ls),
(320,64,o),
(303,46,o),
(240,34,c),
(234,-12,l),
(273,-5,o),
(321,0,o),
(350,0,cs),
(384,0,o),
(445,-2,o),
(481,-3,c),
(490,43,l),
(488,47,l),
(476,46,o),
(453,44,o),
(435,44,cs),
(400,44,o),
(391,58,o),
(391,112,cs),
(391,195,o),
(398,398,o),
(405,544,cs)
);
}
);
};
layerId = m01;
shapes = (
{
closed = 1;
nodes = (
(273,-5,o),
(321,0,o),
(350,0,cs),
(384,0,o),
(445,-2,o),
(481,-3,c),
(490,43,l),
(488,47,l),
(476,46,o),
(453,44,o),
(435,44,cs),
(400,44,o),
(391,58,o),
(391,112,cs),
(391,195,o),
(398,398,o),
(405,544,cs),
(407,582,o),
(422,594,o),
(477,601,c),
(481,646,l),
(442,641,o),
(394,637,o),
(366,637,cs),
(336,637,o),
(281,639,o),
(247,640,c),
(240,596,l),
(242,592,l),
(255,593,o),
(274,594,o),
(284,594,cs),
(313,594,o),
(321,583,o),
(321,540,cs),
(320,120,ls),
(320,64,o),
(303,46,o),
(240,34,c),
(234,-12,l)
);
},
{
closed = 1;
nodes = (
(339,315,l),
(212,316,o),
(176,375,o),
(135,604,c),
(123,613,l),
(15,589,l),
(20,549,l),
(66,559,o),
(69,544,o),
(79,503,cs),
(128,312,o),
(175,272,o),
(339,272,c)
);
},
{
closed = 1;
nodes = (
(529,272,o),
(585,320,o),
(628,479,cs),
(645,542,o),
(651,559,o),
(699,550,c),
(704,589,l),
(597,613,l),
(585,604,l),
(544,375,o),
(508,316,o),
(381,315,c),
(381,272,l)
);
}
);
width = 716;
},
{
anchors = (
{
name = bottom;
pos = (354,0);
},
{
name = ogonek;
pos = (507,40);
},
{
name = top;
pos = (402,647);
}
);
associatedMasterId = m01;
background = {
shapes = (
{
closed = 1;
nodes = (
(380,330,l),
(256,330,o),
(222,339,o),
(212,603,c),
(199,613,l),
(9,594,l),
(9,520,l),
(41,520,o),
(61,510,o),
(64,472,cs),
(83,257,o),
(168,211,o),
(380,211,c)
);
},
{
closed = 1;
nodes = (
(640,223,o),
(714,275,o),
(739,457,cs),
(748,516,o),
(755,513,o),
(738,511,c),
(741,512,o),
(742,512,o),
(755,511,c),
(801,538,l),
(801,594,l),
(634,611,l),
(598,576,l),
(584,344,o),
(557,333,o),
(431,329,c),
(442,208,l)
);
},
{
closed = 1;
nodes = (
(512,547,o),
(521,555,o),
(565,562,c),
(572,652,l),
(483,649,o),
(424,647,o),
(402,647,cs),
(348,647,o),
(295,647,o),
(243,647,c),
(236,572,l),
(244,558,l),
(250,558,o),
(262,559,o),
(269,559,cs),
(296,559,o),
(303,549,o),
(303,508,cs),
(303,162,ls),
(303,107,o),
(290,87,o),
(228,80,c),
(220,-5,l),
(291,-2,o),
(360,0,o),
(396,0,cs),
(428,0,o),
(515,-2,o),
(573,-4,c),
(582,80,l),
(574,90,l),
(562,88,o),
(545,87,o),
(532,87,cs),
(506,87,o),
(500,100,o),
(500,156,cs),
(500,275,o),
(504,406,o),
(510,510,cs)
);
}
);
};
layerId = UUID1;
name = Black;
shapes = (
{
closed = 1;
nodes = (
(291,-2,o),
(360,0,o),
(396,0,cs),
(428,0,o),
(515,-2,o),
(573,-4,c),
(582,80,l),
(574,90,l),
(562,88,o),
(545,87,o),
(532,87,cs),
(506,87,o),
(500,100,o),
(500,156,cs),
(500,275,o),
(504,406,o),
(510,510,cs),
(512,547,o),
(521,555,o),
(565,562,c),
(572,652,l),
(483,649,o),
(424,647,o),
(402,647,cs),
(348,647,o),
(295,647,o),
(243,647,c),
(236,572,l),
(244,558,l),
(250,558,o),
(262,559,o),
(269,559,cs),
(296,559,o),
(303,549,o),
(303,508,cs),
(303,162,ls),
(303,107,o),
(290,87,o),
(228,80,c),
(220,-5,l)
);
},
{
closed = 1;
nodes = (
(380,327,l),
(256,327,o),
(222,336,o),
(212,600,c),
(199,610,l),
(9,591,l),
(9,517,l),
(41,517,o),
(61,507,o),
(64,469,cs),
(83,254,o),
(168,218,o),
(380,218,c)
);
},
{
closed = 1;
nodes = (
(625,218,o),
(711,260,o),
(740,469,cs),
(745,507,o),
(769,517,o),
(801,517,c),
(801,591,l),
(611,610,l),
(598,600,l),
(588,336,o),
(554,327,o),
(430,327,c),
(430,218,l)
);
}
);
width = 807;
}
);
locked = 1;
unicode = 936;
}
{
color = 2;
glyphname = Omega;
kernLeft = Omega;
kernRight = Omega;
layers = (
{
anchors = (
{
name = bottom;
pos = (401,0);
},
{
name = top;
pos = (401,637);
},
{
name = topleft;
pos = (55,637);
}
);
background = {
shapes = (
{
closed = 1;
nodes = (
(763,10,l),
(764,52,o),
(773,118,o),
(784,164,c),
(741,159,l),
(726,79,o),
(703,56,o),
(639,56,c),
(515,56,l),
(642,124,o),
(716,239,o),
(716,369,cs),
(716,534,o),
(596,649,o),
(424,649,cs),
(246,649,o),
(104,518,o),
(104,353,cs),
(104,239,o),
(171,134,o),
(294,56,c),
(185,56,l),
(120,56,o),
(97,81,o),
(83,164,c),
(42,159,l),
(53,105,o),
(63,46,o),
(61,10,c),
(77,-6,l),
(350,0,l),
(357,8,l),
(344,59,l),
(248,126,o),
(190,239,o),
(190,360,cs),
(190,497,o),
(280,589,o),
(412,589,cs),
(540,589,o),
(627,488,o),
(627,341,cs),
(627,227,o),
(581,146,o),
(469,62,c),
(456,10,l),
(462,1,l),
(747,-6,l)
);
}
);
};
layerId = m01;
shapes = (
{
closed = 1;
nodes = (
(341,0,l),
(348,8,l),
(335,66,l),
(246,128,o),
(188,244,o),
(188,359,cs),
(188,497,o),
(272,589,o),
(397,589,cs),
(523,589,o),
(604,493,o),
(604,343,cs),
(604,232,o),
(558,149,o),
(454,69,c),
(441,10,l),
(447,1,l),
(723,-6,l),
(739,10,l),
(740,52,o),
(748,118,o),
(759,164,c),
(716,159,l),
(701,79,o),
(679,56,o),
(618,56,c),
(512,56,l),
(512,66,l),
(626,134,o),
(693,247,o),
(693,372,cs),
(693,535,o),
(578,649,o),
(413,649,cs),
(238,649,o),
(102,521,o),
(102,357,cs),
(102,247,o),
(164,142,o),
(274,66,c),
(274,56,l),
(181,56,l),
(119,56,o),
(97,81,o),
(83,164,c),
(42,159,l),
(56,88,o),
(62,38,o),
(60,10,c),
(76,-6,l)
);
}
);
width = 801;
},
{
anchors = (
{
name = bottom;
pos = (374,0);
},
{
name = top;
pos = (374,647);
},
{
name = topleft;
pos = (-23,647);
}
);
associatedMasterId = m01;
background = {
anchors = (
{
name = topleft;
pos = (-42,647);
}
);
shapes = (
{
closed = 1;
nodes = (
(233,142,l),
(189,142,ls),
(145,142,o),
(135,149,o),
(116,195,c),
(1,201,l),
(7,139,o),
(13,79,o),
(16,19,c),
(39,-3,l),
(357,0,l),
(367,13,l),
(355,191,l),
(309,235,o),
(291,289,o),
(291,382,cs),
(291,485,o),
(313,522,o),
(374,522,cs),
(435,522,o),
(457,485,o),
(457,382,cs),
(457,289,o),
(439,235,o),
(393,191,c),
(381,13,l),
(391,0,l),
(709,-3,l),
(732,19,l),
(735,79,o),
(741,139,o),
(747,201,c),
(632,195,l),
(613,149,o),
(603,142,o),
(559,142,cs),
(515,142,l),
(515,154,l),
(623,204,o),
(686,284,o),
(686,401,cs),
(686,562,o),
(566,659,o),
(374,659,cs),
(182,659,o),
(62,562,o),
(62,403,cs),
(62,292,o),
(121,207,o),
(233,154,c)
);
}
);
};
layerId = UUID1;
name = Black;
shapes = (
{
closed = 1;
nodes = (
(353,0,l),
(364,13,l),
(355,207,l),
(309,252,o),
(291,303,o),
(291,390,cs),
(291,487,o),
(313,522,o),
(374,522,cs),
(435,522,o),
(457,487,o),
(457,390,cs),
(457,303,o),
(439,252,o),
(393,207,c),
(384,13,l),
(395,0,l),
(683,-3,l),
(705,19,l),
(708,79,o),
(714,139,o),
(720,201,c),
(609,195,l),
(591,149,o),
(581,142,o),
(539,142,cs),
(505,142,l),
(505,154,l),
(626,205,o),
(686,287,o),
(686,401,cs),
(686,561,o),
(567,659,o),
(374,659,cs),
(181,659,o),
(62,561,o),
(62,403,cs),
(62,290,o),
(123,206,o),
(243,154,c),
(243,142,l),
(209,142,ls),
(165,142,o),
(158,149,o),
(139,195,c),
(28,201,l),
(34,139,o),
(40,79,o),
(43,19,c),
(65,-3,l)
);
}
);
width = 748;
}
);
locked = 1;
production = uni03A9;
unicode = 937;
}
{
color = 2;
glyphname = iotatonos;
kernLeft = iota;
kernRight = iota;
layers = (
{
background = {
shapes = (
{
closed = 1;
nodes = (
(287,714,l),
(233,731,l),
(224,728,l),
(224,728,o),
(204,606,o),
(180,503,c),
(207,496,l),
(216,499,l),
(291,704,l)
);
}
);
};
layerId = m01;
shapes = (
{
ref = iota;
},
{
pos = (-68,0);
ref = tonos;
}
);
width = 268;
}
);
locked = 1;
unicode = 943;
}
{
color = 2;
glyphname = alpha;
kernLeft = alpha;
kernRight = alpha;
layers = (
{
anchors = (
{
name = bottom;
pos = (300,0);
},
{
name = top;
pos = (287,452);
}
);
background = {
shapes = (
{
closed = 1;
nodes = (
(261,-10,o),
(361,124,o),
(484,405,c),
(467,429,o),
(451,446,o),
(431,464,c),
(418,459,l),
(346,221,o),
(237,56,o),
(152,56,cs),
(116,56,o),
(97,90,o),
(97,156,cs),
(97,278,o),
(155,375,o),
(228,375,cs),
(283,375,o),
(311,324,o),
(327,197,c),
(377,288,l),
(347,288,l),
(332,377,o),
(282,446,o),
(225,458,c),
(127,458,o),
(48,339,o),
(48,192,cs),
(48,75,o),
(101,-10,o),
(173,-10,cs)
);
},
{
closed = 1;
nodes = (
(478,9,o),
(500,38,o),
(510,83,c),
(507,91,l),
(405,71,o),
(361,102,o),
(365,193,cs),
(366,214,l),
(319,128,l),
(338,116,l),
(339,38,o),
(377,-6,o),
(443,-8,c)
);
}
);
};
layerId = m01;
shapes = (
{
closed = 1;
nodes = (
(254,-10,o),
(365,134,o),
(484,405,c),
(467,428,o),
(452,445,o),
(431,464,c),
(418,459,l),
(346,221,o),
(237,56,o),
(152,56,cs),
(116,56,o),
(97,90,o),
(97,156,cs),
(97,278,o),
(155,375,o),
(228,375,cs),
(283,375,o),
(311,324,o),
(327,197,c),
(377,288,l),
(347,288,l),
(332,377,o),
(282,446,o),
(225,458,c),
(127,458,o),
(48,339,o),
(48,192,c),
(48,79,o),
(99,-10,o),
(163,-10,cs)
);
},
{
closed = 1;
nodes = (
(478,9,o),
(500,38,o),
(510,83,c),
(507,91,l),
(405,71,o),
(361,102,o),
(365,193,cs),
(366,214,l),
(319,128,l),
(338,116,l),
(339,38,o),
(377,-6,o),
(443,-8,c)
);
}
);
width = 540;
},
{
anchors = (
{
name = bottom;
pos = (276,0);
},
{
name = top;
pos = (254,472);
}
);
associatedMasterId = m01;
background = {
shapes = (
{
closed = 1;
nodes = (
(262,-2,o),
(343,89,o),
(502,356,c),
(472,413,o),
(441,452,o),
(402,481,c),
(388,479,l),
(326,323,o),
(182,154,o),
(115,154,cs),
(107,154,o),
(104,160,o),
(104,172,cs),
(104,238,o),
(176,309,o),
(241,309,cs),
(284,309,o),
(288,275,o),
(301,231,c),
(418,358,l),
(313,357,l),
(292,416,o),
(252,457,o),
(193,475,c),
(95,475,o),
(11,365,o),
(11,231,cs),
(11,105,o),
(85,-2,o),
(178,-2,cs)
);
},
{
closed = 1;
nodes = (
(471,27,o),
(502,79,o),
(515,149,c),
(502,165,l),
(408,142,o),
(363,149,o),
(364,189,cs),
(365,226,l),
(296,97,l),
(327,82,l),
(337,27,o),
(370,0,o),
(424,-3,c)
);
}
);
};
layerId = UUID1;
name = Black;
shapes = (
{
closed = 1;
nodes = (
(245,-2,o),
(341,100,o),
(502,356,c),
(472,413,o),
(441,452,o),
(402,481,c),
(388,479,l),
(324,324,o),
(177,134,o),
(121,134,cs),
(109,134,o),
(104,142,o),
(104,160,cs),
(104,228,o),
(178,309,o),
(241,309,cs),
(283,309,o),
(288,276,o),
(301,231,c),
(418,358,l),
(316,357,l),
(292,417,o),
(251,457,o),
(193,475,c),
(94,475,o),
(11,364,o),
(11,231,cs),
(11,106,o),
(83,-2,o),
(165,-2,cs)
);
},
{
closed = 1;
nodes = (
(471,27,o),
(502,79,o),
(515,149,c),
(502,165,l),
(405,142,o),
(363,149,o),
(364,189,cs),
(365,226,l),
(296,97,l),
(323,87,l),
(337,28,o),
(369,0,o),
(424,-3,c)
);
}
);
width = 519;
}
);
locked = 1;
unicode = 945;
}
{
color = 2;
glyphname = beta;
kernLeft = h;
kernRight = beta;
layers = (
{
background = {
shapes = (
{
closed = 1;
nodes = (
(126,-235,o),
(147,-232,o),
(165,-226,c),
(142,86,l),
(142,366,l),
(146,590,o),
(191,680,o),
(298,680,cs),
(342,680,o),
(368,663,o),
(368,616,cs),
(368,548,o),
(329,476,o),
(215,335,c),
(245,285,l),
(362,413,o),
(416,511,o),
(416,588,cs),
(416,677,o),
(344,740,o),
(257,740,cs),
(154,740,o),
(94,651,o),
(91,492,cs),
(78,-226,l),
(89,-237,l)
);
},
{
closed = 1;
nodes = (
(390,-12,o),
(485,74,o),
(485,181,cs),
(485,324,o),
(318,420,o),
(199,355,c),
(197,345,l),
(207,323,o),
(219,303,o),
(233,285,c),
(245,285,l),
(327,348,o),
(417,315,o),
(417,221,cs),
(417,73,o),
(238,9,o),
(129,118,c),
(129,33,l),
(153,42,l),
(234,-6,o),
(239,-12,o),
(271,-12,cs)
);
}
);
};
layerId = m01;
shapes = (
{
closed = 1;
nodes = (
(127,-234,o),
(150,-230,o),
(169,-223,c),
(145,86,l),
(145,365,l),
(150,583,o),
(196,673,o),
(300,673,cs),
(348,673,o),
(369,653,o),
(369,608,cs),
(369,546,o),
(329,474,o),
(216,335,c),
(248,282,l),
(365,407,o),
(419,505,o),
(419,583,cs),
(419,669,o),
(350,737,o),
(259,737,cs),
(155,737,o),
(95,649,o),
(92,490,cs),
(78,-225,l),
(89,-236,l)
);
},
{
closed = 1;
nodes = (
(392,-12,o),
(488,69,o),
(488,177,cs),
(488,319,o),
(322,421,o),
(201,356,c),
(199,346,l),
(209,322,o),
(221,302,o),
(236,282,c),
(248,282,l),
(333,345,o),
(418,314,o),
(418,218,cs),
(418,80,o),
(235,15,o),
(126,120,c),
(126,32,l),
(156,44,l),
(189,20,o),
(222,2,o),
(258,-12,c)
);
}
);
width = 515;
},
{
associatedMasterId = m01;
background = {
shapes = (
{
closed = 1;
nodes = (
(112,-233,o),
(171,-218,o),
(231,-191,c),
(169,87,l),
(174,369,ls),
(176,478,o),
(253,582,o),
(330,582,cs),
(347,582,o),
(355,578,o),
(355,566,cs),
(355,533,o),
(296,455,o),
(203,364,c),
(269,247,l),
(416,370,o),
(465,436,o),
(465,517,cs),
(465,639,o),
(359,737,o),
(229,737,cs),
(123,737,o),
(78,669,o),
(68,499,cs),
(27,-220,l),
(51,-238,l)
);
},
{
closed = 1;
nodes = (
(427,-6,o),
(514,62,o),
(514,170,cs),
(514,330,o),
(319,468,o),
(187,400,c),
(182,386,l),
(206,332,o),
(228,293,o),
(255,247,c),
(269,247,l),
(343,292,o),
(399,296,o),
(399,257,cs),
(399,186,o),
(227,140,o),
(108,176,c),
(108,20,l),
(181,71,l),
(212,43,o),
(248,16,o),
(287,-6,c)
);
}
);
};
layerId = UUID1;
name = Black;
shapes = (
{
closed = 1;
nodes = (
(111,-234,o),
(170,-219,o),
(226,-192,c),
(166,87,l),
(171,371,ls),
(173,486,o),
(248,588,o),
(325,588,cs),
(340,588,o),
(346,583,o),
(346,570,cs),
(346,536,o),
(289,459,o),
(198,365,c),
(266,250,l),
(408,372,o),
(454,440,o),
(454,522,cs),
(454,642,o),
(352,741,o),
(225,741,cs),
(120,741,o),
(77,674,o),
(68,502,cs),
(27,-222,l),
(50,-239,l)
);
},
{
closed = 1;
nodes = (
(420,-6,o),
(504,62,o),
(504,172,cs),
(504,331,o),
(316,465,o),
(188,397,c),
(182,383,l),
(205,333,o),
(222,302,o),
(252,250,c),
(266,250,l),
(338,295,o),
(392,298,o),
(392,256,cs),
(392,184,o),
(225,137,o),
(108,175,c),
(108,20,l),
(179,70,l),
(210,42,o),
(245,17,o),
(283,-6,c)
);
}
);
width = 511;
}
);
locked = 1;
unicode = 946;
}
{
color = 2;
glyphname = gamma;
kernLeft = gamma;
kernRight = gamma;
layers = (
{
background = {
shapes = (
{
closed = 1;
nodes = (
(248,-213,l),
(251,-24,o),
(244,91,o),
(222,219,cs),
(194,382,o),
(148,458,o),
(67,458,c),
(34,437,o),
(18,399,o),
(18,347,c),
(24,341,l),
(125,386,o),
(151,364,o),
(177,212,cs),
(190,136,o),
(195,83,o),
(197,-3,c),
(210,55,l),
(154,-72,o),
(147,-98,o),
(138,-198,c),
(179,-234,l),
(196,-236,l)
);
},
{
closed = 1;
nodes = (
(299,114,o),
(374,255,o),
(453,390,c),
(444,420,o),
(429,444,o),
(407,460,c),
(391,460,l),
(341,353,o),
(289,244,o),
(243,133,c),
(218,134,l),
(228,-35,l)
);
}
);
};
layerId = m01;
shapes = (
{
closed = 1;
nodes = (
(248,-213,l),
(251,-24,o),
(244,91,o),
(222,219,cs),
(193,385,o),
(146,458,o),
(67,458,c),
(34,437,o),
(18,399,o),
(18,347,c),
(24,341,l),
(128,379,o),
(152,359,o),
(177,212,cs),
(190,136,o),
(195,83,o),
(197,-3,c),
(210,55,l),
(154,-72,o),
(147,-98,o),
(138,-198,c),
(179,-234,l),
(196,-236,l)
);
},
{
closed = 1;
nodes = (
(297,118,o),
(373,257,o),
(453,390,c),
(444,420,o),
(429,444,o),
(407,460,c),
(391,460,l),
(341,353,o),
(289,244,o),
(243,133,c),
(218,134,l),
(225,-29,l)
);
}
);
width = 473;
},
{
associatedMasterId = m01;
background = {
shapes = (
{
closed = 1;
nodes = (
(266,-224,l),
(271,-100,o),
(255,90,o),
(228,222,cs),
(193,389,o),
(138,477,o),
(67,477,c),
(28,430,o),
(3,378,o),
(-7,319,c),
(12,299,l),
(116,305,o),
(126,299,o),
(151,204,cs),
(161,166,o),
(170,98,o),
(173,27,c),
(214,144,l),
(132,-29,o),
(121,-69,o),
(117,-186,c),
(166,-235,l),
(194,-239,l)
);
},
{
closed = 1;
nodes = (
(348,162,o),
(411,286,o),
(470,393,c),
(432,434,o),
(395,461,o),
(353,480,c),
(337,478,l),
(295,368,o),
(268,294,o),
(244,225,c),
(205,232,l),
(245,-44,l)
);
}
);
};
layerId = UUID1;
name = Black;
shapes = (
{
closed = 1;
nodes = (
(277,-224,l),
(280,-101,o),
(260,90,o),
(231,222,cs),
(194,389,o),
(136,477,o),
(64,477,c),
(26,430,o),
(2,378,o),
(-7,318,c),
(12,298,l),
(117,304,o),
(127,298,o),
(154,204,cs),
(165,167,o),
(175,98,o),
(179,28,c),
(219,146,l),
(131,-38,o),
(110,-91,o),
(118,-196,c),
(177,-235,l),
(206,-239,l)
);
},
{
closed = 1;
nodes = (
(357,175,o),
(420,295,o),
(479,396,c),
(434,435,o),
(393,462,o),
(344,480,c),
(328,478,l),
(290,368,o),
(266,295,o),
(246,227,c),
(208,231,l),
(253,-24,l)
);
}
);
width = 468;
}
);
locked = 1;
unicode = 947;
}
{
color = 2;
glyphname = delta;
kernLeft = o;
kernRight = delta;
layers = (
{
background = {
shapes = (
{
closed = 1;
nodes = (
(354,-12,o),
(442,86,o),
(442,214,cs),
(442,426,o),
(197,578,o),
(197,646,cs),
(197,657,o),
(202,663,o),
(212,663,cs),
(248,663,o),
(395,583,o),
(482,515,c),
(495,534,l),
(447,636,o),
(364,704,o),
(249,739,c),
(183,731,o),
(148,702,o),
(148,655,cs),
(148,536,o),
(373,439,o),
(373,247,cs),
(373,139,o),
(302,54,o),
(213,54,cs),
(146,54,o),
(105,101,o),
(105,176,cs),
(105,277,o),
(179,358,o),
(271,358,cs),
(307,358,o),
(342,345,o),
(377,319,c),
(339,411,l),
(319,392,l),
(291,405,o),
(264,415,o),
(236,421,c),
(116,421,o),
(37,338,o),
(37,214,cs),
(37,85,o),
(123,-12,o),
(238,-12,cs)
);
}
);
};
layerId = m01;
shapes = (
{
closed = 1;
nodes = (
(351,-7,o),
(437,90,o),
(437,216,cs),
(437,436,o),
(172,581,o),
(169,643,cs),
(169,653,o),
(175,660,o),
(186,660,cs),
(229,660,o),
(359,599,o),
(460,532,c),
(473,552,l),
(419,651,o),
(333,714,o),
(216,743,c),
(154,732,o),
(120,704,o),
(120,660,cs),
(120,536,o),
(366,450,o),
(366,245,cs),
(366,141,o),
(299,57,o),
(210,57,cs),
(143,57,o),
(102,105,o),
(102,183,cs),
(102,282,o),
(174,364,o),
(266,364,cs),
(300,364,o),
(331,352,o),
(366,331,c),
(323,420,l),
(304,401,l),
(275,412,o),
(248,421,o),
(220,425,c),
(105,419,o),
(32,338,o),
(32,222,cs),
(32,89,o),
(120,-7,o),
(234,-7,cs)
);
}
);
width = 498;
}
);
locked = 1;
unicode = 948;
}
{
color = 2;
glyphname = epsilon;
kernLeft = epsilon;
kernRight = epsilon;
layers = (
{
anchors = (
{
name = top;
pos = (224,452);
}
);
background = {
shapes = (
{
closed = 1;
nodes = (
(276,-4,o),
(317,14,o),
(355,37,c),
(369,64,o),
(375,92,o),
(376,119,c),
(369,123,l),
(244,44,o),
(101,46,o),
(101,125,cs),
(101,175,o),
(186,207,o),
(310,204,c),
(319,266,l),
(310,274,l),
(171,270,o),
(50,188,o),
(50,98,cs),
(50,29,o),
(112,-12,o),
(233,-12,c)
);
},
{
closed = 1;
nodes = (
(208,248,l),
(149,251,o),
(118,270,o),
(118,302,cs),
(118,374,o),
(228,415,o),
(337,385,c),
(346,392,l),
(343,413,o),
(336,433,o),
(324,452,c),
(191,486,o),
(56,428,o),
(56,336,cs),
(56,234,o),
(188,164,o),
(310,204,c)
);
}
);
};
layerId = m01;
shapes = (
{
closed = 1;
nodes = (
(281,-4,o),
(323,15,o),
(361,37,c),
(371,65,o),
(378,90,o),
(380,117,c),
(373,121,l),
(312,85,o),
(245,67,o),
(194,67,cs),
(141,67,o),
(103,88,o),
(103,125,cs),
(103,175,o),
(191,206,o),
(316,203,c),
(322,224,o),
(324,246,o),
(324,267,c),
(315,274,l),
(176,271,o),
(50,188,o),
(50,96,cs),
(50,28,o),
(113,-12,o),
(238,-12,c)
);
},
{
closed = 1;
nodes = (
(268,192,o),
(292,195,o),
(316,203,c),
(217,246,l),
(157,250,o),
(125,269,o),
(125,299,cs),
(125,354,o),
(192,390,o),
(271,390,cs),
(295,390,o),
(320,387,o),
(346,380,c),
(355,387,l),
(354,408,o),
(350,429,o),
(344,449,c),
(316,457,o),
(290,459,o),
(262,459,cs),
(154,459,o),
(59,407,o),
(59,332,cs),
(59,251,o),
(145,192,o),
(244,192,cs)
);
}
);
width = 421;
},
{
anchors = (
{
name = top;
pos = (214,472);
}
);
associatedMasterId = m01;
background = {
shapes = (
{
closed = 1;
nodes = (
(301,2,o),
(349,24,o),
(389,54,c),
(404,92,o),
(415,132,o),
(419,172,c),
(407,182,l),
(355,163,o),
(263,150,o),
(195,150,cs),
(152,150,o),
(127,156,o),
(127,166,cs),
(127,188,o),
(252,204,o),
(350,196,c),
(356,228,o),
(358,259,o),
(355,291,c),
(344,302,l),
(207,331,o),
(17,218,o),
(17,108,cs),
(17,34,o),
(100,-7,o),
(246,-7,c)
);
},
{
closed = 1;
nodes = (
(306,185,o),
(327,188,o),
(350,196,c),
(328,265,l),
(226,265,o),
(158,281,o),
(158,305,cs),
(158,325,o),
(205,339,o),
(272,339,cs),
(323,339,o),
(370,331,o),
(402,317,c),
(412,324,l),
(406,366,o),
(395,405,o),
(379,447,c),
(340,467,o),
(291,479,o),
(238,479,cs),
(115,479,o),
(15,422,o),
(15,350,cs),
(15,270,o),
(153,185,o),
(282,185,cs)
);
}
);
};
layerId = UUID1;
name = Black;
shapes = (
{
closed = 1;
nodes = (
(311,2,o),
(353,23,o),
(389,54,c),
(405,94,o),
(415,134,o),
(419,172,c),
(407,182,l),
(356,164,o),
(265,150,o),
(195,150,cs),
(152,150,o),
(127,156,o),
(127,166,cs),
(127,188,o),
(249,204,o),
(350,196,c),
(356,230,o),
(358,261,o),
(355,291,c),
(344,302,l),
(208,331,o),
(17,214,o),
(17,103,cs),
(17,31,o),
(103,-7,o),
(266,-7,c)
);
},
{
closed = 1;
nodes = (
(308,185,o),
(329,188,o),
(350,196,c),
(328,265,l),
(226,265,o),
(158,281,o),
(158,305,cs),
(158,325,o),
(205,339,o),
(272,339,cs),
(323,339,o),
(370,331,o),
(402,317,c),
(412,324,l),
(406,366,o),
(395,405,o),
(379,447,c),
(346,468,o),
(303,479,o),
(258,479,cs),
(120,479,o),
(15,425,o),
(15,355,cs),
(15,274,o),
(155,185,o),
(282,185,cs)
);
}
);
width = 434;
}
);
locked = 1;
unicode = 949;
}
{
color = 2;
glyphname = zeta;
kernLeft = zeta;
kernRight = zeta;
layers = (
{
background = {
shapes = (
{
closed = 1;
nodes = (
(246,-142,o),
(295,-91,o),
(295,-9,cs),
(295,55,o),
(269,94,o),
(207,109,cs),
(114,132,o),
(84,141,o),
(84,190,cs),
(84,260,o),
(154,377,o),
(354,653,c),
(351,664,l),
(295,706,l),
(284,707,l),
(116,461,o),
(45,320,o),
(45,199,cs),
(45,92,o),
(95,47,o),
(186,25,cs),
(238,12,o),
(252,9,o),
(252,-11,cs),
(252,-41,o),
(218,-60,o),
(108,-90,c),
(103,-103,l),
(143,-179,l)
);
},
{
closed = 1;
nodes = (
(181,595,o),
(217,604,o),
(256,617,c),
(254,637,l),
(144,614,o),
(93,647,o),
(136,731,c),
(122,738,l),
(78,719,o),
(53,688,o),
(53,657,cs),
(53,617,o),
(93,590,o),
(143,590,c)
);
}
);
};
layerId = m01;
shapes = (
{
closed = 1;
nodes = (
(262,-142,o),
(316,-91,o),
(316,-9,cs),
(316,55,o),
(289,94,o),
(223,109,cs),
(118,133,o),
(84,141,o),
(84,190,cs),
(84,260,o),
(160,377,o),
(383,653,c),
(380,664,l),
(363,681,o),
(345,695,o),
(324,706,c),
(313,707,l),
(125,461,o),
(45,320,o),
(45,199,cs),
(45,92,o),
(103,47,o),
(197,25,cs),
(257,11,o),
(273,9,o),
(273,-11,cs),
(273,-41,o),
(238,-60,o),
(114,-90,c),
(109,-103,l),
(150,-179,l)
);
},
{
closed = 1;
nodes = (
(197,595,o),
(238,604,o),
(280,617,c),
(278,637,l),
(154,614,o),
(95,647,o),
(145,731,c),
(131,738,l),
(82,719,o),
(55,688,o),
(55,657,cs),
(55,617,o),
(100,590,o),
(155,590,c)
);
}
);
width = 321;
},
{
associatedMasterId = m01;
background = {
shapes = (
{
closed = 1;
nodes = (
(301,-95,o),
(344,-42,o),
(344,41,cs),
(344,133,o),
(298,186,o),
(215,198,cs),
(125,211,o),
(111,214,o),
(111,228,cs),
(111,254,o),
(211,383,o),
(387,581,c),
(387,596,l),
(237,704,l),
(223,702,l),
(85,491,o),
(18,342,o),
(18,224,cs),
(18,87,o),
(64,41,o),
(229,22,cs),
(238,21,o),
(240,21,o),
(240,19,cs),
(240,12,o),
(179,-5,o),
(103,-17,c),
(90,-41,l),
(162,-182,l)
);
},
{
closed = 1;
nodes = (
(134,553,o),
(158,561,o),
(215,581,c),
(212,621,l),
(130,617,o),
(101,652,o),
(120,730,c),
(98,740,l),
(41,727,o),
(2,688,o),
(2,642,cs),
(2,586,o),
(45,545,o),
(105,545,c)
);
}
);
};
layerId = UUID1;
name = Black;
shapes = (
{
closed = 1;
nodes = (
(301,-95,o),
(344,-42,o),
(344,41,cs),
(344,132,o),
(299,186,o),
(215,198,cs),
(121,212,o),
(111,215,o),
(111,228,cs),
(111,254,o),
(212,383,o),
(387,581,c),
(387,596,l),
(345,640,o),
(295,676,o),
(237,704,c),
(223,702,l),
(80,483,o),
(18,338,o),
(18,224,cs),
(18,86,o),
(65,41,o),
(233,22,cs),
(239,21,o),
(240,21,o),
(240,19,cs),
(240,14,o),
(171,-6,o),
(103,-17,c),
(90,-41,l),
(162,-182,l)
);
},
{
closed = 1;
nodes = (
(135,554,o),
(159,562,o),
(215,581,c),
(212,621,l),
(130,617,o),
(101,652,o),
(120,730,c),
(98,740,l),
(40,727,o),
(2,688,o),
(2,642,cs),
(2,586,o),
(45,545,o),
(105,545,c)
);
}
);
width = 351;
}
);
locked = 1;
unicode = 950;
}
{
color = 2;
glyphname = eta;
kernLeft = n;
kernRight = n;
layers = (
{
anchors = (
{
name = bottom;
pos = (132,0);
},
{
name = top;
pos = (291,452);
}
);
background = {
shapes = (
{
closed = 1;
nodes = (
(442,-228,l),
(442,228,ls),
(442,367,o),
(396,460,o),
(327,460,c),
(265,420,o),
(219,360,o),
(182,267,c),
(167,274,l),
(88,9,l),
(110,1,o),
(132,-5,o),
(156,-7,c),
(159,20,l),
(198,205,o),
(290,371,o),
(353,371,cs),
(381,371,o),
(394,336,o),
(394,260,cs),
(394,192,o),
(381,44,o),
(354,-211,c),
(378,-224,o),
(400,-231,o),
(433,-237,c)
);
},
{
closed = 1;
nodes = (
(156,-7,l),
(176,6,l),
(179,313,ls),
(180,411,o),
(140,461,o),
(71,457,cs),
(49,455,o),
(9,395,o),
(10,365,c),
(15,358,l),
(114,380,o),
(152,352,o),
(144,256,cs),
(124,15,l)
);
}
);
};
layerId = m01;
shapes = (
{
closed = 1;
nodes = (
(442,-227,l),
(442,227,ls),
(442,365,o),
(396,461,o),
(327,460,c),
(265,422,o),
(223,362,o),
(186,271,c),
(169,273,l),
(87,11,l),
(110,2,o),
(134,-5,o),
(160,-7,c),
(161,23,l),
(200,204,o),
(291,367,o),
(352,367,cs),
(380,367,o),
(393,334,o),
(393,261,cs),
(393,193,o),
(375,42,o),
(346,-209,c),
(375,-224,o),
(399,-231,o),
(433,-237,c)
);
},
{
closed = 1;
nodes = (
(178,5,l),
(180,315,ls),
(181,412,o),
(142,459,o),
(74,459,c),
(40,439,o),
(18,408,o),
(7,365,c),
(15,354,l),
(114,376,o),
(153,350,o),
(145,256,cs),
(125,16,l),
(160,-7,l)
);
}
);
width = 515;
},
{
anchors = (
{
name = bottom;
pos = (130,0);
},
{
name = top;
pos = (273,472);
}
);
associatedMasterId = m01;
background = {
shapes = (
{
closed = 1;
nodes = (
(474,-217,l),
(474,201,ls),
(474,334,o),
(429,460,o),
(375,480,c),
(315,459,o),
(263,425,o),
(217,376,c),
(198,381,l),
(57,46,l),
(120,12,o),
(171,-3,o),
(228,-7,c),
(218,98,l),
(252,188,o),
(322,273,o),
(364,273,cs),
(370,273,o),
(371,275,o),
(371,271,cs),
(371,221,o),
(308,-19,o),
(254,-172,c),
(317,-205,o),
(387,-227,o),
(462,-232,c)
);
},
{
closed = 1;
nodes = (
(245,16,l),
(205,364,ls),
(195,447,o),
(163,480,o),
(89,480,c),
(29,435,o),
(0,374,o),
(-6,298,c),
(8,282,l),
(100,308,o),
(157,304,o),
(158,268,cs),
(162,40,l),
(228,-7,l)
);
}
);
};
layerId = UUID1;
name = Black;
shapes = (
{
closed = 1;
nodes = (
(474,-217,l),
(474,201,ls),
(474,334,o),
(429,460,o),
(375,480,c),
(315,459,o),
(263,425,o),
(217,376,c),
(198,381,l),
(57,46,l),
(120,12,o),
(171,-3,o),
(228,-7,c),
(218,98,l),
(252,188,o),
(322,273,o),
(365,273,cs),
(369,273,o),
(371,271,o),
(371,267,cs),
(371,221,o),
(308,-19,o),
(254,-172,c),
(317,-205,o),
(387,-227,o),
(462,-232,c)
);
},
{
closed = 1;
nodes = (
(245,16,l),
(205,364,ls),
(195,447,o),
(163,480,o),
(89,480,c),
(29,435,o),
(0,374,o),
(-6,298,c),
(8,282,l),
(100,308,o),
(157,304,o),
(158,268,cs),
(162,40,l),
(228,-7,l)
);
}
);
width = 508;
}
);
locked = 1;
unicode = 951;
}
